<mxfile host="app.diagrams.net" modified="2023-04-13T15:21:03.298Z" agent="Mozilla/5.0 (Windows NT 10.0; Win64; x64) AppleWebKit/537.36 (KHTML, like Gecko) Chrome/111.0.0.0 Safari/537.36" etag="9dVs0xEmwuxm5XyIsgNd" version="21.1.7" type="github">
  <diagram name="PÃ¡gina-1" id="TG1QUTD_--8Li3yCVwM1">
    <mxGraphModel dx="840" dy="393" grid="1" gridSize="10" guides="1" tooltips="1" connect="1" arrows="1" fold="1" page="1" pageScale="1" pageWidth="827" pageHeight="1169" math="0" shadow="0">
      <root>
        <mxCell id="0" />
        <mxCell id="1" parent="0" />
        <mxCell id="lmG2QonkjUvl6BErKhpc-1" value="" style="triangle;whiteSpace=wrap;html=1;rotation=-90;rounded=1;arcSize=31;dashed=1;dashPattern=12 12;fillColor=#dae8fc;strokeColor=#6c8ebf;movable=0;resizable=0;rotatable=0;deletable=0;editable=0;locked=1;connectable=0;" vertex="1" parent="1">
          <mxGeometry x="240" y="50" width="320" height="400" as="geometry" />
        </mxCell>
        <mxCell id="lmG2QonkjUvl6BErKhpc-2" value="" style="triangle;whiteSpace=wrap;html=1;rotation=-90;rounded=1;fillColor=#0050ef;fontColor=#ffffff;strokeColor=#001DBC;" vertex="1" parent="1">
          <mxGeometry x="370" y="116" width="60" height="80" as="geometry" />
        </mxCell>
        <mxCell id="lmG2QonkjUvl6BErKhpc-3" value="Floresta" style="rounded=1;whiteSpace=wrap;html=1;arcSize=50;fillColor=#f0a30a;fontColor=#000000;strokeColor=#BD7000;" vertex="1" parent="1">
          <mxGeometry x="355" y="260" width="100" height="20" as="geometry" />
        </mxCell>
        <mxCell id="lmG2QonkjUvl6BErKhpc-5" value="" style="shape=image;verticalLabelPosition=bottom;labelBackgroundColor=default;verticalAlign=top;aspect=fixed;imageAspect=0;image=data:image/png,iVBORw0KGgoAAAANSUhEUgAAAgAAAAIACAYAAAD0eNT6AAAAAXNSR0IArs4c6QAAIABJREFUeJzt3VuwXNWB5vlv7Z07L+eug45Ax5KQMGAZY5kSNlCm3caNo2Kmo+mI7piaiHnwQ9vTD9NRjoqKiemIeqgJxUxE14TbEWBL9oOm7RfHTHQM7cZtotvdLquwTWEjMDLGGAQFSEjyEeh6dC5525c1D0dgBJI4efbOXDtz/X+PkCfzW8qdub699iWNIEk6ffr0F6y1/5Okz0naLmnccSQAQDFWJZ2U9HNjzL/funXrE64DlYFxHcC1hYWFHZL+b0l/4joLAGAgfizpX87Pz59wHcQlrwvAyZMn91QqlR9Za+ddZwEADI4xZiFJkv9++/btL7jO4oq3BeDNN9/cFEXRc5J2uc4CAHDiRJZle7dt23bedRAXAtcBXImi6N+KyR8AfLYjCIL/y3UIV7xcAVhYWLhZ0t9LilxnAQA4FUu6bX5+/k3XQQbNyxUAY8z/KCZ/AIAUGWP+1HUIF7wsANbaL7rOAAAoB1/nBC8LgKSPuQ4AACiN210HcMHXAjDnOgAAoDRudB3ABV8LwJjrAACA0vByTvC1AAAA4DUKAAAAHqIAAADgIQoAAAAeogAAAOAhCgAAAB6iAAAA4CEKAAAAHqIAAADgIQoAAAAeogAAAOAhCgAAAB6iAAAA4CEKAAAAHqIAAADgIQoAAAAeogAAAOAhCgAAAB6iAAAA4CEKAAAAHqIAAADgIQoAAAAeogAAAOAhCgAAAB6iAAAA4CEKAAAAHqIAAADgIQoAAAAeogAAAOAhCgAAAB6iAAAA4CEKAAAAHqIAAADgIQoAAAAeogAAAOAhCgAAAB6iAAAA4CEKAAAAHqIAAADgoYrrAOhdK8506Og5PXfikt5a6qibZK4jAfBMtRLopqma7t4xrQd3b1YjYn9y2BjXAVxYWFiwrjNs1KnFtr5x6JguNGPXUQBAkjQ7HunP/9EubZupu46yYfPz897Nh1S2IdKKMz3M5A+gZC6sxnr4J2+oFbMaOUwoAEPkxy+d1SKTP4ASWmwl+vFLZ13HQA8oAEPkyIlLriMAwDX9+iTfUcOEAjBEzq50XUcAgGviO2q4UACGSIez/QGUWJtzAIYKBQAAAA9RAAAA8BAFAAAAD1EAAADwEAUAAAAPUQAAAPAQBQAAAA9RAAAA8BAFAAAAD1EAAADwEAUAAAAPUQAAAPAQBQAAAA9RAAAA8BAFAAAAD1EAAADwEAUAAAAPUQAAAPAQBQAAAA9RAAAA8BAFAAAAD1EAAADwUMV1AIy+cCZRONdVsClRMJEqaKQyoZUk2dQoa4XKVkJlFytKz1aVLg7BZmmkcCZWOBcrnEkUTCQyjezyuIxsImWrobKlitLzkZIzVdl2+fu2qWWq3NhVeEOsYCpRMJ7KVCTJyqZGthUoW6koXawoPRspXYwk6zp1ccZrFT20d4fuv/1GbZsdlzFGi82OXjx5UY8fOaFXTl8iF0aGcR3AhYWFhaH8yvrK915wHWHdTGQV7WqpenNbZjzt6W+zlVDxibriYw3ZuFybaNDIFO1qKdrelmlk6/9DKyVvVxW/0VByptq/gBtU2dJVdEtLlRu7PX0r2Fag+OTae5W1yl9wrmfX3KT2/Q97NTdZv+r/t9bq3z3xih771Zvkuo7vfGmP6wgbMj8/X64vmwEYgl0tDBNjrKLbWqrd1pKiHibI9wgmUtXuWFXttpY6rzYUv9aQtW4/m6aWqfbxVUU72hs7cGakyk1dVW7qKr0QqfPC+Nres2PhTKzanlWFs/GG/t40MlVvb6p6a1PxiYY6L4/JdoavCIzXKvo///RuzU7UrvkYY4z+5y98TC/9fnFge9xlzYXRMHyfVJRWMJlq7AsXVbtjdcOT/xWiTLVPrKrxhUUFk72tIhQpurmtiS9eVLRzg5P/+4SzscY+v6jaJ1ZkjJvFKGOsap9Y1djnFzc8+V8hkKKdLY1/8cJaSRoy/+wzO687yb7DGKOH9u4YQKI1Zc2F0UABQCGi+Y7GHrioYKr4iTqcSjT2+YuqbO0U/tzXf2GpcfeS6n+0XEyheS8jVW9rqfG5SzK1gp/7w166lqnxuUuq3tYs/CCgiazqe5dV//Tyu+d5DIM/vm3Luh97x7ZNfUxypbLmwmigACC3aHtb9c8s9fUL31SsGvcsKdo+mL1LE1mN3b+oyvb+lo5wNtbY5xZ7O58gB9PINPa5gvb6ryPa1lbj/ksy0XCUgK0zY+t+7Oz4h++RF6WsuTAaKADIpXJTV/W9y4M5ndRI9b3LfV8JMKFV475LfZ8k3xFMpBr7B4sy9f6WAFNdKzXBxGAOp4SzsRqfXZQq5S8B9Shc92OrlcF9bZY1F0YDWww2LJhIVf/00mCvJTFS4+7lnq8s6OX56/csKbxhMJP/O4LxVI17lvp2ToAxa6VmUJP/O8JNiRqD3kYArAsFABtjpManl2Rc7N1VrBqf6c+qQ/X25tqlcA6Es7Gqd6z25bmrdzQHtqLxfpWbuqre3nTy2gCujQKADanuaimYSZy9fjgTq7qz2PMBgqlUtY/1ZwJer+qtLYWzxf67hjOxqre6nYBru1cVTLvbXgB8EAUAPTOhVXW3+z266sdXCj3xsLZn2f0nwki1O1cKfcranlX3S/BGqn+y2HEByMf11x2GULSzLVMd7KVrV2Oqdu3a/AKEc11VNrtZIn+/cDZWZUsxhyEqW7rOlv7fL9wcK5xzc3gFwAdRANCz6OaW6wjvqtxcTAGofrQ8Y5Kk6JZi8hT1PEWp3jJ8NwkCRhUFAD0JppK+3Oxno8KpJPddAk09c3bi37VUbuzmvizwnR/2KZPKTZ2B3/gIwNVRANCTsCTL5O+Vd7m8sqW3H8AZCCNVci6X9/rDPgNhpMqW8m1DgI8oAOhJZcDXx69HsClfpkFf879eectWacfFeQBAKVAA0BMz4BvJrEfem9sE0+Ubk7R2uCXX35d1XJNcDgiUAQUAPQkGdM/6XgRj+TIFjZJOlIwLQB9RANATUynfl3feTKboX/orSN4f0hnVcQEoBgUAPbGmbGeVAQA2ggKAnpikfAXApvky5f37frE5D5WP6rgAFIMCgJ5knfJNKradbzO27fX/5OogMS4A/cQnET3JVss3qeTNlC2Xb0ySlK1U8v19SceV5hwXgGJQANCT7FL5vrzTnJnSxfKNScqfq6zjyi6WMxfgGwoAepKej1xH+IDsQr5M6dlqQUmKlTdXerZ875VU3lyAbygA6ElyPirXyWWJUXouZwFYrMg2y7VcbttBASsAkbJWuT7ithUovUQBAMqgXN8OKL/EKH2rPHvMydvV/IXESvHJWjGBChKfqEt5L5e3UnKyXkieonSLGBeAQlAA0LPusYbrCO8qKkv3jYZUkhvnWWvUPV7MxN091pBKcj8gmxolJdp2AN9RANCz9FykrAQnmKWLUe7l/3fYTqDu8XJMTvHxWmGHJGwrUHyiHONK3qwr4xJAoDT4NGJDOi9OuI6g7u/Gi32+l8edX6NuY6Pu0WLH1XlpTLbreFztQO2Xx5xmAHAlCgA2JDkXKT7l7rh5fKqmpOCzyW1i1HnBbbHp/HZCtlPsx9J2A3VeLLZU9Kr9mwkp5usGKBM+kdiwzm8mZR2cZZ61AnV+M9mX544XaorfcLNkHp+srZ3814/nPlFXfMrNCYHd18eUnC7XSZYAKADIwcZGrcPTg70sMJXaz0zLxv17zfZvJ5QsDHbCSi9W1O5TqXlH59cTA7+PQ/JW1fnqA4CrowAgl3SxovbhqcGcQZ+sFY6033eSs1LrV5NKTg/mcsf0YqTWL2akPv/Qkk2NWk9PK704mBIQL9TUemZqKC77a3XXvwF3k8FdLlLWXBgNFADklpypqvnLmb6eaGa7Rs2np5WcGdA9CDKj1jPT6r7e38MByVtVtZ7q74rGe9nYqPXUtJI+38uh+/qY2s9OSVmJbhp1HW9daq77sRdWu31McqWy5sJooACgEOm5SM2fzii9UPzeeXqhouZPNxV2yd+62bWT8lqHp4u/OiCTOi+Prz33gH9i2V5eSem8PF74PQJsO1h77t+OD8We/zt++fdn1v3Yl05d7GOSK5U1F0YDBQCFyZqhmk9uWjuTvZt/UrPdtbPym09uUubwVr3J6apWDm1S9/VGIec7pOcirT6xSd1XxtxNklbqvjKm1Sc2KSmgWNnUKH6joZVDmwZ26KRIjz17XBdWOh/6OGutHj9yYgCJ1pQ1F0YDBQDFslL39YZWfnyDOr8b39BP0mbLFXV+N67VH9+wdoe+MuxJxoE6v53Q6t/MqvPKWO836rFrRaL51LSafzejbNn9jZSktX/r1t/NqPnU9NrE3eO/tW0F6rwyptW/mVX7heG91G+1k+ivHn1OZ5fb13yMtVb/7olX9MrpS97nwmgYjgN0BVtYWCjDlNKzr3zvBdcRNiScThTOxQpmYwXjqYKxVCZcewtsapQ1Q9mVUOnFSOnZKPfP+w6EkcKZROHmrsJNicxEqqDxzriMbGyUNQNlyxWlZ6tKzkSFX9/fD6aWKdzSVWUuVjCZKBjLZCIrya69V6133qvK5fcqKkdBK8h4raKH9u7Q/bffqG2z4zLGaLHZ0YsnL+rxIyecTbJlzXU13/nSHtcRNmR+ft67+dC7AUsUAADoFwrA8Cj/LgkAACgcBQAAAA9RAAAA8BAFAAAAD1EAAADwEAUAAAAPUQAAAPAQBQAAAA9RAAAA8BAFAAAAD1EAAADwEAUAAAAPUQAAAPAQBQAAAA9RAAAA8BAFAAAAD1EAAADwEAUAAAAPUQAAAPAQBQAAAA9RAAAA8BAFAAAAD1EAhshYNXQdAQCuqRExpQwT3q0hsvOGhusIAHBNuzaPuY6AHlAAhsiDuze7jgAA1/TF3XOuI6AHFIAhcte2Kd27a8Z1DAD4gPt2zehT2yZdx0APKABD5suf3U4JAFAq9+6a0b/47HbXMdAj4zqACwsLC9Z1hryeP7WkQ0fP6fj5lprd1HUcAJ4Zq4baeUNDD+7erLu2TbmOk9v8/Lx386F3A5ZGowDgD/76r/+6p8f/5V/+ZZ+SwCW2A+ThYwHgEAAAAB6iAAAA4CEKAAAAHqIAAADgIQoAAAAeogAAAOAhCgAAAB6iAAAA4CEKAAAAHqIAAADgIQoAAAAeogAAAOAhCgAAAB6iAAAA4CEKAAAAHqIAAADgIQoAAAAeogAAAOAhCgAAAB6iAAAA4CEKAAAAHqIAAADgIQoAAAAeogAAAOAhCgAAAB6iAAAA4CEKAAAAHqIAAADgIeM6gAsLCwvWdYa8nj+1pENHz+n4+Zaa3dR1HACeGauG2nlDQw/u3qy7tk25jpPb/Py8d/OhdwOWhrsAJJnVd586qcPHF11HAQBJ0r27ZvTlz25XJRjeKcXHAsAhgCHz3V8w+QMol8PHFvXdX5x0HQM9ogAMkedPLenwMSZ/AOVz+Niinj+15DoGekABGCKHXj7nOgIAXNOho3xHDRMKwBA5fqHlOgIAXNOxc03XEdADCsAQ4Wx/AGXWijPXEdADCgAAAB6iAAAA4CEKAAAAHqIAAADgIQoAAAAeogAAAOAhCgAAAB6iAAAA4CEKAAAAHqIAAADgIQoAAAAeogAAAOAhCgAAAB6iAAAA4CEKAAAAHqIAAADgIQoAAAAeogAAAOAhCgAAAB6iAAAA4CEKAAAAHqIAAADgoYrrAABQJvfdukUP7d2h27dOKwyMFi429fRrZ/TYs8e12knIhZFBAUB/BVbh5liVG2IF04mC8VSmnslUrCTJJka2HShbDZVdqig5Hyk9F0mZcRz8+kxoFc7FCmffM67a2risjJRIthkqWwnXxnS2qmw5dB37QwVTyR/er4lUZiyVKpKRXXuvOn94r9ILkZJzkZSU+71arygM9Bf/+E498PGtV/z3W7ZM6pYtk/rv9mzTXz36nI6dXSYXRsJofHJ7tLCwYF1n2IivfO8F1xHWLZhKVf1oU9F8V4qy3v44DhQvVNV9raFsuVwdNZzrqrqzrcqNXanS22aULYWK32woPl6XTcvz0TOhVbSzrejmloKptLc/ToySt6vqHmusFbch9q//yR49cMfW6z7m7HJb/+q7Tw10j7usua7lO1/a4zrChszPz5fnQzkg5fp2xdALxlLVPrmiytbuxp8kyhTd3FZ0c1vxQk3dF8eVNd3uPVfmYlU/saJwZuNfsMHU2r9N9WNNdY6OKT7WkFxWUSNFu1qq7W7KVHssae+oWFU+0lHlIx1lixW1fzeu9Gy12JwDcN+tWz50kpWkucm6Htq7Q//+l28MIFV5c2E0cBIgChPtamn8wQv5Jv/3P+d8R+MPXlC0s1XYc/bCRFaNzyypcf9irsn/iuesZqrvWdHY5xcVTPS4x12QYCLV+Ocvqr5nZeOT//ufcybR2P2XVP/0kkw0XItsD929Y92Pvf/2G/uY5EplzYXRQAFAbsZY1e9eUv1TK1I/dtRDqX7Xiup7l2XM4CaWcCZZKzQf6fTp+WONPXBRlZuKK0zrUbmpq7EHLiooqNC8X7Sto/F/dKGwwjQIt980ve7Hbpsd72OSK5U1F0YDBQC5GGNVv3dJ0fb+TJLvFe1oq37v0kBKQGVLV43PLcrUi9k7vhZTsWrce0nR9nZfX+cd0fa2GvdeevckzH4xjUyNzy2qsmWw5WajxmvrPxpaiwZ3OKqsuTAaKADIpbZ3eaB7sJWbuqr90UpfXyPcHK9NkuGAVhuMVN+7XOihk6uJ5juq710e2Km/JlwrN+HmeDAvCKAnFABsWHVXeyB7/u8X7Wj37ZwA08jUuOdSfw5lXPeFpfqnlxRM9WfZPJhIBzr5vyvUWpkad3OuA4BrowBgQ4KxVLU73V13XP/kioKxgicVIzXuWZKpujmBzYRWjU8Xf4jDGLtWavq87H/N14+sGncveXrRMVBeFABsSPXO1cHvJb9XKNXuXC30KaNdLYWb3C5XB1OpoluLXd2IbtvA9f0FC2cTVW9xcyUHgKujAKBnwWSiaH7wS//vV5nvKJgs6NK8ilXtY81Cniuv6u3N3m+edA0msqreVpJxfazpbBUCwAdRANCzasF7qHkUlSXa1ZKp9feM//UykVV1VzFXBUS7WqW5Jt9UM1V3lWfbAXxHAUBvgrU977KI5rtSkH+Ci3aUZ0ySVL25oAIwoMsL1ysqaFwA8qMAoCfh5m5p9iglSVGmyg35jtsH00lhhxKKYsZTBdP5MoUziYLJcp19H0ykCnOOC0AxKADoSZhzsu2HvNeZV7aUb0ySct9EJ5wr57jKmgvwDQUAPSnj3lveM9xdn/l/LcGmnCsAJR1XWXMBvqEAoCeufrzmevJmKtsy+TtGdVympLkA31AA0JOgVqLj/5eZer4JJe/f90vAuAD0EQUAPbElvI477z37B3bP/x6Z9f8OzNX/fkTHBaAYFAAAADxEAUBPTFK+G7rbNF+mvH/fLzbn+ZajOi4AxaAAoCdZu3yTim3n24xtq5wfg6yd78cWSjuuFr9bD5RBOb8hUFrZavm+vLOVfAeV05x/3y92Od+/dWnHtVK+bQjwEQUAPUkvlW9SyZbyTSjZxaigJMVKF/P9W5d1XElJcwG+oQCgJ+n58n15p+fyZUrOlG9MkpScqeb6+/RsOceVlfTfG/ANBQA9Sc9VZeMSnQcQB0pylpLsUkXZcrlWNuxqqCznaku6WFGW8zBC0bKVUOlSuf6tAV9RANCbTEoWaq5TvCteqEpZ/kISnyjPmCSpe7xeyPPEJ4t5nqLEb5YrD+AzCgB61n2t4TrCu4rKEh9ryHbK8XGwsSmuABxrlGbFxnYDdY+VZ9sBfFeObzwMlWy5UopVgGShVtjSvU2Muq+OFfJceXVfHZPiYj6aNi7RuI6OSSW8jwTgKwoANqTz4rjk8pbu6eUMBeq+0VDq+Az1dKmiuOAVlvi1hvPj7umFCnv/QMlQALAhWTNU+8UJZ6/feXFSWbPgE9ys1HpmSrbrZi/VJkbtX03K2mJf31qj9jNTso72vm1s1HpuSirnTxMA3qIAYMPiYw3FJwZ/Uld8oq7usf68rm0Faj8zPfjVDSu1n5tU1qc99WwlVPu5ycFPwolR6/C0bAlvIAX4jgKAXDq/nlDyVr7r1XuRvFVV59f9XXlIzkVrk9ag7qVvpdaRSSWn+3teRXK6pvaRwZUAmxq1npnKfZ8GAP1BAUAu1hq1D08NZCUgPlFX+/BU4UvkV5Ocqar15Ez/76d/eQ85GdDlevHJulqHp/t+Ml7WCtR6cib3zYwGZbWz/l8oaseDWx4qay6MBgoAcrPWqH1kUu3nJ/qzdJ5Knd9Mqn2k+OPj133ZxYpW/3ZW8an+7Jmni5FWntg00BUUaW0VZeWJTUoX+7NnHp+qqfm3s7lvZTxIr56+tO7H/v7Cah+TXKmsuTAaKAAoTHy8odVDs4VeIpgs1LR6aLZvx/w/jI2N2r+aUvOp6cImTNs16vxmUs2fzTg7Nm5XQzV/NqPObyYLO+kxXYzU/LsZtX81VZp7D6zX40dOrPuxT736dh+TXKmsuTAahqeiYyhkzVCtZ6YUTCaq3tpSZb4jE/V20NnGRslCTd3XG307Ka5X6dmqmj+tKtwcq7qrpcqNXanS27iypVDx8Ya6J+rluB7eSt1jdcUnaop2thXd3FIw1eMSTmKUvF1V91hjqI/1P/3aGf30pdN64I6t133c2aV2T5NyXmXNhdFQjm9XjJxsuaL2ryel30yockOscHOsYCpVMJHK1NM/bHmJZNuhspVQ2VKo9Fyk5HxVypzGv6b0XKTWuUiq2LVxzcYKphMF46lMPZMqkrFWNgmUNQPZ1VDphUjJmah0vzfwDpsadV9vqPt6Q8FkqsqWrsLZWGY8VTCWyVQyWWMuv1eBssu/U5BeiNZ+h6EMZaYAD//oRUm65mR7fqWjfd8/0tNx+SKUNReG32h8cnu0sLAwlFckf+V7L7iOAIy8+27doof27tDtW6cVBkYLF5t6+rUzeuzZ404n2bLmer/vfGmP6wgbMj8/7918WM5dEgBw5OnXzujp1864jvEBZc2F4cVJgAAAeIgCAACAhygAAAB4iAIAAICHKAAAAHiIAgAAgIcoAAAAeIgCAACAhygAAAB4iAIAAICHKAAAAHiIAgAAgIcoAAAAeIgCAACAhygAAAB4iAIAAICHKAAAAHiIAgAAgIcoAAAAeIgCAACAhygAAAB4iAIAAICHKABDZKwauo4AANfUiJhShgnv1hDZeUPDdQQAuKZdm8dcR0APKABD5MHdm11HAIBr+uLuOdcR0AMKwBC5a9uU7t014zoGAHzAfbtm9Kltk65joAcUgCHz5c9upwQAKJV7d83oX3x2u+sY6JFxHcCFhYUF6zpDXs+fWtKho+d0/HxLzW7qOg4Az4xVQ+28oaEHd2/WXdumXMfJbX5+3rv50LsBS6NRAAAAxfGxAHAIAAAAD1EAAADwEAUAAAAPUQAAAPAQBQAAAA9RAAAA8BAFAAAAD1EAAADwEAUAAAAPUQAAAPAQBQAAAA9RAAAA8BAFAAAAD1EAAADwEAUAAAAPUQAAAPAQBQAAAA9RAAAA8BAFAAAAD1EAAADwEAUAAAAPUQAAAPAQBQAAAA9RAAAA8BAFAAAAD1EAAADwEAUAAAAPUQAAAPBQxXUAbMzzp5Z06Og5HT/fUrObuo4DwDNj1VA7b2jowd2bdde2KddxsAHGdQAXFhYWrOsMG5VkVt996qQOH190HQUAJEn37prRlz+7XZVgeKeU+fn54Q2/QRwCGDLf/QWTP4ByOXxsUd/9xUnXMdAjCsAQef7Ukg4fY/IHUD6Hjy3q+VNLrmOgBxSAIXLo5XOuIwDANR06ynfUMKEADJHjF1quIwDANR0713QdAT2gAAwRzvYHUGatOHMdAT2gAAAA4CEKAAAAHqIAAADgIQoAAAAeogAAAOAhCgAAAB6iAAAA4CEKAAAAHqIAAADgIQoAAAAeogAAAOAhCgAAAB6iAAAA4CEKAAAAHqIAAADgIQoAAAAeogAAAOAhCgAAAB6iAAAA4CEKAAAAHqIAAADgIQoAAAAeqrgOgNEXziQK57oKNiUKJlIFjVQmtJIkmxplrVDZSqjsYkXJmaqyS0OwWZo/jCucSRRMJDKNTCa0ssZIiWQ7wdq4lipKzkVKz1el1HXw6zP1TJW5rsLNsYKpRMF4KlORJCubGtlWoGylonSxovRsVeliRbKuUxfrvlu36KG9O3T71mmFgdHCxaaefu2MHnv2uFY7CbkwMozrAC4sLCwM5VfWV773gusI61exqu5qKbq5rWCit1kvWwkVv1lX91hDSsq1iZp6puqulio72goaWU9/axOj+GRN8RsNZcvlKjnhXFfVj7ZUubHb07eCbYaKT9bUPdaQbQ/3gmIUBvqLf3ynHvj41qv+/wsrHf3Vo8/p2Nllcl3Hd760x3WEDZmfny/Xl80AeDdgiQLQV0aKdrVU270qU833z2y7Rt1XxtV9o+F8L9NEVtXdq4p2tt9dvdgwK8W/r6vz4rjzSTOYSlXbs6zK5jjX89jUKD5eV+fomBQPZxH41/9kjx644+qT7DvOLrf1r7771ED3uMua61ooAMNjOD+pKKVgLNXYP1xUfc9K7slfkkzVqvbJFY197qKCMXdr59F8R+NfvKDqR1v5J39prSRta2v8wQuqzHfyP98GM1Q/1tTYFy7mnvwlyYRW1Y+2NPHgRUWuxpTDfbdu+dBJVpLmJut6aO+OASRaU9ZcGA0UABQi3Bxr7IFFhZvyTyYfeO7ZRGMPLBYyUfXESLVPrqh+z5JMrbfl/nU9fWTVuGdJ1Y81C3/u66pYNe67pNrHV2VMsUsrpp6pfs+S6ntWhmp98aG71z953n/7jX1McqWy5sJooAAgt8qWrsb+eFGmWvwk+Q5TzdT440VVtnT79hpXvF5o1bjnkqofbfXPFaHtAAAPuElEQVT9tWofX1Vt92rfX0daKx1j9y+uHevvo+iWlhr3XCpmxWQAbr9pet2P3TY73sckVyprLowGCgByCWcS1e9dksJBvJjUuPeSwk19Ps5ppPqnl1XZOpiyIUnV3U1FO9r9fZFQatw3gH+/yypbu6p/ZmkoVgLGa+s/KbMWDWJjX1PWXBgNFABsmImsGvcOeC8vlOr3XJKJ+veatTtXVNk6+OPY9T0rCib7d65D464lhTcM9jBK5aauaneuDPQ1AawPBQAbVr9rWabHS+GKEDQy1T7Vn0ueovnOQJb9r6piVf+j5b7sMUc3t1XZ7ubkvOpHWwNdTQGwPhQAbEi4OVblI+7O9o62dVSZK3ZSMZFV7VNu91bD2bjwKwNMLVP9zsGcY3At9U8t93XVBkDvKADYkDIs61Y/UezZ89WPr/blbP9e1XYXO67ax5tS5HZcpp6pOqATHQGsDwUAPavMxQpn3N9wJJyJC7s00NQyVW92tPT/PsFkorCocTUyRTvKMa5oZ1tB3X3BArCGAoCeRTvLMaFIa3cdLEL1ltZgrmRYp2h7MVcEVG9pleZTbkJb2PsFIL+SfDVgaFSswpvKc0JX5cZu/qsQjBQ5OkHuWio39XZP/qsyUmVbny8t7FG0oz0UlwUCPqAAoCeVzXG5bu5SsbmXy8OZRMbhrYavxtQyBRP5DrOEM3HPP1jUb6aRKZwe8B0dAVwVBQA9CWfL9+Wd99r2sOCrCYoSzuYsAHPle6+k8uYCfEMBQE+Cafcn/71fMJV3T7l8Y5KU+weQSjuuAd2JEMD1UQDQk2C8XEvlUv5M/bz7Xh55f1GxrOMKcx7aAFAMCgB6EtRKdPz/MpPz0jJTL+dEmfeeBKUdF5cCAqVAAUBPbKWEBSDnSYmlOqnxPUzOf+vyjst1AgASBQA9Mrack8ooyhKulwPQPxQA9MQm5dtkbM6J0sblG5MkqZMvV1nHZWOKDVAG5fyGQGllrfJtMlkz3y38smb5xiRJWc4CUNpxlTQX4Bs+ieiJXSnR/XIvy3JmypbKeVDa5ixbZR1XtlzOXIBvKADoSXI+ch3hA7IL+TKl58o3JklKL+SbKNMSvleSlJ6tuo4AQBQA9KiMk2WSc0JJzlalkp3baNuBspV8BSB5u3zjkpWSM+XbhgAfUQDQk2ypomypPIcB0qWKsuV8eWw7WJssS6SIydt2Sjiut2qyOc9tAFAMPonoWfxmw3WEdyXH64U8T/f18oxJkuKTxYwrfqNc4+q+Ucy4AORHAUDP4uN12a77S7lsJ1D3RDETSnq2qqQkhzey5Uphh1qSM1WlOc+RKEp6LuL4P1AiFAD0zKZG3aPjrmOoc3RMKvBmOZ0XJmWt+2LTOTpW7PO9MO7+XAArtX874TgEgPeiAGBDuscaShfd7Vmmi5Hi48Uub2dLoboFT769Ss9HSn5fK/Y5FyN1X3N7KKBzdFzZJS7/A8qEAoCNsVL7V5O578K3IYlR69nJvuzVdl8dc3fiXGLUfr4/e8ndl8adHQpI3qqq+6rbYgXggygA2LBsJVT72anBLi9bqfXcpOxqn65EsFLr2SmlFwc/WbZfmOjbTXKsNWo9PZ37iolepRcrav1qwNsIgHWhACCX5O2q2kf6szf+AVZqHZlUcrrYJfIPSIxav5ge6B5z5+VxxQWd0HgttmvU/MVM7jsnrld6IVLrFzOFnqcBoDgUAOQWn6yr9cx0Xw8H2MSo9cyUkoIuj/vQ14uNWk9NKz7V/9frvDSu7iuDWSK3rUDNJ2f6Xm7ikzW1npoemh/+We0k635sO077mORKZc2F0UABQCGS01U1f7apLzcJSpcqav5spv97/u9jU6P2rybXVjj68Mt6thuo9czUwI+P206g1pPT6v59o/CVGxsbtY9Mqv3clGw6HJO/JL16+tK6H/v7C6t9THKlsubCaKAAoDDZcqjmE5vU+d14IROmjY06vxtX64kZpz8gE5+oa+Unm9auOsgKeEK7toe8emiTkoXBlpp3I1ijzu8m1PxZQasBmdQ9VtfqT2b7fiijHx4/cmLdj33q1bf7mORKZc2F0cB1OSiUtUbdvx9TfLyhaFdL0Y62goneliazlVDxibriY43SLCHbTqD28xPqvjK2Nq7tbZlGb23AxkbxqZriNxql+UW8dDFS8+czqmzpKrqlpcqNXamHf/KsFSg5WVf3WCP3rxe69PRrZ/TTl07rgTu2XvdxZ5faPU3KeZU1F0ZDOb6FMHJsbNR9dUzdV8cUziQK57oKNiUKJlIFjVQmXFt7tqlR1gqVrYTKLlaUnKmW+nrxrBWo89K4Oi+PvzuucCZRMJHINLIrxmXbobLVQNlSRenZqtILldIuiydnqkrOVGXqmSpzXYWbYwVTiYKxTCaykuy775VdCZUuXh7TYmVkzvB/+EcvStI1J9vzKx3t+/6Rno7LF6GsuTD8yvlt1GcLCwtD+ZX1le+94DoCMPLuu3WLHtq7Q7dvnVYYGC1cbOrp187osWePO51ky5rr/b7zpT2uI2zI/Py8d/NheXe1AMCBp187o6dfO+M6xgeUNReG1/AetAMAABtGAQAAwEMUAAAAPEQBAADAQxQAAAA8RAEAAMBDFAAAADxEAQAAwEMUAAAAPEQBAADAQxQAAAA8RAEAAMBDFAAAADxEAQAAwEMUAAAAPEQBAADAQxQAAAA8RAEAAMBDFAAAADxEAQAAwEMUAAAAPEQBGCL1iLcLQHnVo9B1BPSAGWWIbB6vuo4AANc0NxG5joAeUACGyN4d064jAMA1/dF2vqOGCQVgiPzJHXOaGaNhAyifmUZFf3LHnOsY6AEFYIg0okB/8eAuzVICAJTI7Hikv/jiLWpwntJQMa4DuLCwsGBdZ8ijFWc6dPScnjtxSW8tddRNMteRAHimWgl001RNd++Y1oO7Nw/95D8/P+/dfOjdgKXhLwAAgGL5WACGu7IBAIANoQAAAOAhCgAAAB6iAAAA4CEKAAAAHqIAAADgIQoAAAAeogAAAOAhCgAAAB6iAAAA4CEKAAAAHqIAAADgIQoAAAAeogAAAOAhCgAAAB6iAAAA4CEKAAAAHqIAAADgIQoAAAAeogAAAOAhCgAAAB6iAAAA4CEKAAAAHqIAAADgIQoAAAAeogAAAOAhCgAAAB6iAAAA4CEKAAAAHqIAAADgIQoAAAAeogAAAOAhCgAAAB6iAAAA4CEKAAAAHqIAAADgIQoAAAAeogAAAOAhCgAAAB6iAAAA4CFfC8CK6wAAgNJYch3ABV8LwO9dBwAAlMZp1wFc8LUA/J3rAACA0vi56wAu+FoA/j/XAQAApfEfXAdwwbgO4MrCwsITkh5wnQMA4NST8/Pz/9B1CBd8XQGQpP9F0qLrEAAAZxattf/SdQhXvC0A8/PzR40x/1zSJddZAAADt2iM+ecf+chHXnEdxBVvC4Akbd269QlJ94mTAgHAJ09aa++7PAd4y9tzAN5vYWHhTyT9qaR/IGm7pHG3iQAABVmVdFJrO3uPzs/P/9hxnlKgAJTAV7/6Ves6gy+stV8/cODA/+Y6B8rnq1/96tcl/a+uc/hi//79zD+OeX0IAP6x1v5H1xlQTsYYtg14hQIAb1hrfz83N3fYdQ6U0ze/+c1fSjrlOgcwKBQAeMMY89i+ffsy1zlQWlbSf3IdAhgUCgC8wRIvPgyHiOATCgB8cW52dvZJ1yFQbm+//fbPJJ11nQMYBAoAfPGDffv2Ja5DoNweffTR1BjzQ9c5gEGgAMALLO2iB2wr8AIFAD64tHnz5kOuQ2A4tNvtv5F00XUOoN8oABh5xpjH9+3b13WdA8Ph4MGDsaT/4joH0G8UAPiAJV30im0GI48CgFHXrFar3PcbPel0Ov9Va/ePB0YWBQAjzRjzo69//et8kaMnBw8ebEr6b65zAP1EAcBIy7KMpVxsFNsORhoFAKOs0+12/7PrEBhOjUbjh5LarnMA/UIBwCj7ycGDBy+5DoHh9LWvfW3ZWvu3rnMA/UIBwChjCRd5sQ1hZFEAMKpSSY+7DoHhZq39gSRuIY2RRAHAqPrp/v37+VEX5PKtb33rvKSfu84B9AMFACOJe/+jKPyMNEYVBQCjKJP0A9chMBqSJPm+1rYpYKRQADCKfnngwIEF1yEwGr797W+/Jelp1zmAolEAMHJYskUfsE1h5FAAMHLCMGT5H4UKw/D7kqzrHECRKAAYNUcefvjhN1yHwGh55JFHjkt63nUOoEgUAIwUlv/RR2xbGCkUAIyUIAj4kkZfBEHwqOsMQJEoABglLz3yyCMvuw6B0fSNb3zjFWst2xdGBgUAI8MY833XGTDa2MYwSigAGBks/2MA2MYwMigAGBXHH3nkEc7SRl/t37//19ZarjLBSKAAYCRYa/+D6wzwgzHmMdcZgCJQADAS+PEfDAqXmmJUUAAw9Ky1v5+bmzvsOgf88M1vfvOXkk65zgHkRQHA0DPGPLZv3z5+rQ2DYiX9J9chgLwoABh6LMli0DjkhFFAAcCwOzc7O/uk6xDwy9tvv/0zSWdd5wDyoABg2P1g3759iesQ8Mujjz6aGmN+6DoHkAcFAEONpVg4xLaHoUYBwDC7tHnz5kOuQ8BP7Xb7byRddJ0D2CgKAIaWMebxffv2dV3ngJ8OHjwYS/ovrnMAG0UBwDBjCRausQ1iaFEAMKya1Wr1x65DwG+dTue/Slp1nQPYCAoAhpIx5kdf//rX+eKFUwcPHmxK+m+ucwAbQQHAUMqyjKVXlAXbIoYSBQDDqNPtdv+z6xCAJDUajR9KarvOAfSKAoBh9JODBw9ech0CkKSvfe1ry9bav3WdA+gVBQDDiCVXlA3bJIYOBQDDJpX0uOsQwHtZa38giVtSY6hQADBsfrp//35+hAWl8q1vfeu8pJ+7zgH0ggKAocK9/1FW/Cw1hg0FAMMkk/QD1yGAq0mS5Pta20aBoUABwDD55YEDBxZchwCu5tvf/vZbkp52nQNYLwoAhgZLrBgCbKMYGhQADI0wDFn+R6mFYfh9SdZ1DmA9KAAYFkcefvjhN1yHAK7nkUceOS7pedc5gPWgAJQDd7X7ECz/Y4iwrX64RdcBQAEoBWPMM64zlF0QBHypYihcPgyA6zDGPOs6AygApZBl2QHXGUpu4ZFHHnnZdQhgPS5vq1ytch3W2v2uM4ACUAoHDhz4oTHm/3Wdo8T+resAQI/YZq/t/9m/fz+38y4BCkBJWGu/TAn4gFTSv9m/f/83XAcBenF5m/03WtuGcdnl77ivuM6BNcZ1AFzpz/7sz/5pEAR/Zq29R9K06zyOXDLG/MQY83984xvfeMF1GGCj/vzP/3yPtfZ/t9Z+UX5/np/JsuzAgQMHfug6DP7g/wcWgoHsoP28wgAAAABJRU5ErkJggg==;" vertex="1" parent="1">
          <mxGeometry x="390" y="146" width="20" height="20" as="geometry" />
        </mxCell>
        <mxCell id="lmG2QonkjUvl6BErKhpc-55" style="edgeStyle=orthogonalEdgeStyle;rounded=0;orthogonalLoop=1;jettySize=auto;html=1;entryX=0.5;entryY=1;entryDx=0;entryDy=0;endArrow=none;endFill=0;" edge="1" parent="1" source="lmG2QonkjUvl6BErKhpc-6" target="lmG2QonkjUvl6BErKhpc-8">
          <mxGeometry relative="1" as="geometry" />
        </mxCell>
        <mxCell id="lmG2QonkjUvl6BErKhpc-56" style="edgeStyle=orthogonalEdgeStyle;rounded=0;orthogonalLoop=1;jettySize=auto;html=1;entryX=0.5;entryY=0;entryDx=0;entryDy=0;endArrow=none;endFill=0;" edge="1" parent="1" source="lmG2QonkjUvl6BErKhpc-6" target="lmG2QonkjUvl6BErKhpc-11">
          <mxGeometry relative="1" as="geometry" />
        </mxCell>
        <mxCell id="lmG2QonkjUvl6BErKhpc-6" value="&lt;font color=&quot;#ffffff&quot;&gt;DomÃ­nio&lt;/font&gt;" style="text;html=1;align=center;verticalAlign=middle;resizable=0;points=[];autosize=1;strokeColor=none;fillColor=none;" vertex="1" parent="1">
          <mxGeometry x="365" y="159" width="70" height="30" as="geometry" />
        </mxCell>
        <mxCell id="lmG2QonkjUvl6BErKhpc-8" value="" style="triangle;whiteSpace=wrap;html=1;rotation=-90;rounded=1;fillColor=#0050ef;fontColor=#ffffff;strokeColor=#001DBC;" vertex="1" parent="1">
          <mxGeometry x="325" y="176" width="60" height="80" as="geometry" />
        </mxCell>
        <mxCell id="lmG2QonkjUvl6BErKhpc-9" value="" style="shape=image;verticalLabelPosition=bottom;labelBackgroundColor=default;verticalAlign=top;aspect=fixed;imageAspect=0;image=data:image/png,iVBORw0KGgoAAAANSUhEUgAAAgAAAAIACAYAAAD0eNT6AAAAAXNSR0IArs4c6QAAIABJREFUeJzt3VuwXNWB5vlv7Z07L+eug45Ax5KQMGAZY5kSNlCm3caNo2Kmo+mI7piaiHnwQ9vTD9NRjoqKiemIeqgJxUxE14TbEWBL9oOm7RfHTHQM7cZtotvdLquwTWEjMDLGGAQFSEjyEeh6dC5525c1D0dgBJI4efbOXDtz/X+PkCfzW8qdub699iWNIEk6ffr0F6y1/5Okz0naLmnccSQAQDFWJZ2U9HNjzL/funXrE64DlYFxHcC1hYWFHZL+b0l/4joLAGAgfizpX87Pz59wHcQlrwvAyZMn91QqlR9Za+ddZwEADI4xZiFJkv9++/btL7jO4oq3BeDNN9/cFEXRc5J2uc4CAHDiRJZle7dt23bedRAXAtcBXImi6N+KyR8AfLYjCIL/y3UIV7xcAVhYWLhZ0t9LilxnAQA4FUu6bX5+/k3XQQbNyxUAY8z/KCZ/AIAUGWP+1HUIF7wsANbaL7rOAAAoB1/nBC8LgKSPuQ4AACiN210HcMHXAjDnOgAAoDRudB3ABV8LwJjrAACA0vByTvC1AAAA4DUKAAAAHqIAAADgIQoAAAAeogAAAOAhCgAAAB6iAAAA4CEKAAAAHqIAAADgIQoAAAAeogAAAOAhCgAAAB6iAAAA4CEKAAAAHqIAAADgIQoAAAAeogAAAOAhCgAAAB6iAAAA4CEKAAAAHqIAAADgIQoAAAAeogAAAOAhCgAAAB6iAAAA4CEKAAAAHqIAAADgIQoAAAAeogAAAOAhCgAAAB6iAAAA4CEKAAAAHqIAAADgIQoAAAAeogAAAOAhCgAAAB6iAAAA4CEKAAAAHqIAAADgoYrrAOhdK8506Og5PXfikt5a6qibZK4jAfBMtRLopqma7t4xrQd3b1YjYn9y2BjXAVxYWFiwrjNs1KnFtr5x6JguNGPXUQBAkjQ7HunP/9EubZupu46yYfPz897Nh1S2IdKKMz3M5A+gZC6sxnr4J2+oFbMaOUwoAEPkxy+d1SKTP4ASWmwl+vFLZ13HQA8oAEPkyIlLriMAwDX9+iTfUcOEAjBEzq50XUcAgGviO2q4UACGSIez/QGUWJtzAIYKBQAAAA9RAAAA8BAFAAAAD1EAAADwEAUAAAAPUQAAAPAQBQAAAA9RAAAA8BAFAAAAD1EAAADwEAUAAAAPUQAAAPAQBQAAAA9RAAAA8BAFAAAAD1EAAADwEAUAAAAPUQAAAPAQBQAAAA9RAAAA8BAFAAAAD1EAAADwUMV1AIy+cCZRONdVsClRMJEqaKQyoZUk2dQoa4XKVkJlFytKz1aVLg7BZmmkcCZWOBcrnEkUTCQyjezyuIxsImWrobKlitLzkZIzVdl2+fu2qWWq3NhVeEOsYCpRMJ7KVCTJyqZGthUoW6koXawoPRspXYwk6zp1ccZrFT20d4fuv/1GbZsdlzFGi82OXjx5UY8fOaFXTl8iF0aGcR3AhYWFhaH8yvrK915wHWHdTGQV7WqpenNbZjzt6W+zlVDxibriYw3ZuFybaNDIFO1qKdrelmlk6/9DKyVvVxW/0VByptq/gBtU2dJVdEtLlRu7PX0r2Fag+OTae5W1yl9wrmfX3KT2/Q97NTdZv+r/t9bq3z3xih771Zvkuo7vfGmP6wgbMj8/X64vmwEYgl0tDBNjrKLbWqrd1pKiHibI9wgmUtXuWFXttpY6rzYUv9aQtW4/m6aWqfbxVUU72hs7cGakyk1dVW7qKr0QqfPC+Nres2PhTKzanlWFs/GG/t40MlVvb6p6a1PxiYY6L4/JdoavCIzXKvo///RuzU7UrvkYY4z+5y98TC/9fnFge9xlzYXRMHyfVJRWMJlq7AsXVbtjdcOT/xWiTLVPrKrxhUUFk72tIhQpurmtiS9eVLRzg5P/+4SzscY+v6jaJ1ZkjJvFKGOsap9Y1djnFzc8+V8hkKKdLY1/8cJaSRoy/+wzO687yb7DGKOH9u4YQKI1Zc2F0UABQCGi+Y7GHrioYKr4iTqcSjT2+YuqbO0U/tzXf2GpcfeS6n+0XEyheS8jVW9rqfG5SzK1gp/7w166lqnxuUuq3tYs/CCgiazqe5dV//Tyu+d5DIM/vm3Luh97x7ZNfUxypbLmwmigACC3aHtb9c8s9fUL31SsGvcsKdo+mL1LE1mN3b+oyvb+lo5wNtbY5xZ7O58gB9PINPa5gvb6ryPa1lbj/ksy0XCUgK0zY+t+7Oz4h++RF6WsuTAaKADIpXJTV/W9y4M5ndRI9b3LfV8JMKFV475LfZ8k3xFMpBr7B4sy9f6WAFNdKzXBxGAOp4SzsRqfXZQq5S8B9Shc92OrlcF9bZY1F0YDWww2LJhIVf/00mCvJTFS4+7lnq8s6OX56/csKbxhMJP/O4LxVI17lvp2ToAxa6VmUJP/O8JNiRqD3kYArAsFABtjpManl2Rc7N1VrBqf6c+qQ/X25tqlcA6Es7Gqd6z25bmrdzQHtqLxfpWbuqre3nTy2gCujQKADanuaimYSZy9fjgTq7qz2PMBgqlUtY/1ZwJer+qtLYWzxf67hjOxqre6nYBru1cVTLvbXgB8EAUAPTOhVXW3+z266sdXCj3xsLZn2f0nwki1O1cKfcranlX3S/BGqn+y2HEByMf11x2GULSzLVMd7KVrV2Oqdu3a/AKEc11VNrtZIn+/cDZWZUsxhyEqW7rOlv7fL9wcK5xzc3gFwAdRANCz6OaW6wjvqtxcTAGofrQ8Y5Kk6JZi8hT1PEWp3jJ8NwkCRhUFAD0JppK+3Oxno8KpJPddAk09c3bi37VUbuzmvizwnR/2KZPKTZ2B3/gIwNVRANCTsCTL5O+Vd7m8sqW3H8AZCCNVci6X9/rDPgNhpMqW8m1DgI8oAOhJZcDXx69HsClfpkFf879eectWacfFeQBAKVAA0BMz4BvJrEfem9sE0+Ubk7R2uCXX35d1XJNcDgiUAQUAPQkGdM/6XgRj+TIFjZJOlIwLQB9RANATUynfl3feTKboX/orSN4f0hnVcQEoBgUAPbGmbGeVAQA2ggKAnpikfAXApvky5f37frE5D5WP6rgAFIMCgJ5knfJNKradbzO27fX/5OogMS4A/cQnET3JVss3qeTNlC2Xb0ySlK1U8v19SceV5hwXgGJQANCT7FL5vrzTnJnSxfKNScqfq6zjyi6WMxfgGwoAepKej1xH+IDsQr5M6dlqQUmKlTdXerZ875VU3lyAbygA6ElyPirXyWWJUXouZwFYrMg2y7VcbttBASsAkbJWuT7ithUovUQBAMqgXN8OKL/EKH2rPHvMydvV/IXESvHJWjGBChKfqEt5L5e3UnKyXkieonSLGBeAQlAA0LPusYbrCO8qKkv3jYZUkhvnWWvUPV7MxN091pBKcj8gmxolJdp2AN9RANCz9FykrAQnmKWLUe7l/3fYTqDu8XJMTvHxWmGHJGwrUHyiHONK3qwr4xJAoDT4NGJDOi9OuI6g7u/Gi32+l8edX6NuY6Pu0WLH1XlpTLbreFztQO2Xx5xmAHAlCgA2JDkXKT7l7rh5fKqmpOCzyW1i1HnBbbHp/HZCtlPsx9J2A3VeLLZU9Kr9mwkp5usGKBM+kdiwzm8mZR2cZZ61AnV+M9mX544XaorfcLNkHp+srZ3814/nPlFXfMrNCYHd18eUnC7XSZYAKADIwcZGrcPTg70sMJXaz0zLxv17zfZvJ5QsDHbCSi9W1O5TqXlH59cTA7+PQ/JW1fnqA4CrowAgl3SxovbhqcGcQZ+sFY6033eSs1LrV5NKTg/mcsf0YqTWL2akPv/Qkk2NWk9PK704mBIQL9TUemZqKC77a3XXvwF3k8FdLlLWXBgNFADklpypqvnLmb6eaGa7Rs2np5WcGdA9CDKj1jPT6r7e38MByVtVtZ7q74rGe9nYqPXUtJI+38uh+/qY2s9OSVmJbhp1HW9daq77sRdWu31McqWy5sJooACgEOm5SM2fzii9UPzeeXqhouZPNxV2yd+62bWT8lqHp4u/OiCTOi+Prz33gH9i2V5eSem8PF74PQJsO1h77t+OD8We/zt++fdn1v3Yl05d7GOSK5U1F0YDBQCFyZqhmk9uWjuTvZt/UrPdtbPym09uUubwVr3J6apWDm1S9/VGIec7pOcirT6xSd1XxtxNklbqvjKm1Sc2KSmgWNnUKH6joZVDmwZ26KRIjz17XBdWOh/6OGutHj9yYgCJ1pQ1F0YDBQDFslL39YZWfnyDOr8b39BP0mbLFXV+N67VH9+wdoe+MuxJxoE6v53Q6t/MqvPKWO836rFrRaL51LSafzejbNn9jZSktX/r1t/NqPnU9NrE3eO/tW0F6rwyptW/mVX7heG91G+1k+ivHn1OZ5fb13yMtVb/7olX9MrpS97nwmgYjgN0BVtYWCjDlNKzr3zvBdcRNiScThTOxQpmYwXjqYKxVCZcewtsapQ1Q9mVUOnFSOnZKPfP+w6EkcKZROHmrsJNicxEqqDxzriMbGyUNQNlyxWlZ6tKzkSFX9/fD6aWKdzSVWUuVjCZKBjLZCIrya69V6133qvK5fcqKkdBK8h4raKH9u7Q/bffqG2z4zLGaLHZ0YsnL+rxIyecTbJlzXU13/nSHtcRNmR+ft67+dC7AUsUAADoFwrA8Cj/LgkAACgcBQAAAA9RAAAA8BAFAAAAD1EAAADwEAUAAAAPUQAAAPAQBQAAAA9RAAAA8BAFAAAAD1EAAADwEAUAAAAPUQAAAPAQBQAAAA9RAAAA8BAFAAAAD1EAAADwEAUAAAAPUQAAAPAQBQAAAA9RAAAA8BAFAAAAD1EAhshYNXQdAQCuqRExpQwT3q0hsvOGhusIAHBNuzaPuY6AHlAAhsiDuze7jgAA1/TF3XOuI6AHFIAhcte2Kd27a8Z1DAD4gPt2zehT2yZdx0APKABD5suf3U4JAFAq9+6a0b/47HbXMdAj4zqACwsLC9Z1hryeP7WkQ0fP6fj5lprd1HUcAJ4Zq4baeUNDD+7erLu2TbmOk9v8/Lx386F3A5ZGowDgD/76r/+6p8f/5V/+ZZ+SwCW2A+ThYwHgEAAAAB6iAAAA4CEKAAAAHqIAAADgIQoAAAAeogAAAOAhCgAAAB6iAAAA4CEKAAAAHqIAAADgIQoAAAAeogAAAOAhCgAAAB6iAAAA4CEKAAAAHqIAAADgIQoAAAAeogAAAOAhCgAAAB6iAAAA4CEKAAAAHqIAAADgIQoAAAAeogAAAOAhCgAAAB6iAAAA4CEKAAAAHqIAAADgIeM6gAsLCwvWdYa8nj+1pENHz+n4+Zaa3dR1HACeGauG2nlDQw/u3qy7tk25jpPb/Py8d/OhdwOWhrsAJJnVd586qcPHF11HAQBJ0r27ZvTlz25XJRjeKcXHAsAhgCHz3V8w+QMol8PHFvXdX5x0HQM9ogAMkedPLenwMSZ/AOVz+Niinj+15DoGekABGCKHXj7nOgIAXNOho3xHDRMKwBA5fqHlOgIAXNOxc03XEdADCsAQ4Wx/AGXWijPXEdADCgAAAB6iAAAA4CEKAAAAHqIAAADgIQoAAAAeogAAAOAhCgAAAB6iAAAA4CEKAAAAHqIAAADgIQoAAAAeogAAAOAhCgAAAB6iAAAA4CEKAAAAHqIAAADgIQoAAAAeogAAAOAhCgAAAB6iAAAA4CEKAAAAHqIAAADgoYrrAABQJvfdukUP7d2h27dOKwyMFi429fRrZ/TYs8e12knIhZFBAUB/BVbh5liVG2IF04mC8VSmnslUrCTJJka2HShbDZVdqig5Hyk9F0mZcRz8+kxoFc7FCmffM67a2risjJRIthkqWwnXxnS2qmw5dB37QwVTyR/er4lUZiyVKpKRXXuvOn94r9ILkZJzkZSU+71arygM9Bf/+E498PGtV/z3W7ZM6pYtk/rv9mzTXz36nI6dXSYXRsJofHJ7tLCwYF1n2IivfO8F1xHWLZhKVf1oU9F8V4qy3v44DhQvVNV9raFsuVwdNZzrqrqzrcqNXanS22aULYWK32woPl6XTcvz0TOhVbSzrejmloKptLc/ToySt6vqHmusFbch9q//yR49cMfW6z7m7HJb/+q7Tw10j7usua7lO1/a4zrChszPz5fnQzkg5fp2xdALxlLVPrmiytbuxp8kyhTd3FZ0c1vxQk3dF8eVNd3uPVfmYlU/saJwZuNfsMHU2r9N9WNNdY6OKT7WkFxWUSNFu1qq7W7KVHssae+oWFU+0lHlIx1lixW1fzeu9Gy12JwDcN+tWz50kpWkucm6Htq7Q//+l28MIFV5c2E0cBIgChPtamn8wQv5Jv/3P+d8R+MPXlC0s1XYc/bCRFaNzyypcf9irsn/iuesZqrvWdHY5xcVTPS4x12QYCLV+Ocvqr5nZeOT//ufcybR2P2XVP/0kkw0XItsD929Y92Pvf/2G/uY5EplzYXRQAFAbsZY1e9eUv1TK1I/dtRDqX7Xiup7l2XM4CaWcCZZKzQf6fTp+WONPXBRlZuKK0zrUbmpq7EHLiooqNC8X7Sto/F/dKGwwjQIt980ve7Hbpsd72OSK5U1F0YDBQC5GGNVv3dJ0fb+TJLvFe1oq37v0kBKQGVLV43PLcrUi9k7vhZTsWrce0nR9nZfX+cd0fa2GvdeevckzH4xjUyNzy2qsmWw5WajxmvrPxpaiwZ3OKqsuTAaKADIpbZ3eaB7sJWbuqr90UpfXyPcHK9NkuGAVhuMVN+7XOihk6uJ5juq710e2Km/JlwrN+HmeDAvCKAnFABsWHVXeyB7/u8X7Wj37ZwA08jUuOdSfw5lXPeFpfqnlxRM9WfZPJhIBzr5vyvUWpkad3OuA4BrowBgQ4KxVLU73V13XP/kioKxgicVIzXuWZKpujmBzYRWjU8Xf4jDGLtWavq87H/N14+sGncveXrRMVBeFABsSPXO1cHvJb9XKNXuXC30KaNdLYWb3C5XB1OpoluLXd2IbtvA9f0FC2cTVW9xcyUHgKujAKBnwWSiaH7wS//vV5nvKJgs6NK8ilXtY81Cniuv6u3N3m+edA0msqreVpJxfazpbBUCwAdRANCzasF7qHkUlSXa1ZKp9feM//UykVV1VzFXBUS7WqW5Jt9UM1V3lWfbAXxHAUBvgrU977KI5rtSkH+Ci3aUZ0ySVL25oAIwoMsL1ysqaFwA8qMAoCfh5m5p9iglSVGmyg35jtsH00lhhxKKYsZTBdP5MoUziYLJcp19H0ykCnOOC0AxKADoSZhzsu2HvNeZV7aUb0ySct9EJ5wr57jKmgvwDQUAPSnj3lveM9xdn/l/LcGmnCsAJR1XWXMBvqEAoCeufrzmevJmKtsy+TtGdVympLkA31AA0JOgVqLj/5eZer4JJe/f90vAuAD0EQUAPbElvI477z37B3bP/x6Z9f8OzNX/fkTHBaAYFAAAADxEAUBPTFK+G7rbNF+mvH/fLzbn+ZajOi4AxaAAoCdZu3yTim3n24xtq5wfg6yd78cWSjuuFr9bD5RBOb8hUFrZavm+vLOVfAeV05x/3y92Od+/dWnHtVK+bQjwEQUAPUkvlW9SyZbyTSjZxaigJMVKF/P9W5d1XElJcwG+oQCgJ+n58n15p+fyZUrOlG9MkpScqeb6+/RsOceVlfTfG/ANBQA9Sc9VZeMSnQcQB0pylpLsUkXZcrlWNuxqqCznaku6WFGW8zBC0bKVUOlSuf6tAV9RANCbTEoWaq5TvCteqEpZ/kISnyjPmCSpe7xeyPPEJ4t5nqLEb5YrD+AzCgB61n2t4TrCu4rKEh9ryHbK8XGwsSmuABxrlGbFxnYDdY+VZ9sBfFeObzwMlWy5UopVgGShVtjSvU2Muq+OFfJceXVfHZPiYj6aNi7RuI6OSSW8jwTgKwoANqTz4rjk8pbu6eUMBeq+0VDq+Az1dKmiuOAVlvi1hvPj7umFCnv/QMlQALAhWTNU+8UJZ6/feXFSWbPgE9ys1HpmSrbrZi/VJkbtX03K2mJf31qj9jNTso72vm1s1HpuSirnTxMA3qIAYMPiYw3FJwZ/Uld8oq7usf68rm0Faj8zPfjVDSu1n5tU1qc99WwlVPu5ycFPwolR6/C0bAlvIAX4jgKAXDq/nlDyVr7r1XuRvFVV59f9XXlIzkVrk9ag7qVvpdaRSSWn+3teRXK6pvaRwZUAmxq1npnKfZ8GAP1BAUAu1hq1D08NZCUgPlFX+/BU4UvkV5Ocqar15Ez/76d/eQ85GdDlevHJulqHp/t+Ml7WCtR6cib3zYwGZbWz/l8oaseDWx4qay6MBgoAcrPWqH1kUu3nJ/qzdJ5Knd9Mqn2k+OPj133ZxYpW/3ZW8an+7Jmni5FWntg00BUUaW0VZeWJTUoX+7NnHp+qqfm3s7lvZTxIr56+tO7H/v7Cah+TXKmsuTAaKAAoTHy8odVDs4VeIpgs1LR6aLZvx/w/jI2N2r+aUvOp6cImTNs16vxmUs2fzTg7Nm5XQzV/NqPObyYLO+kxXYzU/LsZtX81VZp7D6zX40dOrPuxT736dh+TXKmsuTAahqeiYyhkzVCtZ6YUTCaq3tpSZb4jE/V20NnGRslCTd3XG307Ka5X6dmqmj+tKtwcq7qrpcqNXanS27iypVDx8Ya6J+rluB7eSt1jdcUnaop2thXd3FIw1eMSTmKUvF1V91hjqI/1P/3aGf30pdN64I6t133c2aV2T5NyXmXNhdFQjm9XjJxsuaL2ryel30yockOscHOsYCpVMJHK1NM/bHmJZNuhspVQ2VKo9Fyk5HxVypzGv6b0XKTWuUiq2LVxzcYKphMF46lMPZMqkrFWNgmUNQPZ1VDphUjJmah0vzfwDpsadV9vqPt6Q8FkqsqWrsLZWGY8VTCWyVQyWWMuv1eBssu/U5BeiNZ+h6EMZaYAD//oRUm65mR7fqWjfd8/0tNx+SKUNReG32h8cnu0sLAwlFckf+V7L7iOAIy8+27doof27tDtW6cVBkYLF5t6+rUzeuzZ404n2bLmer/vfGmP6wgbMj8/7918WM5dEgBw5OnXzujp1864jvEBZc2F4cVJgAAAeIgCAACAhygAAAB4iAIAAICHKAAAAHiIAgAAgIcoAAAAeIgCAACAhygAAAB4iAIAAICHKAAAAHiIAgAAgIcoAAAAeIgCAACAhygAAAB4iAIAAICHKAAAAHiIAgAAgIcoAAAAeIgCAACAhygAAAB4iAIAAICHKABDZKwauo4AANfUiJhShgnv1hDZeUPDdQQAuKZdm8dcR0APKABD5MHdm11HAIBr+uLuOdcR0AMKwBC5a9uU7t014zoGAHzAfbtm9Kltk65joAcUgCHz5c9upwQAKJV7d83oX3x2u+sY6JFxHcCFhYUF6zpDXs+fWtKho+d0/HxLzW7qOg4Az4xVQ+28oaEHd2/WXdumXMfJbX5+3rv50LsBS6NRAAAAxfGxAHAIAAAAD1EAAADwEAUAAAAPUQAAAPAQBQAAAA9RAAAA8BAFAAAAD1EAAADwEAUAAAAPUQAAAPAQBQAAAA9RAAAA8BAFAAAAD1EAAADwEAUAAAAPUQAAAPAQBQAAAA9RAAAA8BAFAAAAD1EAAADwEAUAAAAPUQAAAPAQBQAAAA9RAAAA8BAFAAAAD1EAAADwEAUAAAAPUQAAAPBQxXUAbMzzp5Z06Og5HT/fUrObuo4DwDNj1VA7b2jowd2bdde2KddxsAHGdQAXFhYWrOsMG5VkVt996qQOH190HQUAJEn37prRlz+7XZVgeKeU+fn54Q2/QRwCGDLf/QWTP4ByOXxsUd/9xUnXMdAjCsAQef7Ukg4fY/IHUD6Hjy3q+VNLrmOgBxSAIXLo5XOuIwDANR06ynfUMKEADJHjF1quIwDANR0713QdAT2gAAwRzvYHUGatOHMdAT2gAAAA4CEKAAAAHqIAAADgIQoAAAAeogAAAOAhCgAAAB6iAAAA4CEKAAAAHqIAAADgIQoAAAAeogAAAOAhCgAAAB6iAAAA4CEKAAAAHqIAAADgIQoAAAAeogAAAOAhCgAAAB6iAAAA4CEKAAAAHqIAAADgIQoAAAAeqrgOgNEXziQK57oKNiUKJlIFjVQmtJIkmxplrVDZSqjsYkXJmaqyS0OwWZo/jCucSRRMJDKNTCa0ssZIiWQ7wdq4lipKzkVKz1el1HXw6zP1TJW5rsLNsYKpRMF4KlORJCubGtlWoGylonSxovRsVeliRbKuUxfrvlu36KG9O3T71mmFgdHCxaaefu2MHnv2uFY7CbkwMozrAC4sLCwM5VfWV773gusI61exqu5qKbq5rWCit1kvWwkVv1lX91hDSsq1iZp6puqulio72goaWU9/axOj+GRN8RsNZcvlKjnhXFfVj7ZUubHb07eCbYaKT9bUPdaQbQ/3gmIUBvqLf3ynHvj41qv+/wsrHf3Vo8/p2Nllcl3Hd760x3WEDZmfny/Xl80AeDdgiQLQV0aKdrVU270qU833z2y7Rt1XxtV9o+F8L9NEVtXdq4p2tt9dvdgwK8W/r6vz4rjzSTOYSlXbs6zK5jjX89jUKD5eV+fomBQPZxH41/9kjx644+qT7DvOLrf1r7771ED3uMua61ooAMNjOD+pKKVgLNXYP1xUfc9K7slfkkzVqvbJFY197qKCMXdr59F8R+NfvKDqR1v5J39prSRta2v8wQuqzHfyP98GM1Q/1tTYFy7mnvwlyYRW1Y+2NPHgRUWuxpTDfbdu+dBJVpLmJut6aO+OASRaU9ZcGA0UABQi3Bxr7IFFhZvyTyYfeO7ZRGMPLBYyUfXESLVPrqh+z5JMrbfl/nU9fWTVuGdJ1Y81C3/u66pYNe67pNrHV2VMsUsrpp6pfs+S6ntWhmp98aG71z953n/7jX1McqWy5sJooAAgt8qWrsb+eFGmWvwk+Q5TzdT440VVtnT79hpXvF5o1bjnkqofbfXPFaHtAAAPuElEQVT9tWofX1Vt92rfX0daKx1j9y+uHevvo+iWlhr3XCpmxWQAbr9pet2P3TY73sckVyprLowGCgByCWcS1e9dksJBvJjUuPeSwk19Ps5ppPqnl1XZOpiyIUnV3U1FO9r9fZFQatw3gH+/yypbu6p/ZmkoVgLGa+s/KbMWDWJjX1PWXBgNFABsmImsGvcOeC8vlOr3XJKJ+veatTtXVNk6+OPY9T0rCib7d65D464lhTcM9jBK5aauaneuDPQ1AawPBQAbVr9rWabHS+GKEDQy1T7Vn0ueovnOQJb9r6piVf+j5b7sMUc3t1XZ7ubkvOpHWwNdTQGwPhQAbEi4OVblI+7O9o62dVSZK3ZSMZFV7VNu91bD2bjwKwNMLVP9zsGcY3At9U8t93XVBkDvKADYkDIs61Y/UezZ89WPr/blbP9e1XYXO67ax5tS5HZcpp6pOqATHQGsDwUAPavMxQpn3N9wJJyJC7s00NQyVW92tPT/PsFkorCocTUyRTvKMa5oZ1tB3X3BArCGAoCeRTvLMaFIa3cdLEL1ltZgrmRYp2h7MVcEVG9pleZTbkJb2PsFIL+SfDVgaFSswpvKc0JX5cZu/qsQjBQ5OkHuWio39XZP/qsyUmVbny8t7FG0oz0UlwUCPqAAoCeVzXG5bu5SsbmXy8OZRMbhrYavxtQyBRP5DrOEM3HPP1jUb6aRKZwe8B0dAVwVBQA9CWfL9+Wd99r2sOCrCYoSzuYsAHPle6+k8uYCfEMBQE+Cafcn/71fMJV3T7l8Y5KU+weQSjuuAd2JEMD1UQDQk2C8XEvlUv5M/bz7Xh55f1GxrOMKcx7aAFAMCgB6EtRKdPz/MpPz0jJTL+dEmfeeBKUdF5cCAqVAAUBPbKWEBSDnSYmlOqnxPUzOf+vyjst1AgASBQA9Mrack8ooyhKulwPQPxQA9MQm5dtkbM6J0sblG5MkqZMvV1nHZWOKDVAG5fyGQGllrfJtMlkz3y38smb5xiRJWc4CUNpxlTQX4Bs+ieiJXSnR/XIvy3JmypbKeVDa5ixbZR1XtlzOXIBvKADoSXI+ch3hA7IL+TKl58o3JklKL+SbKNMSvleSlJ6tuo4AQBQA9KiMk2WSc0JJzlalkp3baNuBspV8BSB5u3zjkpWSM+XbhgAfUQDQk2ypomypPIcB0qWKsuV8eWw7WJssS6SIydt2Sjiut2qyOc9tAFAMPonoWfxmw3WEdyXH64U8T/f18oxJkuKTxYwrfqNc4+q+Ucy4AORHAUDP4uN12a77S7lsJ1D3RDETSnq2qqQkhzey5Uphh1qSM1WlOc+RKEp6LuL4P1AiFAD0zKZG3aPjrmOoc3RMKvBmOZ0XJmWt+2LTOTpW7PO9MO7+XAArtX874TgEgPeiAGBDuscaShfd7Vmmi5Hi48Uub2dLoboFT769Ss9HSn5fK/Y5FyN1X3N7KKBzdFzZJS7/A8qEAoCNsVL7V5O578K3IYlR69nJvuzVdl8dc3fiXGLUfr4/e8ndl8adHQpI3qqq+6rbYgXggygA2LBsJVT72anBLi9bqfXcpOxqn65EsFLr2SmlFwc/WbZfmOjbTXKsNWo9PZ37iolepRcrav1qwNsIgHWhACCX5O2q2kf6szf+AVZqHZlUcrrYJfIPSIxav5ge6B5z5+VxxQWd0HgttmvU/MVM7jsnrld6IVLrFzOFnqcBoDgUAOQWn6yr9cx0Xw8H2MSo9cyUkoIuj/vQ14uNWk9NKz7V/9frvDSu7iuDWSK3rUDNJ2f6Xm7ikzW1npoemh/+We0k635sO077mORKZc2F0UABQCGS01U1f7apLzcJSpcqav5spv97/u9jU6P2rybXVjj68Mt6thuo9czUwI+P206g1pPT6v59o/CVGxsbtY9Mqv3clGw6HJO/JL16+tK6H/v7C6t9THKlsubCaKAAoDDZcqjmE5vU+d14IROmjY06vxtX64kZpz8gE5+oa+Unm9auOsgKeEK7toe8emiTkoXBlpp3I1ijzu8m1PxZQasBmdQ9VtfqT2b7fiijHx4/cmLdj33q1bf7mORKZc2F0cB1OSiUtUbdvx9TfLyhaFdL0Y62goneliazlVDxibriY43SLCHbTqD28xPqvjK2Nq7tbZlGb23AxkbxqZriNxql+UW8dDFS8+czqmzpKrqlpcqNXamHf/KsFSg5WVf3WCP3rxe69PRrZ/TTl07rgTu2XvdxZ5faPU3KeZU1F0ZDOb6FMHJsbNR9dUzdV8cUziQK57oKNiUKJlIFjVQmXFt7tqlR1gqVrYTKLlaUnKmW+nrxrBWo89K4Oi+PvzuucCZRMJHINLIrxmXbobLVQNlSRenZqtILldIuiydnqkrOVGXqmSpzXYWbYwVTiYKxTCaykuy775VdCZUuXh7TYmVkzvB/+EcvStI1J9vzKx3t+/6Rno7LF6GsuTD8yvlt1GcLCwtD+ZX1le+94DoCMPLuu3WLHtq7Q7dvnVYYGC1cbOrp187osWePO51ky5rr/b7zpT2uI2zI/Py8d/NheXe1AMCBp187o6dfO+M6xgeUNReG1/AetAMAABtGAQAAwEMUAAAAPEQBAADAQxQAAAA8RAEAAMBDFAAAADxEAQAAwEMUAAAAPEQBAADAQxQAAAA8RAEAAMBDFAAAADxEAQAAwEMUAAAAPEQBAADAQxQAAAA8RAEAAMBDFAAAADxEAQAAwEMUAAAAPEQBGCL1iLcLQHnVo9B1BPSAGWWIbB6vuo4AANc0NxG5joAeUACGyN4d064jAMA1/dF2vqOGCQVgiPzJHXOaGaNhAyifmUZFf3LHnOsY6AEFYIg0okB/8eAuzVICAJTI7Hikv/jiLWpwntJQMa4DuLCwsGBdZ8ijFWc6dPScnjtxSW8tddRNMteRAHimWgl001RNd++Y1oO7Nw/95D8/P+/dfOjdgKXhLwAAgGL5WACGu7IBAIANoQAAAOAhCgAAAB6iAAAA4CEKAAAAHqIAAADgIQoAAAAeogAAAOAhCgAAAB6iAAAA4CEKAAAAHqIAAADgIQoAAAAeogAAAOAhCgAAAB6iAAAA4CEKAAAAHqIAAADgIQoAAAAeogAAAOAhCgAAAB6iAAAA4CEKAAAAHqIAAADgIQoAAAAeogAAAOAhCgAAAB6iAAAA4CEKAAAAHqIAAADgIQoAAAAeogAAAOAhCgAAAB6iAAAA4CEKAAAAHqIAAADgIQoAAAAeogAAAOAhCgAAAB6iAAAA4CFfC8CK6wAAgNJYch3ABV8LwO9dBwAAlMZp1wFc8LUA/J3rAACA0vi56wAu+FoA/j/XAQAApfEfXAdwwbgO4MrCwsITkh5wnQMA4NST8/Pz/9B1CBd8XQGQpP9F0qLrEAAAZxattf/SdQhXvC0A8/PzR40x/1zSJddZAAADt2iM+ecf+chHXnEdxBVvC4Akbd269QlJ94mTAgHAJ09aa++7PAd4y9tzAN5vYWHhTyT9qaR/IGm7pHG3iQAABVmVdFJrO3uPzs/P/9hxnlKgAJTAV7/6Ves6gy+stV8/cODA/+Y6B8rnq1/96tcl/a+uc/hi//79zD+OeX0IAP6x1v5H1xlQTsYYtg14hQIAb1hrfz83N3fYdQ6U0ze/+c1fSjrlOgcwKBQAeMMY89i+ffsy1zlQWlbSf3IdAhgUCgC8wRIvPgyHiOATCgB8cW52dvZJ1yFQbm+//fbPJJ11nQMYBAoAfPGDffv2Ja5DoNweffTR1BjzQ9c5gEGgAMALLO2iB2wr8AIFAD64tHnz5kOuQ2A4tNvtv5F00XUOoN8oABh5xpjH9+3b13WdA8Ph4MGDsaT/4joH0G8UAPiAJV30im0GI48CgFHXrFar3PcbPel0Ov9Va/ePB0YWBQAjzRjzo69//et8kaMnBw8ebEr6b65zAP1EAcBIy7KMpVxsFNsORhoFAKOs0+12/7PrEBhOjUbjh5LarnMA/UIBwCj7ycGDBy+5DoHh9LWvfW3ZWvu3rnMA/UIBwChjCRd5sQ1hZFEAMKpSSY+7DoHhZq39gSRuIY2RRAHAqPrp/v37+VEX5PKtb33rvKSfu84B9AMFACOJe/+jKPyMNEYVBQCjKJP0A9chMBqSJPm+1rYpYKRQADCKfnngwIEF1yEwGr797W+/Jelp1zmAolEAMHJYskUfsE1h5FAAMHLCMGT5H4UKw/D7kqzrHECRKAAYNUcefvjhN1yHwGh55JFHjkt63nUOoEgUAIwUlv/RR2xbGCkUAIyUIAj4kkZfBEHwqOsMQJEoABglLz3yyCMvuw6B0fSNb3zjFWst2xdGBgUAI8MY833XGTDa2MYwSigAGBks/2MA2MYwMigAGBXHH3nkEc7SRl/t37//19ZarjLBSKAAYCRYa/+D6wzwgzHmMdcZgCJQADAS+PEfDAqXmmJUUAAw9Ky1v5+bmzvsOgf88M1vfvOXkk65zgHkRQHA0DPGPLZv3z5+rQ2DYiX9J9chgLwoABh6LMli0DjkhFFAAcCwOzc7O/uk6xDwy9tvv/0zSWdd5wDyoABg2P1g3759iesQ8Mujjz6aGmN+6DoHkAcFAEONpVg4xLaHoUYBwDC7tHnz5kOuQ8BP7Xb7byRddJ0D2CgKAIaWMebxffv2dV3ngJ8OHjwYS/ovrnMAG0UBwDBjCRausQ1iaFEAMKya1Wr1x65DwG+dTue/Slp1nQPYCAoAhpIx5kdf//rX+eKFUwcPHmxK+m+ucwAbQQHAUMqyjKVXlAXbIoYSBQDDqNPtdv+z6xCAJDUajR9KarvOAfSKAoBh9JODBw9ech0CkKSvfe1ry9bav3WdA+gVBQDDiCVXlA3bJIYOBQDDJpX0uOsQwHtZa38giVtSY6hQADBsfrp//35+hAWl8q1vfeu8pJ+7zgH0ggKAocK9/1FW/Cw1hg0FAMMkk/QD1yGAq0mS5Pta20aBoUABwDD55YEDBxZchwCu5tvf/vZbkp52nQNYLwoAhgZLrBgCbKMYGhQADI0wDFn+R6mFYfh9SdZ1DmA9KAAYFkcefvjhN1yHAK7nkUceOS7pedc5gPWgAJQDd7X7ECz/Y4iwrX64RdcBQAEoBWPMM64zlF0QBHypYihcPgyA6zDGPOs6AygApZBl2QHXGUpu4ZFHHnnZdQhgPS5vq1ytch3W2v2uM4ACUAoHDhz4oTHm/3Wdo8T+resAQI/YZq/t/9m/fz+38y4BCkBJWGu/TAn4gFTSv9m/f/83XAcBenF5m/03WtuGcdnl77ivuM6BNcZ1AFzpz/7sz/5pEAR/Zq29R9K06zyOXDLG/MQY83984xvfeMF1GGCj/vzP/3yPtfZ/t9Z+UX5/np/JsuzAgQMHfug6DP7g/wcWgoHsoP28wgAAAABJRU5ErkJggg==;" vertex="1" parent="1">
          <mxGeometry x="345" y="206" width="20" height="20" as="geometry" />
        </mxCell>
        <mxCell id="lmG2QonkjUvl6BErKhpc-10" value="&lt;font color=&quot;#ffffff&quot;&gt;DomÃ­nio&lt;/font&gt;" style="text;html=1;align=center;verticalAlign=middle;resizable=0;points=[];autosize=1;strokeColor=none;fillColor=none;" vertex="1" parent="1">
          <mxGeometry x="320" y="219" width="70" height="30" as="geometry" />
        </mxCell>
        <mxCell id="lmG2QonkjUvl6BErKhpc-11" value="" style="triangle;whiteSpace=wrap;html=1;rotation=-90;rounded=1;fillColor=#0050ef;fontColor=#ffffff;strokeColor=#001DBC;" vertex="1" parent="1">
          <mxGeometry x="415" y="176" width="60" height="80" as="geometry" />
        </mxCell>
        <mxCell id="lmG2QonkjUvl6BErKhpc-12" value="" style="shape=image;verticalLabelPosition=bottom;labelBackgroundColor=default;verticalAlign=top;aspect=fixed;imageAspect=0;image=data:image/png,iVBORw0KGgoAAAANSUhEUgAAAgAAAAIACAYAAAD0eNT6AAAAAXNSR0IArs4c6QAAIABJREFUeJzt3VuwXNWB5vlv7Z07L+eug45Ax5KQMGAZY5kSNlCm3caNo2Kmo+mI7piaiHnwQ9vTD9NRjoqKiemIeqgJxUxE14TbEWBL9oOm7RfHTHQM7cZtotvdLquwTWEjMDLGGAQFSEjyEeh6dC5525c1D0dgBJI4efbOXDtz/X+PkCfzW8qdub699iWNIEk6ffr0F6y1/5Okz0naLmnccSQAQDFWJZ2U9HNjzL/funXrE64DlYFxHcC1hYWFHZL+b0l/4joLAGAgfizpX87Pz59wHcQlrwvAyZMn91QqlR9Za+ddZwEADI4xZiFJkv9++/btL7jO4oq3BeDNN9/cFEXRc5J2uc4CAHDiRJZle7dt23bedRAXAtcBXImi6N+KyR8AfLYjCIL/y3UIV7xcAVhYWLhZ0t9LilxnAQA4FUu6bX5+/k3XQQbNyxUAY8z/KCZ/AIAUGWP+1HUIF7wsANbaL7rOAAAoB1/nBC8LgKSPuQ4AACiN210HcMHXAjDnOgAAoDRudB3ABV8LwJjrAACA0vByTvC1AAAA4DUKAAAAHqIAAADgIQoAAAAeogAAAOAhCgAAAB6iAAAA4CEKAAAAHqIAAADgIQoAAAAeogAAAOAhCgAAAB6iAAAA4CEKAAAAHqIAAADgIQoAAAAeogAAAOAhCgAAAB6iAAAA4CEKAAAAHqIAAADgIQoAAAAeogAAAOAhCgAAAB6iAAAA4CEKAAAAHqIAAADgIQoAAAAeogAAAOAhCgAAAB6iAAAA4CEKAAAAHqIAAADgIQoAAAAeogAAAOAhCgAAAB6iAAAA4CEKAAAAHqIAAADgoYrrAOhdK8506Og5PXfikt5a6qibZK4jAfBMtRLopqma7t4xrQd3b1YjYn9y2BjXAVxYWFiwrjNs1KnFtr5x6JguNGPXUQBAkjQ7HunP/9EubZupu46yYfPz897Nh1S2IdKKMz3M5A+gZC6sxnr4J2+oFbMaOUwoAEPkxy+d1SKTP4ASWmwl+vFLZ13HQA8oAEPkyIlLriMAwDX9+iTfUcOEAjBEzq50XUcAgGviO2q4UACGSIez/QGUWJtzAIYKBQAAAA9RAAAA8BAFAAAAD1EAAADwEAUAAAAPUQAAAPAQBQAAAA9RAAAA8BAFAAAAD1EAAADwEAUAAAAPUQAAAPAQBQAAAA9RAAAA8BAFAAAAD1EAAADwEAUAAAAPUQAAAPAQBQAAAA9RAAAA8BAFAAAAD1EAAADwUMV1AIy+cCZRONdVsClRMJEqaKQyoZUk2dQoa4XKVkJlFytKz1aVLg7BZmmkcCZWOBcrnEkUTCQyjezyuIxsImWrobKlitLzkZIzVdl2+fu2qWWq3NhVeEOsYCpRMJ7KVCTJyqZGthUoW6koXawoPRspXYwk6zp1ccZrFT20d4fuv/1GbZsdlzFGi82OXjx5UY8fOaFXTl8iF0aGcR3AhYWFhaH8yvrK915wHWHdTGQV7WqpenNbZjzt6W+zlVDxibriYw3ZuFybaNDIFO1qKdrelmlk6/9DKyVvVxW/0VByptq/gBtU2dJVdEtLlRu7PX0r2Fag+OTae5W1yl9wrmfX3KT2/Q97NTdZv+r/t9bq3z3xih771Zvkuo7vfGmP6wgbMj8/X64vmwEYgl0tDBNjrKLbWqrd1pKiHibI9wgmUtXuWFXttpY6rzYUv9aQtW4/m6aWqfbxVUU72hs7cGakyk1dVW7qKr0QqfPC+Nres2PhTKzanlWFs/GG/t40MlVvb6p6a1PxiYY6L4/JdoavCIzXKvo///RuzU7UrvkYY4z+5y98TC/9fnFge9xlzYXRMHyfVJRWMJlq7AsXVbtjdcOT/xWiTLVPrKrxhUUFk72tIhQpurmtiS9eVLRzg5P/+4SzscY+v6jaJ1ZkjJvFKGOsap9Y1djnFzc8+V8hkKKdLY1/8cJaSRoy/+wzO687yb7DGKOH9u4YQKI1Zc2F0UABQCGi+Y7GHrioYKr4iTqcSjT2+YuqbO0U/tzXf2GpcfeS6n+0XEyheS8jVW9rqfG5SzK1gp/7w166lqnxuUuq3tYs/CCgiazqe5dV//Tyu+d5DIM/vm3Luh97x7ZNfUxypbLmwmigACC3aHtb9c8s9fUL31SsGvcsKdo+mL1LE1mN3b+oyvb+lo5wNtbY5xZ7O58gB9PINPa5gvb6ryPa1lbj/ksy0XCUgK0zY+t+7Oz4h++RF6WsuTAaKADIpXJTV/W9y4M5ndRI9b3LfV8JMKFV475LfZ8k3xFMpBr7B4sy9f6WAFNdKzXBxGAOp4SzsRqfXZQq5S8B9Shc92OrlcF9bZY1F0YDWww2LJhIVf/00mCvJTFS4+7lnq8s6OX56/csKbxhMJP/O4LxVI17lvp2ToAxa6VmUJP/O8JNiRqD3kYArAsFABtjpManl2Rc7N1VrBqf6c+qQ/X25tqlcA6Es7Gqd6z25bmrdzQHtqLxfpWbuqre3nTy2gCujQKADanuaimYSZy9fjgTq7qz2PMBgqlUtY/1ZwJer+qtLYWzxf67hjOxqre6nYBru1cVTLvbXgB8EAUAPTOhVXW3+z266sdXCj3xsLZn2f0nwki1O1cKfcranlX3S/BGqn+y2HEByMf11x2GULSzLVMd7KVrV2Oqdu3a/AKEc11VNrtZIn+/cDZWZUsxhyEqW7rOlv7fL9wcK5xzc3gFwAdRANCz6OaW6wjvqtxcTAGofrQ8Y5Kk6JZi8hT1PEWp3jJ8NwkCRhUFAD0JppK+3Oxno8KpJPddAk09c3bi37VUbuzmvizwnR/2KZPKTZ2B3/gIwNVRANCTsCTL5O+Vd7m8sqW3H8AZCCNVci6X9/rDPgNhpMqW8m1DgI8oAOhJZcDXx69HsClfpkFf879eectWacfFeQBAKVAA0BMz4BvJrEfem9sE0+Ubk7R2uCXX35d1XJNcDgiUAQUAPQkGdM/6XgRj+TIFjZJOlIwLQB9RANATUynfl3feTKboX/orSN4f0hnVcQEoBgUAPbGmbGeVAQA2ggKAnpikfAXApvky5f37frE5D5WP6rgAFIMCgJ5knfJNKradbzO27fX/5OogMS4A/cQnET3JVss3qeTNlC2Xb0ySlK1U8v19SceV5hwXgGJQANCT7FL5vrzTnJnSxfKNScqfq6zjyi6WMxfgGwoAepKej1xH+IDsQr5M6dlqQUmKlTdXerZ875VU3lyAbygA6ElyPirXyWWJUXouZwFYrMg2y7VcbttBASsAkbJWuT7ithUovUQBAMqgXN8OKL/EKH2rPHvMydvV/IXESvHJWjGBChKfqEt5L5e3UnKyXkieonSLGBeAQlAA0LPusYbrCO8qKkv3jYZUkhvnWWvUPV7MxN091pBKcj8gmxolJdp2AN9RANCz9FykrAQnmKWLUe7l/3fYTqDu8XJMTvHxWmGHJGwrUHyiHONK3qwr4xJAoDT4NGJDOi9OuI6g7u/Gi32+l8edX6NuY6Pu0WLH1XlpTLbreFztQO2Xx5xmAHAlCgA2JDkXKT7l7rh5fKqmpOCzyW1i1HnBbbHp/HZCtlPsx9J2A3VeLLZU9Kr9mwkp5usGKBM+kdiwzm8mZR2cZZ61AnV+M9mX544XaorfcLNkHp+srZ3814/nPlFXfMrNCYHd18eUnC7XSZYAKADIwcZGrcPTg70sMJXaz0zLxv17zfZvJ5QsDHbCSi9W1O5TqXlH59cTA7+PQ/JW1fnqA4CrowAgl3SxovbhqcGcQZ+sFY6033eSs1LrV5NKTg/mcsf0YqTWL2akPv/Qkk2NWk9PK704mBIQL9TUemZqKC77a3XXvwF3k8FdLlLWXBgNFADklpypqvnLmb6eaGa7Rs2np5WcGdA9CDKj1jPT6r7e38MByVtVtZ7q74rGe9nYqPXUtJI+38uh+/qY2s9OSVmJbhp1HW9daq77sRdWu31McqWy5sJooACgEOm5SM2fzii9UPzeeXqhouZPNxV2yd+62bWT8lqHp4u/OiCTOi+Prz33gH9i2V5eSem8PF74PQJsO1h77t+OD8We/zt++fdn1v3Yl05d7GOSK5U1F0YDBQCFyZqhmk9uWjuTvZt/UrPdtbPym09uUubwVr3J6apWDm1S9/VGIec7pOcirT6xSd1XxtxNklbqvjKm1Sc2KSmgWNnUKH6joZVDmwZ26KRIjz17XBdWOh/6OGutHj9yYgCJ1pQ1F0YDBQDFslL39YZWfnyDOr8b39BP0mbLFXV+N67VH9+wdoe+MuxJxoE6v53Q6t/MqvPKWO836rFrRaL51LSafzejbNn9jZSktX/r1t/NqPnU9NrE3eO/tW0F6rwyptW/mVX7heG91G+1k+ivHn1OZ5fb13yMtVb/7olX9MrpS97nwmgYjgN0BVtYWCjDlNKzr3zvBdcRNiScThTOxQpmYwXjqYKxVCZcewtsapQ1Q9mVUOnFSOnZKPfP+w6EkcKZROHmrsJNicxEqqDxzriMbGyUNQNlyxWlZ6tKzkSFX9/fD6aWKdzSVWUuVjCZKBjLZCIrya69V6133qvK5fcqKkdBK8h4raKH9u7Q/bffqG2z4zLGaLHZ0YsnL+rxIyecTbJlzXU13/nSHtcRNmR+ft67+dC7AUsUAADoFwrA8Cj/LgkAACgcBQAAAA9RAAAA8BAFAAAAD1EAAADwEAUAAAAPUQAAAPAQBQAAAA9RAAAA8BAFAAAAD1EAAADwEAUAAAAPUQAAAPAQBQAAAA9RAAAA8BAFAAAAD1EAAADwEAUAAAAPUQAAAPAQBQAAAA9RAAAA8BAFAAAAD1EAhshYNXQdAQCuqRExpQwT3q0hsvOGhusIAHBNuzaPuY6AHlAAhsiDuze7jgAA1/TF3XOuI6AHFIAhcte2Kd27a8Z1DAD4gPt2zehT2yZdx0APKABD5suf3U4JAFAq9+6a0b/47HbXMdAj4zqACwsLC9Z1hryeP7WkQ0fP6fj5lprd1HUcAJ4Zq4baeUNDD+7erLu2TbmOk9v8/Lx386F3A5ZGowDgD/76r/+6p8f/5V/+ZZ+SwCW2A+ThYwHgEAAAAB6iAAAA4CEKAAAAHqIAAADgIQoAAAAeogAAAOAhCgAAAB6iAAAA4CEKAAAAHqIAAADgIQoAAAAeogAAAOAhCgAAAB6iAAAA4CEKAAAAHqIAAADgIQoAAAAeogAAAOAhCgAAAB6iAAAA4CEKAAAAHqIAAADgIQoAAAAeogAAAOAhCgAAAB6iAAAA4CEKAAAAHqIAAADgIeM6gAsLCwvWdYa8nj+1pENHz+n4+Zaa3dR1HACeGauG2nlDQw/u3qy7tk25jpPb/Py8d/OhdwOWhrsAJJnVd586qcPHF11HAQBJ0r27ZvTlz25XJRjeKcXHAsAhgCHz3V8w+QMol8PHFvXdX5x0HQM9ogAMkedPLenwMSZ/AOVz+Niinj+15DoGekABGCKHXj7nOgIAXNOho3xHDRMKwBA5fqHlOgIAXNOxc03XEdADCsAQ4Wx/AGXWijPXEdADCgAAAB6iAAAA4CEKAAAAHqIAAADgIQoAAAAeogAAAOAhCgAAAB6iAAAA4CEKAAAAHqIAAADgIQoAAAAeogAAAOAhCgAAAB6iAAAA4CEKAAAAHqIAAADgIQoAAAAeogAAAOAhCgAAAB6iAAAA4CEKAAAAHqIAAADgoYrrAABQJvfdukUP7d2h27dOKwyMFi429fRrZ/TYs8e12knIhZFBAUB/BVbh5liVG2IF04mC8VSmnslUrCTJJka2HShbDZVdqig5Hyk9F0mZcRz8+kxoFc7FCmffM67a2risjJRIthkqWwnXxnS2qmw5dB37QwVTyR/er4lUZiyVKpKRXXuvOn94r9ILkZJzkZSU+71arygM9Bf/+E498PGtV/z3W7ZM6pYtk/rv9mzTXz36nI6dXSYXRsJofHJ7tLCwYF1n2IivfO8F1xHWLZhKVf1oU9F8V4qy3v44DhQvVNV9raFsuVwdNZzrqrqzrcqNXanS22aULYWK32woPl6XTcvz0TOhVbSzrejmloKptLc/ToySt6vqHmusFbch9q//yR49cMfW6z7m7HJb/+q7Tw10j7usua7lO1/a4zrChszPz5fnQzkg5fp2xdALxlLVPrmiytbuxp8kyhTd3FZ0c1vxQk3dF8eVNd3uPVfmYlU/saJwZuNfsMHU2r9N9WNNdY6OKT7WkFxWUSNFu1qq7W7KVHssae+oWFU+0lHlIx1lixW1fzeu9Gy12JwDcN+tWz50kpWkucm6Htq7Q//+l28MIFV5c2E0cBIgChPtamn8wQv5Jv/3P+d8R+MPXlC0s1XYc/bCRFaNzyypcf9irsn/iuesZqrvWdHY5xcVTPS4x12QYCLV+Ocvqr5nZeOT//ufcybR2P2XVP/0kkw0XItsD929Y92Pvf/2G/uY5EplzYXRQAFAbsZY1e9eUv1TK1I/dtRDqX7Xiup7l2XM4CaWcCZZKzQf6fTp+WONPXBRlZuKK0zrUbmpq7EHLiooqNC8X7Sto/F/dKGwwjQIt980ve7Hbpsd72OSK5U1F0YDBQC5GGNVv3dJ0fb+TJLvFe1oq37v0kBKQGVLV43PLcrUi9k7vhZTsWrce0nR9nZfX+cd0fa2GvdeevckzH4xjUyNzy2qsmWw5WajxmvrPxpaiwZ3OKqsuTAaKADIpbZ3eaB7sJWbuqr90UpfXyPcHK9NkuGAVhuMVN+7XOihk6uJ5juq710e2Km/JlwrN+HmeDAvCKAnFABsWHVXeyB7/u8X7Wj37ZwA08jUuOdSfw5lXPeFpfqnlxRM9WfZPJhIBzr5vyvUWpkad3OuA4BrowBgQ4KxVLU73V13XP/kioKxgicVIzXuWZKpujmBzYRWjU8Xf4jDGLtWavq87H/N14+sGncveXrRMVBeFABsSPXO1cHvJb9XKNXuXC30KaNdLYWb3C5XB1OpoluLXd2IbtvA9f0FC2cTVW9xcyUHgKujAKBnwWSiaH7wS//vV5nvKJgs6NK8ilXtY81Cniuv6u3N3m+edA0msqreVpJxfazpbBUCwAdRANCzasF7qHkUlSXa1ZKp9feM//UykVV1VzFXBUS7WqW5Jt9UM1V3lWfbAXxHAUBvgrU977KI5rtSkH+Ci3aUZ0ySVL25oAIwoMsL1ysqaFwA8qMAoCfh5m5p9iglSVGmyg35jtsH00lhhxKKYsZTBdP5MoUziYLJcp19H0ykCnOOC0AxKADoSZhzsu2HvNeZV7aUb0ySct9EJ5wr57jKmgvwDQUAPSnj3lveM9xdn/l/LcGmnCsAJR1XWXMBvqEAoCeufrzmevJmKtsy+TtGdVympLkA31AA0JOgVqLj/5eZer4JJe/f90vAuAD0EQUAPbElvI477z37B3bP/x6Z9f8OzNX/fkTHBaAYFAAAADxEAUBPTFK+G7rbNF+mvH/fLzbn+ZajOi4AxaAAoCdZu3yTim3n24xtq5wfg6yd78cWSjuuFr9bD5RBOb8hUFrZavm+vLOVfAeV05x/3y92Od+/dWnHtVK+bQjwEQUAPUkvlW9SyZbyTSjZxaigJMVKF/P9W5d1XElJcwG+oQCgJ+n58n15p+fyZUrOlG9MkpScqeb6+/RsOceVlfTfG/ANBQA9Sc9VZeMSnQcQB0pylpLsUkXZcrlWNuxqqCznaku6WFGW8zBC0bKVUOlSuf6tAV9RANCbTEoWaq5TvCteqEpZ/kISnyjPmCSpe7xeyPPEJ4t5nqLEb5YrD+AzCgB61n2t4TrCu4rKEh9ryHbK8XGwsSmuABxrlGbFxnYDdY+VZ9sBfFeObzwMlWy5UopVgGShVtjSvU2Muq+OFfJceXVfHZPiYj6aNi7RuI6OSSW8jwTgKwoANqTz4rjk8pbu6eUMBeq+0VDq+Az1dKmiuOAVlvi1hvPj7umFCnv/QMlQALAhWTNU+8UJZ6/feXFSWbPgE9ys1HpmSrbrZi/VJkbtX03K2mJf31qj9jNTso72vm1s1HpuSirnTxMA3qIAYMPiYw3FJwZ/Uld8oq7usf68rm0Faj8zPfjVDSu1n5tU1qc99WwlVPu5ycFPwolR6/C0bAlvIAX4jgKAXDq/nlDyVr7r1XuRvFVV59f9XXlIzkVrk9ag7qVvpdaRSSWn+3teRXK6pvaRwZUAmxq1npnKfZ8GAP1BAUAu1hq1D08NZCUgPlFX+/BU4UvkV5Ocqar15Ez/76d/eQ85GdDlevHJulqHp/t+Ml7WCtR6cib3zYwGZbWz/l8oaseDWx4qay6MBgoAcrPWqH1kUu3nJ/qzdJ5Knd9Mqn2k+OPj133ZxYpW/3ZW8an+7Jmni5FWntg00BUUaW0VZeWJTUoX+7NnHp+qqfm3s7lvZTxIr56+tO7H/v7Cah+TXKmsuTAaKAAoTHy8odVDs4VeIpgs1LR6aLZvx/w/jI2N2r+aUvOp6cImTNs16vxmUs2fzTg7Nm5XQzV/NqPObyYLO+kxXYzU/LsZtX81VZp7D6zX40dOrPuxT736dh+TXKmsuTAahqeiYyhkzVCtZ6YUTCaq3tpSZb4jE/V20NnGRslCTd3XG307Ka5X6dmqmj+tKtwcq7qrpcqNXanS27iypVDx8Ya6J+rluB7eSt1jdcUnaop2thXd3FIw1eMSTmKUvF1V91hjqI/1P/3aGf30pdN64I6t133c2aV2T5NyXmXNhdFQjm9XjJxsuaL2ryel30yockOscHOsYCpVMJHK1NM/bHmJZNuhspVQ2VKo9Fyk5HxVypzGv6b0XKTWuUiq2LVxzcYKphMF46lMPZMqkrFWNgmUNQPZ1VDphUjJmah0vzfwDpsadV9vqPt6Q8FkqsqWrsLZWGY8VTCWyVQyWWMuv1eBssu/U5BeiNZ+h6EMZaYAD//oRUm65mR7fqWjfd8/0tNx+SKUNReG32h8cnu0sLAwlFckf+V7L7iOAIy8+27doof27tDtW6cVBkYLF5t6+rUzeuzZ404n2bLmer/vfGmP6wgbMj8/7918WM5dEgBw5OnXzujp1864jvEBZc2F4cVJgAAAeIgCAACAhygAAAB4iAIAAICHKAAAAHiIAgAAgIcoAAAAeIgCAACAhygAAAB4iAIAAICHKAAAAHiIAgAAgIcoAAAAeIgCAACAhygAAAB4iAIAAICHKAAAAHiIAgAAgIcoAAAAeIgCAACAhygAAAB4iAIAAICHKABDZKwauo4AANfUiJhShgnv1hDZeUPDdQQAuKZdm8dcR0APKABD5MHdm11HAIBr+uLuOdcR0AMKwBC5a9uU7t014zoGAHzAfbtm9Kltk65joAcUgCHz5c9upwQAKJV7d83oX3x2u+sY6JFxHcCFhYUF6zpDXs+fWtKho+d0/HxLzW7qOg4Az4xVQ+28oaEHd2/WXdumXMfJbX5+3rv50LsBS6NRAAAAxfGxAHAIAAAAD1EAAADwEAUAAAAPUQAAAPAQBQAAAA9RAAAA8BAFAAAAD1EAAADwEAUAAAAPUQAAAPAQBQAAAA9RAAAA8BAFAAAAD1EAAADwEAUAAAAPUQAAAPAQBQAAAA9RAAAA8BAFAAAAD1EAAADwEAUAAAAPUQAAAPAQBQAAAA9RAAAA8BAFAAAAD1EAAADwEAUAAAAPUQAAAPBQxXUAbMzzp5Z06Og5HT/fUrObuo4DwDNj1VA7b2jowd2bdde2KddxsAHGdQAXFhYWrOsMG5VkVt996qQOH190HQUAJEn37prRlz+7XZVgeKeU+fn54Q2/QRwCGDLf/QWTP4ByOXxsUd/9xUnXMdAjCsAQef7Ukg4fY/IHUD6Hjy3q+VNLrmOgBxSAIXLo5XOuIwDANR06ynfUMKEADJHjF1quIwDANR0713QdAT2gAAwRzvYHUGatOHMdAT2gAAAA4CEKAAAAHqIAAADgIQoAAAAeogAAAOAhCgAAAB6iAAAA4CEKAAAAHqIAAADgIQoAAAAeogAAAOAhCgAAAB6iAAAA4CEKAAAAHqIAAADgIQoAAAAeogAAAOAhCgAAAB6iAAAA4CEKAAAAHqIAAADgIQoAAAAeqrgOgNEXziQK57oKNiUKJlIFjVQmtJIkmxplrVDZSqjsYkXJmaqyS0OwWZo/jCucSRRMJDKNTCa0ssZIiWQ7wdq4lipKzkVKz1el1HXw6zP1TJW5rsLNsYKpRMF4KlORJCubGtlWoGylonSxovRsVeliRbKuUxfrvlu36KG9O3T71mmFgdHCxaaefu2MHnv2uFY7CbkwMozrAC4sLCwM5VfWV773gusI61exqu5qKbq5rWCit1kvWwkVv1lX91hDSsq1iZp6puqulio72goaWU9/axOj+GRN8RsNZcvlKjnhXFfVj7ZUubHb07eCbYaKT9bUPdaQbQ/3gmIUBvqLf3ynHvj41qv+/wsrHf3Vo8/p2Nllcl3Hd760x3WEDZmfny/Xl80AeDdgiQLQV0aKdrVU270qU833z2y7Rt1XxtV9o+F8L9NEVtXdq4p2tt9dvdgwK8W/r6vz4rjzSTOYSlXbs6zK5jjX89jUKD5eV+fomBQPZxH41/9kjx644+qT7DvOLrf1r7771ED3uMua61ooAMNjOD+pKKVgLNXYP1xUfc9K7slfkkzVqvbJFY197qKCMXdr59F8R+NfvKDqR1v5J39prSRta2v8wQuqzHfyP98GM1Q/1tTYFy7mnvwlyYRW1Y+2NPHgRUWuxpTDfbdu+dBJVpLmJut6aO+OASRaU9ZcGA0UABQi3Bxr7IFFhZvyTyYfeO7ZRGMPLBYyUfXESLVPrqh+z5JMrbfl/nU9fWTVuGdJ1Y81C3/u66pYNe67pNrHV2VMsUsrpp6pfs+S6ntWhmp98aG71z953n/7jX1McqWy5sJooAAgt8qWrsb+eFGmWvwk+Q5TzdT440VVtnT79hpXvF5o1bjnkqofbfXPFaHtAAAPuElEQVT9tWofX1Vt92rfX0daKx1j9y+uHevvo+iWlhr3XCpmxWQAbr9pet2P3TY73sckVyprLowGCgByCWcS1e9dksJBvJjUuPeSwk19Ps5ppPqnl1XZOpiyIUnV3U1FO9r9fZFQatw3gH+/yypbu6p/ZmkoVgLGa+s/KbMWDWJjX1PWXBgNFABsmImsGvcOeC8vlOr3XJKJ+veatTtXVNk6+OPY9T0rCib7d65D464lhTcM9jBK5aauaneuDPQ1AawPBQAbVr9rWabHS+GKEDQy1T7Vn0ueovnOQJb9r6piVf+j5b7sMUc3t1XZ7ubkvOpHWwNdTQGwPhQAbEi4OVblI+7O9o62dVSZK3ZSMZFV7VNu91bD2bjwKwNMLVP9zsGcY3At9U8t93XVBkDvKADYkDIs61Y/UezZ89WPr/blbP9e1XYXO67ax5tS5HZcpp6pOqATHQGsDwUAPavMxQpn3N9wJJyJC7s00NQyVW92tPT/PsFkorCocTUyRTvKMa5oZ1tB3X3BArCGAoCeRTvLMaFIa3cdLEL1ltZgrmRYp2h7MVcEVG9pleZTbkJb2PsFIL+SfDVgaFSswpvKc0JX5cZu/qsQjBQ5OkHuWio39XZP/qsyUmVbny8t7FG0oz0UlwUCPqAAoCeVzXG5bu5SsbmXy8OZRMbhrYavxtQyBRP5DrOEM3HPP1jUb6aRKZwe8B0dAVwVBQA9CWfL9+Wd99r2sOCrCYoSzuYsAHPle6+k8uYCfEMBQE+Cafcn/71fMJV3T7l8Y5KU+weQSjuuAd2JEMD1UQDQk2C8XEvlUv5M/bz7Xh55f1GxrOMKcx7aAFAMCgB6EtRKdPz/MpPz0jJTL+dEmfeeBKUdF5cCAqVAAUBPbKWEBSDnSYmlOqnxPUzOf+vyjst1AgASBQA9Mrack8ooyhKulwPQPxQA9MQm5dtkbM6J0sblG5MkqZMvV1nHZWOKDVAG5fyGQGllrfJtMlkz3y38smb5xiRJWc4CUNpxlTQX4Bs+ieiJXSnR/XIvy3JmypbKeVDa5ixbZR1XtlzOXIBvKADoSXI+ch3hA7IL+TKl58o3JklKL+SbKNMSvleSlJ6tuo4AQBQA9KiMk2WSc0JJzlalkp3baNuBspV8BSB5u3zjkpWSM+XbhgAfUQDQk2ypomypPIcB0qWKsuV8eWw7WJssS6SIydt2Sjiut2qyOc9tAFAMPonoWfxmw3WEdyXH64U8T/f18oxJkuKTxYwrfqNc4+q+Ucy4AORHAUDP4uN12a77S7lsJ1D3RDETSnq2qqQkhzey5Uphh1qSM1WlOc+RKEp6LuL4P1AiFAD0zKZG3aPjrmOoc3RMKvBmOZ0XJmWt+2LTOTpW7PO9MO7+XAArtX874TgEgPeiAGBDuscaShfd7Vmmi5Hi48Uub2dLoboFT769Ss9HSn5fK/Y5FyN1X3N7KKBzdFzZJS7/A8qEAoCNsVL7V5O578K3IYlR69nJvuzVdl8dc3fiXGLUfr4/e8ndl8adHQpI3qqq+6rbYgXggygA2LBsJVT72anBLi9bqfXcpOxqn65EsFLr2SmlFwc/WbZfmOjbTXKsNWo9PZ37iolepRcrav1qwNsIgHWhACCX5O2q2kf6szf+AVZqHZlUcrrYJfIPSIxav5ge6B5z5+VxxQWd0HgttmvU/MVM7jsnrld6IVLrFzOFnqcBoDgUAOQWn6yr9cx0Xw8H2MSo9cyUkoIuj/vQ14uNWk9NKz7V/9frvDSu7iuDWSK3rUDNJ2f6Xm7ikzW1npoemh/+We0k635sO077mORKZc2F0UABQCGS01U1f7apLzcJSpcqav5spv97/u9jU6P2rybXVjj68Mt6thuo9czUwI+P206g1pPT6v59o/CVGxsbtY9Mqv3clGw6HJO/JL16+tK6H/v7C6t9THKlsubCaKAAoDDZcqjmE5vU+d14IROmjY06vxtX64kZpz8gE5+oa+Unm9auOsgKeEK7toe8emiTkoXBlpp3I1ijzu8m1PxZQasBmdQ9VtfqT2b7fiijHx4/cmLdj33q1bf7mORKZc2F0cB1OSiUtUbdvx9TfLyhaFdL0Y62goneliazlVDxibriY43SLCHbTqD28xPqvjK2Nq7tbZlGb23AxkbxqZriNxql+UW8dDFS8+czqmzpKrqlpcqNXamHf/KsFSg5WVf3WCP3rxe69PRrZ/TTl07rgTu2XvdxZ5faPU3KeZU1F0ZDOb6FMHJsbNR9dUzdV8cUziQK57oKNiUKJlIFjVQmXFt7tqlR1gqVrYTKLlaUnKmW+nrxrBWo89K4Oi+PvzuucCZRMJHINLIrxmXbobLVQNlSRenZqtILldIuiydnqkrOVGXqmSpzXYWbYwVTiYKxTCaykuy775VdCZUuXh7TYmVkzvB/+EcvStI1J9vzKx3t+/6Rno7LF6GsuTD8yvlt1GcLCwtD+ZX1le+94DoCMPLuu3WLHtq7Q7dvnVYYGC1cbOrp187osWePO51ky5rr/b7zpT2uI2zI/Py8d/NheXe1AMCBp187o6dfO+M6xgeUNReG1/AetAMAABtGAQAAwEMUAAAAPEQBAADAQxQAAAA8RAEAAMBDFAAAADxEAQAAwEMUAAAAPEQBAADAQxQAAAA8RAEAAMBDFAAAADxEAQAAwEMUAAAAPEQBAADAQxQAAAA8RAEAAMBDFAAAADxEAQAAwEMUAAAAPEQBGCL1iLcLQHnVo9B1BPSAGWWIbB6vuo4AANc0NxG5joAeUACGyN4d064jAMA1/dF2vqOGCQVgiPzJHXOaGaNhAyifmUZFf3LHnOsY6AEFYIg0okB/8eAuzVICAJTI7Hikv/jiLWpwntJQMa4DuLCwsGBdZ8ijFWc6dPScnjtxSW8tddRNMteRAHimWgl001RNd++Y1oO7Nw/95D8/P+/dfOjdgKXhLwAAgGL5WACGu7IBAIANoQAAAOAhCgAAAB6iAAAA4CEKAAAAHqIAAADgIQoAAAAeogAAAOAhCgAAAB6iAAAA4CEKAAAAHqIAAADgIQoAAAAeogAAAOAhCgAAAB6iAAAA4CEKAAAAHqIAAADgIQoAAAAeogAAAOAhCgAAAB6iAAAA4CEKAAAAHqIAAADgIQoAAAAeogAAAOAhCgAAAB6iAAAA4CEKAAAAHqIAAADgIQoAAAAeogAAAOAhCgAAAB6iAAAA4CEKAAAAHqIAAADgIQoAAAAeogAAAOAhCgAAAB6iAAAA4CFfC8CK6wAAgNJYch3ABV8LwO9dBwAAlMZp1wFc8LUA/J3rAACA0vi56wAu+FoA/j/XAQAApfEfXAdwwbgO4MrCwsITkh5wnQMA4NST8/Pz/9B1CBd8XQGQpP9F0qLrEAAAZxattf/SdQhXvC0A8/PzR40x/1zSJddZAAADt2iM+ecf+chHXnEdxBVvC4Akbd269QlJ94mTAgHAJ09aa++7PAd4y9tzAN5vYWHhTyT9qaR/IGm7pHG3iQAABVmVdFJrO3uPzs/P/9hxnlKgAJTAV7/6Ves6gy+stV8/cODA/+Y6B8rnq1/96tcl/a+uc/hi//79zD+OeX0IAP6x1v5H1xlQTsYYtg14hQIAb1hrfz83N3fYdQ6U0ze/+c1fSjrlOgcwKBQAeMMY89i+ffsy1zlQWlbSf3IdAhgUCgC8wRIvPgyHiOATCgB8cW52dvZJ1yFQbm+//fbPJJ11nQMYBAoAfPGDffv2Ja5DoNweffTR1BjzQ9c5gEGgAMALLO2iB2wr8AIFAD64tHnz5kOuQ2A4tNvtv5F00XUOoN8oABh5xpjH9+3b13WdA8Ph4MGDsaT/4joH0G8UAPiAJV30im0GI48CgFHXrFar3PcbPel0Ov9Va/ePB0YWBQAjzRjzo69//et8kaMnBw8ebEr6b65zAP1EAcBIy7KMpVxsFNsORhoFAKOs0+12/7PrEBhOjUbjh5LarnMA/UIBwCj7ycGDBy+5DoHh9LWvfW3ZWvu3rnMA/UIBwChjCRd5sQ1hZFEAMKpSSY+7DoHhZq39gSRuIY2RRAHAqPrp/v37+VEX5PKtb33rvKSfu84B9AMFACOJe/+jKPyMNEYVBQCjKJP0A9chMBqSJPm+1rYpYKRQADCKfnngwIEF1yEwGr797W+/Jelp1zmAolEAMHJYskUfsE1h5FAAMHLCMGT5H4UKw/D7kqzrHECRKAAYNUcefvjhN1yHwGh55JFHjkt63nUOoEgUAIwUlv/RR2xbGCkUAIyUIAj4kkZfBEHwqOsMQJEoABglLz3yyCMvuw6B0fSNb3zjFWst2xdGBgUAI8MY833XGTDa2MYwSigAGBks/2MA2MYwMigAGBXHH3nkEc7SRl/t37//19ZarjLBSKAAYCRYa/+D6wzwgzHmMdcZgCJQADAS+PEfDAqXmmJUUAAw9Ky1v5+bmzvsOgf88M1vfvOXkk65zgHkRQHA0DPGPLZv3z5+rQ2DYiX9J9chgLwoABh6LMli0DjkhFFAAcCwOzc7O/uk6xDwy9tvv/0zSWdd5wDyoABg2P1g3759iesQ8Mujjz6aGmN+6DoHkAcFAEONpVg4xLaHoUYBwDC7tHnz5kOuQ8BP7Xb7byRddJ0D2CgKAIaWMebxffv2dV3ngJ8OHjwYS/ovrnMAG0UBwDBjCRausQ1iaFEAMKya1Wr1x65DwG+dTue/Slp1nQPYCAoAhpIx5kdf//rX+eKFUwcPHmxK+m+ucwAbQQHAUMqyjKVXlAXbIoYSBQDDqNPtdv+z6xCAJDUajR9KarvOAfSKAoBh9JODBw9ech0CkKSvfe1ry9bav3WdA+gVBQDDiCVXlA3bJIYOBQDDJpX0uOsQwHtZa38giVtSY6hQADBsfrp//35+hAWl8q1vfeu8pJ+7zgH0ggKAocK9/1FW/Cw1hg0FAMMkk/QD1yGAq0mS5Pta20aBoUABwDD55YEDBxZchwCu5tvf/vZbkp52nQNYLwoAhgZLrBgCbKMYGhQADI0wDFn+R6mFYfh9SdZ1DmA9KAAYFkcefvjhN1yHAK7nkUceOS7pedc5gPWgAJQDd7X7ECz/Y4iwrX64RdcBQAEoBWPMM64zlF0QBHypYihcPgyA6zDGPOs6AygApZBl2QHXGUpu4ZFHHnnZdQhgPS5vq1ytch3W2v2uM4ACUAoHDhz4oTHm/3Wdo8T+resAQI/YZq/t/9m/fz+38y4BCkBJWGu/TAn4gFTSv9m/f/83XAcBenF5m/03WtuGcdnl77ivuM6BNcZ1AFzpz/7sz/5pEAR/Zq29R9K06zyOXDLG/MQY83984xvfeMF1GGCj/vzP/3yPtfZ/t9Z+UX5/np/JsuzAgQMHfug6DP7g/wcWgoHsoP28wgAAAABJRU5ErkJggg==;" vertex="1" parent="1">
          <mxGeometry x="435" y="206" width="20" height="20" as="geometry" />
        </mxCell>
        <mxCell id="lmG2QonkjUvl6BErKhpc-13" value="&lt;font color=&quot;#ffffff&quot;&gt;DomÃ­nio&lt;/font&gt;" style="text;html=1;align=center;verticalAlign=middle;resizable=0;points=[];autosize=1;strokeColor=none;fillColor=none;" vertex="1" parent="1">
          <mxGeometry x="410" y="219" width="70" height="30" as="geometry" />
        </mxCell>
        <mxCell id="lmG2QonkjUvl6BErKhpc-24" value="" style="triangle;whiteSpace=wrap;html=1;rotation=-90;rounded=1;fillColor=#0050ef;fontColor=#ffffff;strokeColor=#001DBC;" vertex="1" parent="1">
          <mxGeometry x="290" y="260" width="60" height="80" as="geometry" />
        </mxCell>
        <mxCell id="lmG2QonkjUvl6BErKhpc-25" value="" style="shape=image;verticalLabelPosition=bottom;labelBackgroundColor=default;verticalAlign=top;aspect=fixed;imageAspect=0;image=data:image/png,iVBORw0KGgoAAAANSUhEUgAAAgAAAAIACAYAAAD0eNT6AAAAAXNSR0IArs4c6QAAIABJREFUeJzt3VuwXNWB5vlv7Z07L+eug45Ax5KQMGAZY5kSNlCm3caNo2Kmo+mI7piaiHnwQ9vTD9NRjoqKiemIeqgJxUxE14TbEWBL9oOm7RfHTHQM7cZtotvdLquwTWEjMDLGGAQFSEjyEeh6dC5525c1D0dgBJI4efbOXDtz/X+PkCfzW8qdub699iWNIEk6ffr0F6y1/5Okz0naLmnccSQAQDFWJZ2U9HNjzL/funXrE64DlYFxHcC1hYWFHZL+b0l/4joLAGAgfizpX87Pz59wHcQlrwvAyZMn91QqlR9Za+ddZwEADI4xZiFJkv9++/btL7jO4oq3BeDNN9/cFEXRc5J2uc4CAHDiRJZle7dt23bedRAXAtcBXImi6N+KyR8AfLYjCIL/y3UIV7xcAVhYWLhZ0t9LilxnAQA4FUu6bX5+/k3XQQbNyxUAY8z/KCZ/AIAUGWP+1HUIF7wsANbaL7rOAAAoB1/nBC8LgKSPuQ4AACiN210HcMHXAjDnOgAAoDRudB3ABV8LwJjrAACA0vByTvC1AAAA4DUKAAAAHqIAAADgIQoAAAAeogAAAOAhCgAAAB6iAAAA4CEKAAAAHqIAAADgIQoAAAAeogAAAOAhCgAAAB6iAAAA4CEKAAAAHqIAAADgIQoAAAAeogAAAOAhCgAAAB6iAAAA4CEKAAAAHqIAAADgIQoAAAAeogAAAOAhCgAAAB6iAAAA4CEKAAAAHqIAAADgIQoAAAAeogAAAOAhCgAAAB6iAAAA4CEKAAAAHqIAAADgIQoAAAAeogAAAOAhCgAAAB6iAAAA4CEKAAAAHqIAAADgoYrrAOhdK8506Og5PXfikt5a6qibZK4jAfBMtRLopqma7t4xrQd3b1YjYn9y2BjXAVxYWFiwrjNs1KnFtr5x6JguNGPXUQBAkjQ7HunP/9EubZupu46yYfPz897Nh1S2IdKKMz3M5A+gZC6sxnr4J2+oFbMaOUwoAEPkxy+d1SKTP4ASWmwl+vFLZ13HQA8oAEPkyIlLriMAwDX9+iTfUcOEAjBEzq50XUcAgGviO2q4UACGSIez/QGUWJtzAIYKBQAAAA9RAAAA8BAFAAAAD1EAAADwEAUAAAAPUQAAAPAQBQAAAA9RAAAA8BAFAAAAD1EAAADwEAUAAAAPUQAAAPAQBQAAAA9RAAAA8BAFAAAAD1EAAADwEAUAAAAPUQAAAPAQBQAAAA9RAAAA8BAFAAAAD1EAAADwUMV1AIy+cCZRONdVsClRMJEqaKQyoZUk2dQoa4XKVkJlFytKz1aVLg7BZmmkcCZWOBcrnEkUTCQyjezyuIxsImWrobKlitLzkZIzVdl2+fu2qWWq3NhVeEOsYCpRMJ7KVCTJyqZGthUoW6koXawoPRspXYwk6zp1ccZrFT20d4fuv/1GbZsdlzFGi82OXjx5UY8fOaFXTl8iF0aGcR3AhYWFhaH8yvrK915wHWHdTGQV7WqpenNbZjzt6W+zlVDxibriYw3ZuFybaNDIFO1qKdrelmlk6/9DKyVvVxW/0VByptq/gBtU2dJVdEtLlRu7PX0r2Fag+OTae5W1yl9wrmfX3KT2/Q97NTdZv+r/t9bq3z3xih771Zvkuo7vfGmP6wgbMj8/X64vmwEYgl0tDBNjrKLbWqrd1pKiHibI9wgmUtXuWFXttpY6rzYUv9aQtW4/m6aWqfbxVUU72hs7cGakyk1dVW7qKr0QqfPC+Nres2PhTKzanlWFs/GG/t40MlVvb6p6a1PxiYY6L4/JdoavCIzXKvo///RuzU7UrvkYY4z+5y98TC/9fnFge9xlzYXRMHyfVJRWMJlq7AsXVbtjdcOT/xWiTLVPrKrxhUUFk72tIhQpurmtiS9eVLRzg5P/+4SzscY+v6jaJ1ZkjJvFKGOsap9Y1djnFzc8+V8hkKKdLY1/8cJaSRoy/+wzO687yb7DGKOH9u4YQKI1Zc2F0UABQCGi+Y7GHrioYKr4iTqcSjT2+YuqbO0U/tzXf2GpcfeS6n+0XEyheS8jVW9rqfG5SzK1gp/7w166lqnxuUuq3tYs/CCgiazqe5dV//Tyu+d5DIM/vm3Luh97x7ZNfUxypbLmwmigACC3aHtb9c8s9fUL31SsGvcsKdo+mL1LE1mN3b+oyvb+lo5wNtbY5xZ7O58gB9PINPa5gvb6ryPa1lbj/ksy0XCUgK0zY+t+7Oz4h++RF6WsuTAaKADIpXJTV/W9y4M5ndRI9b3LfV8JMKFV475LfZ8k3xFMpBr7B4sy9f6WAFNdKzXBxGAOp4SzsRqfXZQq5S8B9Shc92OrlcF9bZY1F0YDWww2LJhIVf/00mCvJTFS4+7lnq8s6OX56/csKbxhMJP/O4LxVI17lvp2ToAxa6VmUJP/O8JNiRqD3kYArAsFABtjpManl2Rc7N1VrBqf6c+qQ/X25tqlcA6Es7Gqd6z25bmrdzQHtqLxfpWbuqre3nTy2gCujQKADanuaimYSZy9fjgTq7qz2PMBgqlUtY/1ZwJer+qtLYWzxf67hjOxqre6nYBru1cVTLvbXgB8EAUAPTOhVXW3+z266sdXCj3xsLZn2f0nwki1O1cKfcranlX3S/BGqn+y2HEByMf11x2GULSzLVMd7KVrV2Oqdu3a/AKEc11VNrtZIn+/cDZWZUsxhyEqW7rOlv7fL9wcK5xzc3gFwAdRANCz6OaW6wjvqtxcTAGofrQ8Y5Kk6JZi8hT1PEWp3jJ8NwkCRhUFAD0JppK+3Oxno8KpJPddAk09c3bi37VUbuzmvizwnR/2KZPKTZ2B3/gIwNVRANCTsCTL5O+Vd7m8sqW3H8AZCCNVci6X9/rDPgNhpMqW8m1DgI8oAOhJZcDXx69HsClfpkFf879eectWacfFeQBAKVAA0BMz4BvJrEfem9sE0+Ubk7R2uCXX35d1XJNcDgiUAQUAPQkGdM/6XgRj+TIFjZJOlIwLQB9RANATUynfl3feTKboX/orSN4f0hnVcQEoBgUAPbGmbGeVAQA2ggKAnpikfAXApvky5f37frE5D5WP6rgAFIMCgJ5knfJNKradbzO27fX/5OogMS4A/cQnET3JVss3qeTNlC2Xb0ySlK1U8v19SceV5hwXgGJQANCT7FL5vrzTnJnSxfKNScqfq6zjyi6WMxfgGwoAepKej1xH+IDsQr5M6dlqQUmKlTdXerZ875VU3lyAbygA6ElyPirXyWWJUXouZwFYrMg2y7VcbttBASsAkbJWuT7ithUovUQBAMqgXN8OKL/EKH2rPHvMydvV/IXESvHJWjGBChKfqEt5L5e3UnKyXkieonSLGBeAQlAA0LPusYbrCO8qKkv3jYZUkhvnWWvUPV7MxN091pBKcj8gmxolJdp2AN9RANCz9FykrAQnmKWLUe7l/3fYTqDu8XJMTvHxWmGHJGwrUHyiHONK3qwr4xJAoDT4NGJDOi9OuI6g7u/Gi32+l8edX6NuY6Pu0WLH1XlpTLbreFztQO2Xx5xmAHAlCgA2JDkXKT7l7rh5fKqmpOCzyW1i1HnBbbHp/HZCtlPsx9J2A3VeLLZU9Kr9mwkp5usGKBM+kdiwzm8mZR2cZZ61AnV+M9mX544XaorfcLNkHp+srZ3814/nPlFXfMrNCYHd18eUnC7XSZYAKADIwcZGrcPTg70sMJXaz0zLxv17zfZvJ5QsDHbCSi9W1O5TqXlH59cTA7+PQ/JW1fnqA4CrowAgl3SxovbhqcGcQZ+sFY6033eSs1LrV5NKTg/mcsf0YqTWL2akPv/Qkk2NWk9PK704mBIQL9TUemZqKC77a3XXvwF3k8FdLlLWXBgNFADklpypqvnLmb6eaGa7Rs2np5WcGdA9CDKj1jPT6r7e38MByVtVtZ7q74rGe9nYqPXUtJI+38uh+/qY2s9OSVmJbhp1HW9daq77sRdWu31McqWy5sJooACgEOm5SM2fzii9UPzeeXqhouZPNxV2yd+62bWT8lqHp4u/OiCTOi+Prz33gH9i2V5eSem8PF74PQJsO1h77t+OD8We/zt++fdn1v3Yl05d7GOSK5U1F0YDBQCFyZqhmk9uWjuTvZt/UrPdtbPym09uUubwVr3J6apWDm1S9/VGIec7pOcirT6xSd1XxtxNklbqvjKm1Sc2KSmgWNnUKH6joZVDmwZ26KRIjz17XBdWOh/6OGutHj9yYgCJ1pQ1F0YDBQDFslL39YZWfnyDOr8b39BP0mbLFXV+N67VH9+wdoe+MuxJxoE6v53Q6t/MqvPKWO836rFrRaL51LSafzejbNn9jZSktX/r1t/NqPnU9NrE3eO/tW0F6rwyptW/mVX7heG91G+1k+ivHn1OZ5fb13yMtVb/7olX9MrpS97nwmgYjgN0BVtYWCjDlNKzr3zvBdcRNiScThTOxQpmYwXjqYKxVCZcewtsapQ1Q9mVUOnFSOnZKPfP+w6EkcKZROHmrsJNicxEqqDxzriMbGyUNQNlyxWlZ6tKzkSFX9/fD6aWKdzSVWUuVjCZKBjLZCIrya69V6133qvK5fcqKkdBK8h4raKH9u7Q/bffqG2z4zLGaLHZ0YsnL+rxIyecTbJlzXU13/nSHtcRNmR+ft67+dC7AUsUAADoFwrA8Cj/LgkAACgcBQAAAA9RAAAA8BAFAAAAD1EAAADwEAUAAAAPUQAAAPAQBQAAAA9RAAAA8BAFAAAAD1EAAADwEAUAAAAPUQAAAPAQBQAAAA9RAAAA8BAFAAAAD1EAAADwEAUAAAAPUQAAAPAQBQAAAA9RAAAA8BAFAAAAD1EAhshYNXQdAQCuqRExpQwT3q0hsvOGhusIAHBNuzaPuY6AHlAAhsiDuze7jgAA1/TF3XOuI6AHFIAhcte2Kd27a8Z1DAD4gPt2zehT2yZdx0APKABD5suf3U4JAFAq9+6a0b/47HbXMdAj4zqACwsLC9Z1hryeP7WkQ0fP6fj5lprd1HUcAJ4Zq4baeUNDD+7erLu2TbmOk9v8/Lx386F3A5ZGowDgD/76r/+6p8f/5V/+ZZ+SwCW2A+ThYwHgEAAAAB6iAAAA4CEKAAAAHqIAAADgIQoAAAAeogAAAOAhCgAAAB6iAAAA4CEKAAAAHqIAAADgIQoAAAAeogAAAOAhCgAAAB6iAAAA4CEKAAAAHqIAAADgIQoAAAAeogAAAOAhCgAAAB6iAAAA4CEKAAAAHqIAAADgIQoAAAAeogAAAOAhCgAAAB6iAAAA4CEKAAAAHqIAAADgIeM6gAsLCwvWdYa8nj+1pENHz+n4+Zaa3dR1HACeGauG2nlDQw/u3qy7tk25jpPb/Py8d/OhdwOWhrsAJJnVd586qcPHF11HAQBJ0r27ZvTlz25XJRjeKcXHAsAhgCHz3V8w+QMol8PHFvXdX5x0HQM9ogAMkedPLenwMSZ/AOVz+Niinj+15DoGekABGCKHXj7nOgIAXNOho3xHDRMKwBA5fqHlOgIAXNOxc03XEdADCsAQ4Wx/AGXWijPXEdADCgAAAB6iAAAA4CEKAAAAHqIAAADgIQoAAAAeogAAAOAhCgAAAB6iAAAA4CEKAAAAHqIAAADgIQoAAAAeogAAAOAhCgAAAB6iAAAA4CEKAAAAHqIAAADgIQoAAAAeogAAAOAhCgAAAB6iAAAA4CEKAAAAHqIAAADgoYrrAABQJvfdukUP7d2h27dOKwyMFi429fRrZ/TYs8e12knIhZFBAUB/BVbh5liVG2IF04mC8VSmnslUrCTJJka2HShbDZVdqig5Hyk9F0mZcRz8+kxoFc7FCmffM67a2risjJRIthkqWwnXxnS2qmw5dB37QwVTyR/er4lUZiyVKpKRXXuvOn94r9ILkZJzkZSU+71arygM9Bf/+E498PGtV/z3W7ZM6pYtk/rv9mzTXz36nI6dXSYXRsJofHJ7tLCwYF1n2IivfO8F1xHWLZhKVf1oU9F8V4qy3v44DhQvVNV9raFsuVwdNZzrqrqzrcqNXanS22aULYWK32woPl6XTcvz0TOhVbSzrejmloKptLc/ToySt6vqHmusFbch9q//yR49cMfW6z7m7HJb/+q7Tw10j7usua7lO1/a4zrChszPz5fnQzkg5fp2xdALxlLVPrmiytbuxp8kyhTd3FZ0c1vxQk3dF8eVNd3uPVfmYlU/saJwZuNfsMHU2r9N9WNNdY6OKT7WkFxWUSNFu1qq7W7KVHssae+oWFU+0lHlIx1lixW1fzeu9Gy12JwDcN+tWz50kpWkucm6Htq7Q//+l28MIFV5c2E0cBIgChPtamn8wQv5Jv/3P+d8R+MPXlC0s1XYc/bCRFaNzyypcf9irsn/iuesZqrvWdHY5xcVTPS4x12QYCLV+Ocvqr5nZeOT//ufcybR2P2XVP/0kkw0XItsD929Y92Pvf/2G/uY5EplzYXRQAFAbsZY1e9eUv1TK1I/dtRDqX7Xiup7l2XM4CaWcCZZKzQf6fTp+WONPXBRlZuKK0zrUbmpq7EHLiooqNC8X7Sto/F/dKGwwjQIt980ve7Hbpsd72OSK5U1F0YDBQC5GGNVv3dJ0fb+TJLvFe1oq37v0kBKQGVLV43PLcrUi9k7vhZTsWrce0nR9nZfX+cd0fa2GvdeevckzH4xjUyNzy2qsmWw5WajxmvrPxpaiwZ3OKqsuTAaKADIpbZ3eaB7sJWbuqr90UpfXyPcHK9NkuGAVhuMVN+7XOihk6uJ5juq710e2Km/JlwrN+HmeDAvCKAnFABsWHVXeyB7/u8X7Wj37ZwA08jUuOdSfw5lXPeFpfqnlxRM9WfZPJhIBzr5vyvUWpkad3OuA4BrowBgQ4KxVLU73V13XP/kioKxgicVIzXuWZKpujmBzYRWjU8Xf4jDGLtWavq87H/N14+sGncveXrRMVBeFABsSPXO1cHvJb9XKNXuXC30KaNdLYWb3C5XB1OpoluLXd2IbtvA9f0FC2cTVW9xcyUHgKujAKBnwWSiaH7wS//vV5nvKJgs6NK8ilXtY81Cniuv6u3N3m+edA0msqreVpJxfazpbBUCwAdRANCzasF7qHkUlSXa1ZKp9feM//UykVV1VzFXBUS7WqW5Jt9UM1V3lWfbAXxHAUBvgrU977KI5rtSkH+Ci3aUZ0ySVL25oAIwoMsL1ysqaFwA8qMAoCfh5m5p9iglSVGmyg35jtsH00lhhxKKYsZTBdP5MoUziYLJcp19H0ykCnOOC0AxKADoSZhzsu2HvNeZV7aUb0ySct9EJ5wr57jKmgvwDQUAPSnj3lveM9xdn/l/LcGmnCsAJR1XWXMBvqEAoCeufrzmevJmKtsy+TtGdVympLkA31AA0JOgVqLj/5eZer4JJe/f90vAuAD0EQUAPbElvI477z37B3bP/x6Z9f8OzNX/fkTHBaAYFAAAADxEAUBPTFK+G7rbNF+mvH/fLzbn+ZajOi4AxaAAoCdZu3yTim3n24xtq5wfg6yd78cWSjuuFr9bD5RBOb8hUFrZavm+vLOVfAeV05x/3y92Od+/dWnHtVK+bQjwEQUAPUkvlW9SyZbyTSjZxaigJMVKF/P9W5d1XElJcwG+oQCgJ+n58n15p+fyZUrOlG9MkpScqeb6+/RsOceVlfTfG/ANBQA9Sc9VZeMSnQcQB0pylpLsUkXZcrlWNuxqqCznaku6WFGW8zBC0bKVUOlSuf6tAV9RANCbTEoWaq5TvCteqEpZ/kISnyjPmCSpe7xeyPPEJ4t5nqLEb5YrD+AzCgB61n2t4TrCu4rKEh9ryHbK8XGwsSmuABxrlGbFxnYDdY+VZ9sBfFeObzwMlWy5UopVgGShVtjSvU2Muq+OFfJceXVfHZPiYj6aNi7RuI6OSSW8jwTgKwoANqTz4rjk8pbu6eUMBeq+0VDq+Az1dKmiuOAVlvi1hvPj7umFCnv/QMlQALAhWTNU+8UJZ6/feXFSWbPgE9ys1HpmSrbrZi/VJkbtX03K2mJf31qj9jNTso72vm1s1HpuSirnTxMA3qIAYMPiYw3FJwZ/Uld8oq7usf68rm0Faj8zPfjVDSu1n5tU1qc99WwlVPu5ycFPwolR6/C0bAlvIAX4jgKAXDq/nlDyVr7r1XuRvFVV59f9XXlIzkVrk9ag7qVvpdaRSSWn+3teRXK6pvaRwZUAmxq1npnKfZ8GAP1BAUAu1hq1D08NZCUgPlFX+/BU4UvkV5Ocqar15Ez/76d/eQ85GdDlevHJulqHp/t+Ml7WCtR6cib3zYwGZbWz/l8oaseDWx4qay6MBgoAcrPWqH1kUu3nJ/qzdJ5Knd9Mqn2k+OPj133ZxYpW/3ZW8an+7Jmni5FWntg00BUUaW0VZeWJTUoX+7NnHp+qqfm3s7lvZTxIr56+tO7H/v7Cah+TXKmsuTAaKAAoTHy8odVDs4VeIpgs1LR6aLZvx/w/jI2N2r+aUvOp6cImTNs16vxmUs2fzTg7Nm5XQzV/NqPObyYLO+kxXYzU/LsZtX81VZp7D6zX40dOrPuxT736dh+TXKmsuTAahqeiYyhkzVCtZ6YUTCaq3tpSZb4jE/V20NnGRslCTd3XG307Ka5X6dmqmj+tKtwcq7qrpcqNXanS27iypVDx8Ya6J+rluB7eSt1jdcUnaop2thXd3FIw1eMSTmKUvF1V91hjqI/1P/3aGf30pdN64I6t133c2aV2T5NyXmXNhdFQjm9XjJxsuaL2ryel30yockOscHOsYCpVMJHK1NM/bHmJZNuhspVQ2VKo9Fyk5HxVypzGv6b0XKTWuUiq2LVxzcYKphMF46lMPZMqkrFWNgmUNQPZ1VDphUjJmah0vzfwDpsadV9vqPt6Q8FkqsqWrsLZWGY8VTCWyVQyWWMuv1eBssu/U5BeiNZ+h6EMZaYAD//oRUm65mR7fqWjfd8/0tNx+SKUNReG32h8cnu0sLAwlFckf+V7L7iOAIy8+27doof27tDtW6cVBkYLF5t6+rUzeuzZ404n2bLmer/vfGmP6wgbMj8/7918WM5dEgBw5OnXzujp1864jvEBZc2F4cVJgAAAeIgCAACAhygAAAB4iAIAAICHKAAAAHiIAgAAgIcoAAAAeIgCAACAhygAAAB4iAIAAICHKAAAAHiIAgAAgIcoAAAAeIgCAACAhygAAAB4iAIAAICHKAAAAHiIAgAAgIcoAAAAeIgCAACAhygAAAB4iAIAAICHKABDZKwauo4AANfUiJhShgnv1hDZeUPDdQQAuKZdm8dcR0APKABD5MHdm11HAIBr+uLuOdcR0AMKwBC5a9uU7t014zoGAHzAfbtm9Kltk65joAcUgCHz5c9upwQAKJV7d83oX3x2u+sY6JFxHcCFhYUF6zpDXs+fWtKho+d0/HxLzW7qOg4Az4xVQ+28oaEHd2/WXdumXMfJbX5+3rv50LsBS6NRAAAAxfGxAHAIAAAAD1EAAADwEAUAAAAPUQAAAPAQBQAAAA9RAAAA8BAFAAAAD1EAAADwEAUAAAAPUQAAAPAQBQAAAA9RAAAA8BAFAAAAD1EAAADwEAUAAAAPUQAAAPAQBQAAAA9RAAAA8BAFAAAAD1EAAADwEAUAAAAPUQAAAPAQBQAAAA9RAAAA8BAFAAAAD1EAAADwEAUAAAAPUQAAAPBQxXUAbMzzp5Z06Og5HT/fUrObuo4DwDNj1VA7b2jowd2bdde2KddxsAHGdQAXFhYWrOsMG5VkVt996qQOH190HQUAJEn37prRlz+7XZVgeKeU+fn54Q2/QRwCGDLf/QWTP4ByOXxsUd/9xUnXMdAjCsAQef7Ukg4fY/IHUD6Hjy3q+VNLrmOgBxSAIXLo5XOuIwDANR06ynfUMKEADJHjF1quIwDANR0713QdAT2gAAwRzvYHUGatOHMdAT2gAAAA4CEKAAAAHqIAAADgIQoAAAAeogAAAOAhCgAAAB6iAAAA4CEKAAAAHqIAAADgIQoAAAAeogAAAOAhCgAAAB6iAAAA4CEKAAAAHqIAAADgIQoAAAAeogAAAOAhCgAAAB6iAAAA4CEKAAAAHqIAAADgIQoAAAAeqrgOgNEXziQK57oKNiUKJlIFjVQmtJIkmxplrVDZSqjsYkXJmaqyS0OwWZo/jCucSRRMJDKNTCa0ssZIiWQ7wdq4lipKzkVKz1el1HXw6zP1TJW5rsLNsYKpRMF4KlORJCubGtlWoGylonSxovRsVeliRbKuUxfrvlu36KG9O3T71mmFgdHCxaaefu2MHnv2uFY7CbkwMozrAC4sLCwM5VfWV773gusI61exqu5qKbq5rWCit1kvWwkVv1lX91hDSsq1iZp6puqulio72goaWU9/axOj+GRN8RsNZcvlKjnhXFfVj7ZUubHb07eCbYaKT9bUPdaQbQ/3gmIUBvqLf3ynHvj41qv+/wsrHf3Vo8/p2Nllcl3Hd760x3WEDZmfny/Xl80AeDdgiQLQV0aKdrVU270qU833z2y7Rt1XxtV9o+F8L9NEVtXdq4p2tt9dvdgwK8W/r6vz4rjzSTOYSlXbs6zK5jjX89jUKD5eV+fomBQPZxH41/9kjx644+qT7DvOLrf1r7771ED3uMua61ooAMNjOD+pKKVgLNXYP1xUfc9K7slfkkzVqvbJFY197qKCMXdr59F8R+NfvKDqR1v5J39prSRta2v8wQuqzHfyP98GM1Q/1tTYFy7mnvwlyYRW1Y+2NPHgRUWuxpTDfbdu+dBJVpLmJut6aO+OASRaU9ZcGA0UABQi3Bxr7IFFhZvyTyYfeO7ZRGMPLBYyUfXESLVPrqh+z5JMrbfl/nU9fWTVuGdJ1Y81C3/u66pYNe67pNrHV2VMsUsrpp6pfs+S6ntWhmp98aG71z953n/7jX1McqWy5sJooAAgt8qWrsb+eFGmWvwk+Q5TzdT440VVtnT79hpXvF5o1bjnkqofbfXPFaHtAAAPuElEQVT9tWofX1Vt92rfX0daKx1j9y+uHevvo+iWlhr3XCpmxWQAbr9pet2P3TY73sckVyprLowGCgByCWcS1e9dksJBvJjUuPeSwk19Ps5ppPqnl1XZOpiyIUnV3U1FO9r9fZFQatw3gH+/yypbu6p/ZmkoVgLGa+s/KbMWDWJjX1PWXBgNFABsmImsGvcOeC8vlOr3XJKJ+veatTtXVNk6+OPY9T0rCib7d65D464lhTcM9jBK5aauaneuDPQ1AawPBQAbVr9rWabHS+GKEDQy1T7Vn0ueovnOQJb9r6piVf+j5b7sMUc3t1XZ7ubkvOpHWwNdTQGwPhQAbEi4OVblI+7O9o62dVSZK3ZSMZFV7VNu91bD2bjwKwNMLVP9zsGcY3At9U8t93XVBkDvKADYkDIs61Y/UezZ89WPr/blbP9e1XYXO67ax5tS5HZcpp6pOqATHQGsDwUAPavMxQpn3N9wJJyJC7s00NQyVW92tPT/PsFkorCocTUyRTvKMa5oZ1tB3X3BArCGAoCeRTvLMaFIa3cdLEL1ltZgrmRYp2h7MVcEVG9pleZTbkJb2PsFIL+SfDVgaFSswpvKc0JX5cZu/qsQjBQ5OkHuWio39XZP/qsyUmVbny8t7FG0oz0UlwUCPqAAoCeVzXG5bu5SsbmXy8OZRMbhrYavxtQyBRP5DrOEM3HPP1jUb6aRKZwe8B0dAVwVBQA9CWfL9+Wd99r2sOCrCYoSzuYsAHPle6+k8uYCfEMBQE+Cafcn/71fMJV3T7l8Y5KU+weQSjuuAd2JEMD1UQDQk2C8XEvlUv5M/bz7Xh55f1GxrOMKcx7aAFAMCgB6EtRKdPz/MpPz0jJTL+dEmfeeBKUdF5cCAqVAAUBPbKWEBSDnSYmlOqnxPUzOf+vyjst1AgASBQA9Mrack8ooyhKulwPQPxQA9MQm5dtkbM6J0sblG5MkqZMvV1nHZWOKDVAG5fyGQGllrfJtMlkz3y38smb5xiRJWc4CUNpxlTQX4Bs+ieiJXSnR/XIvy3JmypbKeVDa5ixbZR1XtlzOXIBvKADoSXI+ch3hA7IL+TKl58o3JklKL+SbKNMSvleSlJ6tuo4AQBQA9KiMk2WSc0JJzlalkp3baNuBspV8BSB5u3zjkpWSM+XbhgAfUQDQk2ypomypPIcB0qWKsuV8eWw7WJssS6SIydt2Sjiut2qyOc9tAFAMPonoWfxmw3WEdyXH64U8T/f18oxJkuKTxYwrfqNc4+q+Ucy4AORHAUDP4uN12a77S7lsJ1D3RDETSnq2qqQkhzey5Uphh1qSM1WlOc+RKEp6LuL4P1AiFAD0zKZG3aPjrmOoc3RMKvBmOZ0XJmWt+2LTOTpW7PO9MO7+XAArtX874TgEgPeiAGBDuscaShfd7Vmmi5Hi48Uub2dLoboFT769Ss9HSn5fK/Y5FyN1X3N7KKBzdFzZJS7/A8qEAoCNsVL7V5O578K3IYlR69nJvuzVdl8dc3fiXGLUfr4/e8ndl8adHQpI3qqq+6rbYgXggygA2LBsJVT72anBLi9bqfXcpOxqn65EsFLr2SmlFwc/WbZfmOjbTXKsNWo9PZ37iolepRcrav1qwNsIgHWhACCX5O2q2kf6szf+AVZqHZlUcrrYJfIPSIxav5ge6B5z5+VxxQWd0HgttmvU/MVM7jsnrld6IVLrFzOFnqcBoDgUAOQWn6yr9cx0Xw8H2MSo9cyUkoIuj/vQ14uNWk9NKz7V/9frvDSu7iuDWSK3rUDNJ2f6Xm7ikzW1npoemh/+We0k635sO077mORKZc2F0UABQCGS01U1f7apLzcJSpcqav5spv97/u9jU6P2rybXVjj68Mt6thuo9czUwI+P206g1pPT6v59o/CVGxsbtY9Mqv3clGw6HJO/JL16+tK6H/v7C6t9THKlsubCaKAAoDDZcqjmE5vU+d14IROmjY06vxtX64kZpz8gE5+oa+Unm9auOsgKeEK7toe8emiTkoXBlpp3I1ijzu8m1PxZQasBmdQ9VtfqT2b7fiijHx4/cmLdj33q1bf7mORKZc2F0cB1OSiUtUbdvx9TfLyhaFdL0Y62goneliazlVDxibriY43SLCHbTqD28xPqvjK2Nq7tbZlGb23AxkbxqZriNxql+UW8dDFS8+czqmzpKrqlpcqNXamHf/KsFSg5WVf3WCP3rxe69PRrZ/TTl07rgTu2XvdxZ5faPU3KeZU1F0ZDOb6FMHJsbNR9dUzdV8cUziQK57oKNiUKJlIFjVQmXFt7tqlR1gqVrYTKLlaUnKmW+nrxrBWo89K4Oi+PvzuucCZRMJHINLIrxmXbobLVQNlSRenZqtILldIuiydnqkrOVGXqmSpzXYWbYwVTiYKxTCaykuy775VdCZUuXh7TYmVkzvB/+EcvStI1J9vzKx3t+/6Rno7LF6GsuTD8yvlt1GcLCwtD+ZX1le+94DoCMPLuu3WLHtq7Q7dvnVYYGC1cbOrp187osWePO51ky5rr/b7zpT2uI2zI/Py8d/NheXe1AMCBp187o6dfO+M6xgeUNReG1/AetAMAABtGAQAAwEMUAAAAPEQBAADAQxQAAAA8RAEAAMBDFAAAADxEAQAAwEMUAAAAPEQBAADAQxQAAAA8RAEAAMBDFAAAADxEAQAAwEMUAAAAPEQBAADAQxQAAAA8RAEAAMBDFAAAADxEAQAAwEMUAAAAPEQBGCL1iLcLQHnVo9B1BPSAGWWIbB6vuo4AANc0NxG5joAeUACGyN4d064jAMA1/dF2vqOGCQVgiPzJHXOaGaNhAyifmUZFf3LHnOsY6AEFYIg0okB/8eAuzVICAJTI7Hikv/jiLWpwntJQMa4DuLCwsGBdZ8ijFWc6dPScnjtxSW8tddRNMteRAHimWgl001RNd++Y1oO7Nw/95D8/P+/dfOjdgKXhLwAAgGL5WACGu7IBAIANoQAAAOAhCgAAAB6iAAAA4CEKAAAAHqIAAADgIQoAAAAeogAAAOAhCgAAAB6iAAAA4CEKAAAAHqIAAADgIQoAAAAeogAAAOAhCgAAAB6iAAAA4CEKAAAAHqIAAADgIQoAAAAeogAAAOAhCgAAAB6iAAAA4CEKAAAAHqIAAADgIQoAAAAeogAAAOAhCgAAAB6iAAAA4CEKAAAAHqIAAADgIQoAAAAeogAAAOAhCgAAAB6iAAAA4CEKAAAAHqIAAADgIQoAAAAeogAAAOAhCgAAAB6iAAAA4CFfC8CK6wAAgNJYch3ABV8LwO9dBwAAlMZp1wFc8LUA/J3rAACA0vi56wAu+FoA/j/XAQAApfEfXAdwwbgO4MrCwsITkh5wnQMA4NST8/Pz/9B1CBd8XQGQpP9F0qLrEAAAZxattf/SdQhXvC0A8/PzR40x/1zSJddZAAADt2iM+ecf+chHXnEdxBVvC4Akbd269QlJ94mTAgHAJ09aa++7PAd4y9tzAN5vYWHhTyT9qaR/IGm7pHG3iQAABVmVdFJrO3uPzs/P/9hxnlKgAJTAV7/6Ves6gy+stV8/cODA/+Y6B8rnq1/96tcl/a+uc/hi//79zD+OeX0IAP6x1v5H1xlQTsYYtg14hQIAb1hrfz83N3fYdQ6U0ze/+c1fSjrlOgcwKBQAeMMY89i+ffsy1zlQWlbSf3IdAhgUCgC8wRIvPgyHiOATCgB8cW52dvZJ1yFQbm+//fbPJJ11nQMYBAoAfPGDffv2Ja5DoNweffTR1BjzQ9c5gEGgAMALLO2iB2wr8AIFAD64tHnz5kOuQ2A4tNvtv5F00XUOoN8oABh5xpjH9+3b13WdA8Ph4MGDsaT/4joH0G8UAPiAJV30im0GI48CgFHXrFar3PcbPel0Ov9Va/ePB0YWBQAjzRjzo69//et8kaMnBw8ebEr6b65zAP1EAcBIy7KMpVxsFNsORhoFAKOs0+12/7PrEBhOjUbjh5LarnMA/UIBwCj7ycGDBy+5DoHh9LWvfW3ZWvu3rnMA/UIBwChjCRd5sQ1hZFEAMKpSSY+7DoHhZq39gSRuIY2RRAHAqPrp/v37+VEX5PKtb33rvKSfu84B9AMFACOJe/+jKPyMNEYVBQCjKJP0A9chMBqSJPm+1rYpYKRQADCKfnngwIEF1yEwGr797W+/Jelp1zmAolEAMHJYskUfsE1h5FAAMHLCMGT5H4UKw/D7kqzrHECRKAAYNUcefvjhN1yHwGh55JFHjkt63nUOoEgUAIwUlv/RR2xbGCkUAIyUIAj4kkZfBEHwqOsMQJEoABglLz3yyCMvuw6B0fSNb3zjFWst2xdGBgUAI8MY833XGTDa2MYwSigAGBks/2MA2MYwMigAGBXHH3nkEc7SRl/t37//19ZarjLBSKAAYCRYa/+D6wzwgzHmMdcZgCJQADAS+PEfDAqXmmJUUAAw9Ky1v5+bmzvsOgf88M1vfvOXkk65zgHkRQHA0DPGPLZv3z5+rQ2DYiX9J9chgLwoABh6LMli0DjkhFFAAcCwOzc7O/uk6xDwy9tvv/0zSWdd5wDyoABg2P1g3759iesQ8Mujjz6aGmN+6DoHkAcFAEONpVg4xLaHoUYBwDC7tHnz5kOuQ8BP7Xb7byRddJ0D2CgKAIaWMebxffv2dV3ngJ8OHjwYS/ovrnMAG0UBwDBjCRausQ1iaFEAMKya1Wr1x65DwG+dTue/Slp1nQPYCAoAhpIx5kdf//rX+eKFUwcPHmxK+m+ucwAbQQHAUMqyjKVXlAXbIoYSBQDDqNPtdv+z6xCAJDUajR9KarvOAfSKAoBh9JODBw9ech0CkKSvfe1ry9bav3WdA+gVBQDDiCVXlA3bJIYOBQDDJpX0uOsQwHtZa38giVtSY6hQADBsfrp//35+hAWl8q1vfeu8pJ+7zgH0ggKAocK9/1FW/Cw1hg0FAMMkk/QD1yGAq0mS5Pta20aBoUABwDD55YEDBxZchwCu5tvf/vZbkp52nQNYLwoAhgZLrBgCbKMYGhQADI0wDFn+R6mFYfh9SdZ1DmA9KAAYFkcefvjhN1yHAK7nkUceOS7pedc5gPWgAJQDd7X7ECz/Y4iwrX64RdcBQAEoBWPMM64zlF0QBHypYihcPgyA6zDGPOs6AygApZBl2QHXGUpu4ZFHHnnZdQhgPS5vq1ytch3W2v2uM4ACUAoHDhz4oTHm/3Wdo8T+resAQI/YZq/t/9m/fz+38y4BCkBJWGu/TAn4gFTSv9m/f/83XAcBenF5m/03WtuGcdnl77ivuM6BNcZ1AFzpz/7sz/5pEAR/Zq29R9K06zyOXDLG/MQY83984xvfeMF1GGCj/vzP/3yPtfZ/t9Z+UX5/np/JsuzAgQMHfug6DP7g/wcWgoHsoP28wgAAAABJRU5ErkJggg==;" vertex="1" parent="1">
          <mxGeometry x="310" y="290" width="20" height="20" as="geometry" />
        </mxCell>
        <mxCell id="lmG2QonkjUvl6BErKhpc-26" value="&lt;font color=&quot;#ffffff&quot;&gt;DomÃ­nio&lt;/font&gt;" style="text;html=1;align=center;verticalAlign=middle;resizable=0;points=[];autosize=1;strokeColor=none;fillColor=none;" vertex="1" parent="1">
          <mxGeometry x="285" y="303" width="70" height="30" as="geometry" />
        </mxCell>
        <mxCell id="lmG2QonkjUvl6BErKhpc-27" value="" style="triangle;whiteSpace=wrap;html=1;rotation=-90;rounded=1;fillColor=#0050ef;fontColor=#ffffff;strokeColor=#001DBC;" vertex="1" parent="1">
          <mxGeometry x="245" y="320" width="60" height="80" as="geometry" />
        </mxCell>
        <mxCell id="lmG2QonkjUvl6BErKhpc-28" value="" style="shape=image;verticalLabelPosition=bottom;labelBackgroundColor=default;verticalAlign=top;aspect=fixed;imageAspect=0;image=data:image/png,iVBORw0KGgoAAAANSUhEUgAAAgAAAAIACAYAAAD0eNT6AAAAAXNSR0IArs4c6QAAIABJREFUeJzt3VuwXNWB5vlv7Z07L+eug45Ax5KQMGAZY5kSNlCm3caNo2Kmo+mI7piaiHnwQ9vTD9NRjoqKiemIeqgJxUxE14TbEWBL9oOm7RfHTHQM7cZtotvdLquwTWEjMDLGGAQFSEjyEeh6dC5525c1D0dgBJI4efbOXDtz/X+PkCfzW8qdub699iWNIEk6ffr0F6y1/5Okz0naLmnccSQAQDFWJZ2U9HNjzL/funXrE64DlYFxHcC1hYWFHZL+b0l/4joLAGAgfizpX87Pz59wHcQlrwvAyZMn91QqlR9Za+ddZwEADI4xZiFJkv9++/btL7jO4oq3BeDNN9/cFEXRc5J2uc4CAHDiRJZle7dt23bedRAXAtcBXImi6N+KyR8AfLYjCIL/y3UIV7xcAVhYWLhZ0t9LilxnAQA4FUu6bX5+/k3XQQbNyxUAY8z/KCZ/AIAUGWP+1HUIF7wsANbaL7rOAAAoB1/nBC8LgKSPuQ4AACiN210HcMHXAjDnOgAAoDRudB3ABV8LwJjrAACA0vByTvC1AAAA4DUKAAAAHqIAAADgIQoAAAAeogAAAOAhCgAAAB6iAAAA4CEKAAAAHqIAAADgIQoAAAAeogAAAOAhCgAAAB6iAAAA4CEKAAAAHqIAAADgIQoAAAAeogAAAOAhCgAAAB6iAAAA4CEKAAAAHqIAAADgIQoAAAAeogAAAOAhCgAAAB6iAAAA4CEKAAAAHqIAAADgIQoAAAAeogAAAOAhCgAAAB6iAAAA4CEKAAAAHqIAAADgIQoAAAAeogAAAOAhCgAAAB6iAAAA4CEKAAAAHqIAAADgoYrrAOhdK8506Og5PXfikt5a6qibZK4jAfBMtRLopqma7t4xrQd3b1YjYn9y2BjXAVxYWFiwrjNs1KnFtr5x6JguNGPXUQBAkjQ7HunP/9EubZupu46yYfPz897Nh1S2IdKKMz3M5A+gZC6sxnr4J2+oFbMaOUwoAEPkxy+d1SKTP4ASWmwl+vFLZ13HQA8oAEPkyIlLriMAwDX9+iTfUcOEAjBEzq50XUcAgGviO2q4UACGSIez/QGUWJtzAIYKBQAAAA9RAAAA8BAFAAAAD1EAAADwEAUAAAAPUQAAAPAQBQAAAA9RAAAA8BAFAAAAD1EAAADwEAUAAAAPUQAAAPAQBQAAAA9RAAAA8BAFAAAAD1EAAADwEAUAAAAPUQAAAPAQBQAAAA9RAAAA8BAFAAAAD1EAAADwUMV1AIy+cCZRONdVsClRMJEqaKQyoZUk2dQoa4XKVkJlFytKz1aVLg7BZmmkcCZWOBcrnEkUTCQyjezyuIxsImWrobKlitLzkZIzVdl2+fu2qWWq3NhVeEOsYCpRMJ7KVCTJyqZGthUoW6koXawoPRspXYwk6zp1ccZrFT20d4fuv/1GbZsdlzFGi82OXjx5UY8fOaFXTl8iF0aGcR3AhYWFhaH8yvrK915wHWHdTGQV7WqpenNbZjzt6W+zlVDxibriYw3ZuFybaNDIFO1qKdrelmlk6/9DKyVvVxW/0VByptq/gBtU2dJVdEtLlRu7PX0r2Fag+OTae5W1yl9wrmfX3KT2/Q97NTdZv+r/t9bq3z3xih771Zvkuo7vfGmP6wgbMj8/X64vmwEYgl0tDBNjrKLbWqrd1pKiHibI9wgmUtXuWFXttpY6rzYUv9aQtW4/m6aWqfbxVUU72hs7cGakyk1dVW7qKr0QqfPC+Nres2PhTKzanlWFs/GG/t40MlVvb6p6a1PxiYY6L4/JdoavCIzXKvo///RuzU7UrvkYY4z+5y98TC/9fnFge9xlzYXRMHyfVJRWMJlq7AsXVbtjdcOT/xWiTLVPrKrxhUUFk72tIhQpurmtiS9eVLRzg5P/+4SzscY+v6jaJ1ZkjJvFKGOsap9Y1djnFzc8+V8hkKKdLY1/8cJaSRoy/+wzO687yb7DGKOH9u4YQKI1Zc2F0UABQCGi+Y7GHrioYKr4iTqcSjT2+YuqbO0U/tzXf2GpcfeS6n+0XEyheS8jVW9rqfG5SzK1gp/7w166lqnxuUuq3tYs/CCgiazqe5dV//Tyu+d5DIM/vm3Luh97x7ZNfUxypbLmwmigACC3aHtb9c8s9fUL31SsGvcsKdo+mL1LE1mN3b+oyvb+lo5wNtbY5xZ7O58gB9PINPa5gvb6ryPa1lbj/ksy0XCUgK0zY+t+7Oz4h++RF6WsuTAaKADIpXJTV/W9y4M5ndRI9b3LfV8JMKFV475LfZ8k3xFMpBr7B4sy9f6WAFNdKzXBxGAOp4SzsRqfXZQq5S8B9Shc92OrlcF9bZY1F0YDWww2LJhIVf/00mCvJTFS4+7lnq8s6OX56/csKbxhMJP/O4LxVI17lvp2ToAxa6VmUJP/O8JNiRqD3kYArAsFABtjpManl2Rc7N1VrBqf6c+qQ/X25tqlcA6Es7Gqd6z25bmrdzQHtqLxfpWbuqre3nTy2gCujQKADanuaimYSZy9fjgTq7qz2PMBgqlUtY/1ZwJer+qtLYWzxf67hjOxqre6nYBru1cVTLvbXgB8EAUAPTOhVXW3+z266sdXCj3xsLZn2f0nwki1O1cKfcranlX3S/BGqn+y2HEByMf11x2GULSzLVMd7KVrV2Oqdu3a/AKEc11VNrtZIn+/cDZWZUsxhyEqW7rOlv7fL9wcK5xzc3gFwAdRANCz6OaW6wjvqtxcTAGofrQ8Y5Kk6JZi8hT1PEWp3jJ8NwkCRhUFAD0JppK+3Oxno8KpJPddAk09c3bi37VUbuzmvizwnR/2KZPKTZ2B3/gIwNVRANCTsCTL5O+Vd7m8sqW3H8AZCCNVci6X9/rDPgNhpMqW8m1DgI8oAOhJZcDXx69HsClfpkFf879eectWacfFeQBAKVAA0BMz4BvJrEfem9sE0+Ubk7R2uCXX35d1XJNcDgiUAQUAPQkGdM/6XgRj+TIFjZJOlIwLQB9RANATUynfl3feTKboX/orSN4f0hnVcQEoBgUAPbGmbGeVAQA2ggKAnpikfAXApvky5f37frE5D5WP6rgAFIMCgJ5knfJNKradbzO27fX/5OogMS4A/cQnET3JVss3qeTNlC2Xb0ySlK1U8v19SceV5hwXgGJQANCT7FL5vrzTnJnSxfKNScqfq6zjyi6WMxfgGwoAepKej1xH+IDsQr5M6dlqQUmKlTdXerZ875VU3lyAbygA6ElyPirXyWWJUXouZwFYrMg2y7VcbttBASsAkbJWuT7ithUovUQBAMqgXN8OKL/EKH2rPHvMydvV/IXESvHJWjGBChKfqEt5L5e3UnKyXkieonSLGBeAQlAA0LPusYbrCO8qKkv3jYZUkhvnWWvUPV7MxN091pBKcj8gmxolJdp2AN9RANCz9FykrAQnmKWLUe7l/3fYTqDu8XJMTvHxWmGHJGwrUHyiHONK3qwr4xJAoDT4NGJDOi9OuI6g7u/Gi32+l8edX6NuY6Pu0WLH1XlpTLbreFztQO2Xx5xmAHAlCgA2JDkXKT7l7rh5fKqmpOCzyW1i1HnBbbHp/HZCtlPsx9J2A3VeLLZU9Kr9mwkp5usGKBM+kdiwzm8mZR2cZZ61AnV+M9mX544XaorfcLNkHp+srZ3814/nPlFXfMrNCYHd18eUnC7XSZYAKADIwcZGrcPTg70sMJXaz0zLxv17zfZvJ5QsDHbCSi9W1O5TqXlH59cTA7+PQ/JW1fnqA4CrowAgl3SxovbhqcGcQZ+sFY6033eSs1LrV5NKTg/mcsf0YqTWL2akPv/Qkk2NWk9PK704mBIQL9TUemZqKC77a3XXvwF3k8FdLlLWXBgNFADklpypqvnLmb6eaGa7Rs2np5WcGdA9CDKj1jPT6r7e38MByVtVtZ7q74rGe9nYqPXUtJI+38uh+/qY2s9OSVmJbhp1HW9daq77sRdWu31McqWy5sJooACgEOm5SM2fzii9UPzeeXqhouZPNxV2yd+62bWT8lqHp4u/OiCTOi+Prz33gH9i2V5eSem8PF74PQJsO1h77t+OD8We/zt++fdn1v3Yl05d7GOSK5U1F0YDBQCFyZqhmk9uWjuTvZt/UrPdtbPym09uUubwVr3J6apWDm1S9/VGIec7pOcirT6xSd1XxtxNklbqvjKm1Sc2KSmgWNnUKH6joZVDmwZ26KRIjz17XBdWOh/6OGutHj9yYgCJ1pQ1F0YDBQDFslL39YZWfnyDOr8b39BP0mbLFXV+N67VH9+wdoe+MuxJxoE6v53Q6t/MqvPKWO836rFrRaL51LSafzejbNn9jZSktX/r1t/NqPnU9NrE3eO/tW0F6rwyptW/mVX7heG91G+1k+ivHn1OZ5fb13yMtVb/7olX9MrpS97nwmgYjgN0BVtYWCjDlNKzr3zvBdcRNiScThTOxQpmYwXjqYKxVCZcewtsapQ1Q9mVUOnFSOnZKPfP+w6EkcKZROHmrsJNicxEqqDxzriMbGyUNQNlyxWlZ6tKzkSFX9/fD6aWKdzSVWUuVjCZKBjLZCIrya69V6133qvK5fcqKkdBK8h4raKH9u7Q/bffqG2z4zLGaLHZ0YsnL+rxIyecTbJlzXU13/nSHtcRNmR+ft67+dC7AUsUAADoFwrA8Cj/LgkAACgcBQAAAA9RAAAA8BAFAAAAD1EAAADwEAUAAAAPUQAAAPAQBQAAAA9RAAAA8BAFAAAAD1EAAADwEAUAAAAPUQAAAPAQBQAAAA9RAAAA8BAFAAAAD1EAAADwEAUAAAAPUQAAAPAQBQAAAA9RAAAA8BAFAAAAD1EAhshYNXQdAQCuqRExpQwT3q0hsvOGhusIAHBNuzaPuY6AHlAAhsiDuze7jgAA1/TF3XOuI6AHFIAhcte2Kd27a8Z1DAD4gPt2zehT2yZdx0APKABD5suf3U4JAFAq9+6a0b/47HbXMdAj4zqACwsLC9Z1hryeP7WkQ0fP6fj5lprd1HUcAJ4Zq4baeUNDD+7erLu2TbmOk9v8/Lx386F3A5ZGowDgD/76r/+6p8f/5V/+ZZ+SwCW2A+ThYwHgEAAAAB6iAAAA4CEKAAAAHqIAAADgIQoAAAAeogAAAOAhCgAAAB6iAAAA4CEKAAAAHqIAAADgIQoAAAAeogAAAOAhCgAAAB6iAAAA4CEKAAAAHqIAAADgIQoAAAAeogAAAOAhCgAAAB6iAAAA4CEKAAAAHqIAAADgIQoAAAAeogAAAOAhCgAAAB6iAAAA4CEKAAAAHqIAAADgIeM6gAsLCwvWdYa8nj+1pENHz+n4+Zaa3dR1HACeGauG2nlDQw/u3qy7tk25jpPb/Py8d/OhdwOWhrsAJJnVd586qcPHF11HAQBJ0r27ZvTlz25XJRjeKcXHAsAhgCHz3V8w+QMol8PHFvXdX5x0HQM9ogAMkedPLenwMSZ/AOVz+Niinj+15DoGekABGCKHXj7nOgIAXNOho3xHDRMKwBA5fqHlOgIAXNOxc03XEdADCsAQ4Wx/AGXWijPXEdADCgAAAB6iAAAA4CEKAAAAHqIAAADgIQoAAAAeogAAAOAhCgAAAB6iAAAA4CEKAAAAHqIAAADgIQoAAAAeogAAAOAhCgAAAB6iAAAA4CEKAAAAHqIAAADgIQoAAAAeogAAAOAhCgAAAB6iAAAA4CEKAAAAHqIAAADgoYrrAABQJvfdukUP7d2h27dOKwyMFi429fRrZ/TYs8e12knIhZFBAUB/BVbh5liVG2IF04mC8VSmnslUrCTJJka2HShbDZVdqig5Hyk9F0mZcRz8+kxoFc7FCmffM67a2risjJRIthkqWwnXxnS2qmw5dB37QwVTyR/er4lUZiyVKpKRXXuvOn94r9ILkZJzkZSU+71arygM9Bf/+E498PGtV/z3W7ZM6pYtk/rv9mzTXz36nI6dXSYXRsJofHJ7tLCwYF1n2IivfO8F1xHWLZhKVf1oU9F8V4qy3v44DhQvVNV9raFsuVwdNZzrqrqzrcqNXanS22aULYWK32woPl6XTcvz0TOhVbSzrejmloKptLc/ToySt6vqHmusFbch9q//yR49cMfW6z7m7HJb/+q7Tw10j7usua7lO1/a4zrChszPz5fnQzkg5fp2xdALxlLVPrmiytbuxp8kyhTd3FZ0c1vxQk3dF8eVNd3uPVfmYlU/saJwZuNfsMHU2r9N9WNNdY6OKT7WkFxWUSNFu1qq7W7KVHssae+oWFU+0lHlIx1lixW1fzeu9Gy12JwDcN+tWz50kpWkucm6Htq7Q//+l28MIFV5c2E0cBIgChPtamn8wQv5Jv/3P+d8R+MPXlC0s1XYc/bCRFaNzyypcf9irsn/iuesZqrvWdHY5xcVTPS4x12QYCLV+Ocvqr5nZeOT//ufcybR2P2XVP/0kkw0XItsD929Y92Pvf/2G/uY5EplzYXRQAFAbsZY1e9eUv1TK1I/dtRDqX7Xiup7l2XM4CaWcCZZKzQf6fTp+WONPXBRlZuKK0zrUbmpq7EHLiooqNC8X7Sto/F/dKGwwjQIt980ve7Hbpsd72OSK5U1F0YDBQC5GGNVv3dJ0fb+TJLvFe1oq37v0kBKQGVLV43PLcrUi9k7vhZTsWrce0nR9nZfX+cd0fa2GvdeevckzH4xjUyNzy2qsmWw5WajxmvrPxpaiwZ3OKqsuTAaKADIpbZ3eaB7sJWbuqr90UpfXyPcHK9NkuGAVhuMVN+7XOihk6uJ5juq710e2Km/JlwrN+HmeDAvCKAnFABsWHVXeyB7/u8X7Wj37ZwA08jUuOdSfw5lXPeFpfqnlxRM9WfZPJhIBzr5vyvUWpkad3OuA4BrowBgQ4KxVLU73V13XP/kioKxgicVIzXuWZKpujmBzYRWjU8Xf4jDGLtWavq87H/N14+sGncveXrRMVBeFABsSPXO1cHvJb9XKNXuXC30KaNdLYWb3C5XB1OpoluLXd2IbtvA9f0FC2cTVW9xcyUHgKujAKBnwWSiaH7wS//vV5nvKJgs6NK8ilXtY81Cniuv6u3N3m+edA0msqreVpJxfazpbBUCwAdRANCzasF7qHkUlSXa1ZKp9feM//UykVV1VzFXBUS7WqW5Jt9UM1V3lWfbAXxHAUBvgrU977KI5rtSkH+Ci3aUZ0ySVL25oAIwoMsL1ysqaFwA8qMAoCfh5m5p9iglSVGmyg35jtsH00lhhxKKYsZTBdP5MoUziYLJcp19H0ykCnOOC0AxKADoSZhzsu2HvNeZV7aUb0ySct9EJ5wr57jKmgvwDQUAPSnj3lveM9xdn/l/LcGmnCsAJR1XWXMBvqEAoCeufrzmevJmKtsy+TtGdVympLkA31AA0JOgVqLj/5eZer4JJe/f90vAuAD0EQUAPbElvI477z37B3bP/x6Z9f8OzNX/fkTHBaAYFAAAADxEAUBPTFK+G7rbNF+mvH/fLzbn+ZajOi4AxaAAoCdZu3yTim3n24xtq5wfg6yd78cWSjuuFr9bD5RBOb8hUFrZavm+vLOVfAeV05x/3y92Od+/dWnHtVK+bQjwEQUAPUkvlW9SyZbyTSjZxaigJMVKF/P9W5d1XElJcwG+oQCgJ+n58n15p+fyZUrOlG9MkpScqeb6+/RsOceVlfTfG/ANBQA9Sc9VZeMSnQcQB0pylpLsUkXZcrlWNuxqqCznaku6WFGW8zBC0bKVUOlSuf6tAV9RANCbTEoWaq5TvCteqEpZ/kISnyjPmCSpe7xeyPPEJ4t5nqLEb5YrD+AzCgB61n2t4TrCu4rKEh9ryHbK8XGwsSmuABxrlGbFxnYDdY+VZ9sBfFeObzwMlWy5UopVgGShVtjSvU2Muq+OFfJceXVfHZPiYj6aNi7RuI6OSSW8jwTgKwoANqTz4rjk8pbu6eUMBeq+0VDq+Az1dKmiuOAVlvi1hvPj7umFCnv/QMlQALAhWTNU+8UJZ6/feXFSWbPgE9ys1HpmSrbrZi/VJkbtX03K2mJf31qj9jNTso72vm1s1HpuSirnTxMA3qIAYMPiYw3FJwZ/Uld8oq7usf68rm0Faj8zPfjVDSu1n5tU1qc99WwlVPu5ycFPwolR6/C0bAlvIAX4jgKAXDq/nlDyVr7r1XuRvFVV59f9XXlIzkVrk9ag7qVvpdaRSSWn+3teRXK6pvaRwZUAmxq1npnKfZ8GAP1BAUAu1hq1D08NZCUgPlFX+/BU4UvkV5Ocqar15Ez/76d/eQ85GdDlevHJulqHp/t+Ml7WCtR6cib3zYwGZbWz/l8oaseDWx4qay6MBgoAcrPWqH1kUu3nJ/qzdJ5Knd9Mqn2k+OPj133ZxYpW/3ZW8an+7Jmni5FWntg00BUUaW0VZeWJTUoX+7NnHp+qqfm3s7lvZTxIr56+tO7H/v7Cah+TXKmsuTAaKAAoTHy8odVDs4VeIpgs1LR6aLZvx/w/jI2N2r+aUvOp6cImTNs16vxmUs2fzTg7Nm5XQzV/NqPObyYLO+kxXYzU/LsZtX81VZp7D6zX40dOrPuxT736dh+TXKmsuTAahqeiYyhkzVCtZ6YUTCaq3tpSZb4jE/V20NnGRslCTd3XG307Ka5X6dmqmj+tKtwcq7qrpcqNXanS27iypVDx8Ya6J+rluB7eSt1jdcUnaop2thXd3FIw1eMSTmKUvF1V91hjqI/1P/3aGf30pdN64I6t133c2aV2T5NyXmXNhdFQjm9XjJxsuaL2ryel30yockOscHOsYCpVMJHK1NM/bHmJZNuhspVQ2VKo9Fyk5HxVypzGv6b0XKTWuUiq2LVxzcYKphMF46lMPZMqkrFWNgmUNQPZ1VDphUjJmah0vzfwDpsadV9vqPt6Q8FkqsqWrsLZWGY8VTCWyVQyWWMuv1eBssu/U5BeiNZ+h6EMZaYAD//oRUm65mR7fqWjfd8/0tNx+SKUNReG32h8cnu0sLAwlFckf+V7L7iOAIy8+27doof27tDtW6cVBkYLF5t6+rUzeuzZ404n2bLmer/vfGmP6wgbMj8/7918WM5dEgBw5OnXzujp1864jvEBZc2F4cVJgAAAeIgCAACAhygAAAB4iAIAAICHKAAAAHiIAgAAgIcoAAAAeIgCAACAhygAAAB4iAIAAICHKAAAAHiIAgAAgIcoAAAAeIgCAACAhygAAAB4iAIAAICHKAAAAHiIAgAAgIcoAAAAeIgCAACAhygAAAB4iAIAAICHKABDZKwauo4AANfUiJhShgnv1hDZeUPDdQQAuKZdm8dcR0APKABD5MHdm11HAIBr+uLuOdcR0AMKwBC5a9uU7t014zoGAHzAfbtm9Kltk65joAcUgCHz5c9upwQAKJV7d83oX3x2u+sY6JFxHcCFhYUF6zpDXs+fWtKho+d0/HxLzW7qOg4Az4xVQ+28oaEHd2/WXdumXMfJbX5+3rv50LsBS6NRAAAAxfGxAHAIAAAAD1EAAADwEAUAAAAPUQAAAPAQBQAAAA9RAAAA8BAFAAAAD1EAAADwEAUAAAAPUQAAAPAQBQAAAA9RAAAA8BAFAAAAD1EAAADwEAUAAAAPUQAAAPAQBQAAAA9RAAAA8BAFAAAAD1EAAADwEAUAAAAPUQAAAPAQBQAAAA9RAAAA8BAFAAAAD1EAAADwEAUAAAAPUQAAAPBQxXUAbMzzp5Z06Og5HT/fUrObuo4DwDNj1VA7b2jowd2bdde2KddxsAHGdQAXFhYWrOsMG5VkVt996qQOH190HQUAJEn37prRlz+7XZVgeKeU+fn54Q2/QRwCGDLf/QWTP4ByOXxsUd/9xUnXMdAjCsAQef7Ukg4fY/IHUD6Hjy3q+VNLrmOgBxSAIXLo5XOuIwDANR06ynfUMKEADJHjF1quIwDANR0713QdAT2gAAwRzvYHUGatOHMdAT2gAAAA4CEKAAAAHqIAAADgIQoAAAAeogAAAOAhCgAAAB6iAAAA4CEKAAAAHqIAAADgIQoAAAAeogAAAOAhCgAAAB6iAAAA4CEKAAAAHqIAAADgIQoAAAAeogAAAOAhCgAAAB6iAAAA4CEKAAAAHqIAAADgIQoAAAAeqrgOgNEXziQK57oKNiUKJlIFjVQmtJIkmxplrVDZSqjsYkXJmaqyS0OwWZo/jCucSRRMJDKNTCa0ssZIiWQ7wdq4lipKzkVKz1el1HXw6zP1TJW5rsLNsYKpRMF4KlORJCubGtlWoGylonSxovRsVeliRbKuUxfrvlu36KG9O3T71mmFgdHCxaaefu2MHnv2uFY7CbkwMozrAC4sLCwM5VfWV773gusI61exqu5qKbq5rWCit1kvWwkVv1lX91hDSsq1iZp6puqulio72goaWU9/axOj+GRN8RsNZcvlKjnhXFfVj7ZUubHb07eCbYaKT9bUPdaQbQ/3gmIUBvqLf3ynHvj41qv+/wsrHf3Vo8/p2Nllcl3Hd760x3WEDZmfny/Xl80AeDdgiQLQV0aKdrVU270qU833z2y7Rt1XxtV9o+F8L9NEVtXdq4p2tt9dvdgwK8W/r6vz4rjzSTOYSlXbs6zK5jjX89jUKD5eV+fomBQPZxH41/9kjx644+qT7DvOLrf1r7771ED3uMua61ooAMNjOD+pKKVgLNXYP1xUfc9K7slfkkzVqvbJFY197qKCMXdr59F8R+NfvKDqR1v5J39prSRta2v8wQuqzHfyP98GM1Q/1tTYFy7mnvwlyYRW1Y+2NPHgRUWuxpTDfbdu+dBJVpLmJut6aO+OASRaU9ZcGA0UABQi3Bxr7IFFhZvyTyYfeO7ZRGMPLBYyUfXESLVPrqh+z5JMrbfl/nU9fWTVuGdJ1Y81C3/u66pYNe67pNrHV2VMsUsrpp6pfs+S6ntWhmp98aG71z953n/7jX1McqWy5sJooAAgt8qWrsb+eFGmWvwk+Q5TzdT440VVtnT79hpXvF5o1bjnkqofbfXPFaHtAAAPuElEQVT9tWofX1Vt92rfX0daKx1j9y+uHevvo+iWlhr3XCpmxWQAbr9pet2P3TY73sckVyprLowGCgByCWcS1e9dksJBvJjUuPeSwk19Ps5ppPqnl1XZOpiyIUnV3U1FO9r9fZFQatw3gH+/yypbu6p/ZmkoVgLGa+s/KbMWDWJjX1PWXBgNFABsmImsGvcOeC8vlOr3XJKJ+veatTtXVNk6+OPY9T0rCib7d65D464lhTcM9jBK5aauaneuDPQ1AawPBQAbVr9rWabHS+GKEDQy1T7Vn0ueovnOQJb9r6piVf+j5b7sMUc3t1XZ7ubkvOpHWwNdTQGwPhQAbEi4OVblI+7O9o62dVSZK3ZSMZFV7VNu91bD2bjwKwNMLVP9zsGcY3At9U8t93XVBkDvKADYkDIs61Y/UezZ89WPr/blbP9e1XYXO67ax5tS5HZcpp6pOqATHQGsDwUAPavMxQpn3N9wJJyJC7s00NQyVW92tPT/PsFkorCocTUyRTvKMa5oZ1tB3X3BArCGAoCeRTvLMaFIa3cdLEL1ltZgrmRYp2h7MVcEVG9pleZTbkJb2PsFIL+SfDVgaFSswpvKc0JX5cZu/qsQjBQ5OkHuWio39XZP/qsyUmVbny8t7FG0oz0UlwUCPqAAoCeVzXG5bu5SsbmXy8OZRMbhrYavxtQyBRP5DrOEM3HPP1jUb6aRKZwe8B0dAVwVBQA9CWfL9+Wd99r2sOCrCYoSzuYsAHPle6+k8uYCfEMBQE+Cafcn/71fMJV3T7l8Y5KU+weQSjuuAd2JEMD1UQDQk2C8XEvlUv5M/bz7Xh55f1GxrOMKcx7aAFAMCgB6EtRKdPz/MpPz0jJTL+dEmfeeBKUdF5cCAqVAAUBPbKWEBSDnSYmlOqnxPUzOf+vyjst1AgASBQA9Mrack8ooyhKulwPQPxQA9MQm5dtkbM6J0sblG5MkqZMvV1nHZWOKDVAG5fyGQGllrfJtMlkz3y38smb5xiRJWc4CUNpxlTQX4Bs+ieiJXSnR/XIvy3JmypbKeVDa5ixbZR1XtlzOXIBvKADoSXI+ch3hA7IL+TKl58o3JklKL+SbKNMSvleSlJ6tuo4AQBQA9KiMk2WSc0JJzlalkp3baNuBspV8BSB5u3zjkpWSM+XbhgAfUQDQk2ypomypPIcB0qWKsuV8eWw7WJssS6SIydt2Sjiut2qyOc9tAFAMPonoWfxmw3WEdyXH64U8T/f18oxJkuKTxYwrfqNc4+q+Ucy4AORHAUDP4uN12a77S7lsJ1D3RDETSnq2qqQkhzey5Uphh1qSM1WlOc+RKEp6LuL4P1AiFAD0zKZG3aPjrmOoc3RMKvBmOZ0XJmWt+2LTOTpW7PO9MO7+XAArtX874TgEgPeiAGBDuscaShfd7Vmmi5Hi48Uub2dLoboFT769Ss9HSn5fK/Y5FyN1X3N7KKBzdFzZJS7/A8qEAoCNsVL7V5O578K3IYlR69nJvuzVdl8dc3fiXGLUfr4/e8ndl8adHQpI3qqq+6rbYgXggygA2LBsJVT72anBLi9bqfXcpOxqn65EsFLr2SmlFwc/WbZfmOjbTXKsNWo9PZ37iolepRcrav1qwNsIgHWhACCX5O2q2kf6szf+AVZqHZlUcrrYJfIPSIxav5ge6B5z5+VxxQWd0HgttmvU/MVM7jsnrld6IVLrFzOFnqcBoDgUAOQWn6yr9cx0Xw8H2MSo9cyUkoIuj/vQ14uNWk9NKz7V/9frvDSu7iuDWSK3rUDNJ2f6Xm7ikzW1npoemh/+We0k635sO077mORKZc2F0UABQCGS01U1f7apLzcJSpcqav5spv97/u9jU6P2rybXVjj68Mt6thuo9czUwI+P206g1pPT6v59o/CVGxsbtY9Mqv3clGw6HJO/JL16+tK6H/v7C6t9THKlsubCaKAAoDDZcqjmE5vU+d14IROmjY06vxtX64kZpz8gE5+oa+Unm9auOsgKeEK7toe8emiTkoXBlpp3I1ijzu8m1PxZQasBmdQ9VtfqT2b7fiijHx4/cmLdj33q1bf7mORKZc2F0cB1OSiUtUbdvx9TfLyhaFdL0Y62goneliazlVDxibriY43SLCHbTqD28xPqvjK2Nq7tbZlGb23AxkbxqZriNxql+UW8dDFS8+czqmzpKrqlpcqNXamHf/KsFSg5WVf3WCP3rxe69PRrZ/TTl07rgTu2XvdxZ5faPU3KeZU1F0ZDOb6FMHJsbNR9dUzdV8cUziQK57oKNiUKJlIFjVQmXFt7tqlR1gqVrYTKLlaUnKmW+nrxrBWo89K4Oi+PvzuucCZRMJHINLIrxmXbobLVQNlSRenZqtILldIuiydnqkrOVGXqmSpzXYWbYwVTiYKxTCaykuy775VdCZUuXh7TYmVkzvB/+EcvStI1J9vzKx3t+/6Rno7LF6GsuTD8yvlt1GcLCwtD+ZX1le+94DoCMPLuu3WLHtq7Q7dvnVYYGC1cbOrp187osWePO51ky5rr/b7zpT2uI2zI/Py8d/NheXe1AMCBp187o6dfO+M6xgeUNReG1/AetAMAABtGAQAAwEMUAAAAPEQBAADAQxQAAAA8RAEAAMBDFAAAADxEAQAAwEMUAAAAPEQBAADAQxQAAAA8RAEAAMBDFAAAADxEAQAAwEMUAAAAPEQBAADAQxQAAAA8RAEAAMBDFAAAADxEAQAAwEMUAAAAPEQBGCL1iLcLQHnVo9B1BPSAGWWIbB6vuo4AANc0NxG5joAeUACGyN4d064jAMA1/dF2vqOGCQVgiPzJHXOaGaNhAyifmUZFf3LHnOsY6AEFYIg0okB/8eAuzVICAJTI7Hikv/jiLWpwntJQMa4DuLCwsGBdZ8ijFWc6dPScnjtxSW8tddRNMteRAHimWgl001RNd++Y1oO7Nw/95D8/P+/dfOjdgKXhLwAAgGL5WACGu7IBAIANoQAAAOAhCgAAAB6iAAAA4CEKAAAAHqIAAADgIQoAAAAeogAAAOAhCgAAAB6iAAAA4CEKAAAAHqIAAADgIQoAAAAeogAAAOAhCgAAAB6iAAAA4CEKAAAAHqIAAADgIQoAAAAeogAAAOAhCgAAAB6iAAAA4CEKAAAAHqIAAADgIQoAAAAeogAAAOAhCgAAAB6iAAAA4CEKAAAAHqIAAADgIQoAAAAeogAAAOAhCgAAAB6iAAAA4CEKAAAAHqIAAADgIQoAAAAeogAAAOAhCgAAAB6iAAAA4CFfC8CK6wAAgNJYch3ABV8LwO9dBwAAlMZp1wFc8LUA/J3rAACA0vi56wAu+FoA/j/XAQAApfEfXAdwwbgO4MrCwsITkh5wnQMA4NST8/Pz/9B1CBd8XQGQpP9F0qLrEAAAZxattf/SdQhXvC0A8/PzR40x/1zSJddZAAADt2iM+ecf+chHXnEdxBVvC4Akbd269QlJ94mTAgHAJ09aa++7PAd4y9tzAN5vYWHhTyT9qaR/IGm7pHG3iQAABVmVdFJrO3uPzs/P/9hxnlKgAJTAV7/6Ves6gy+stV8/cODA/+Y6B8rnq1/96tcl/a+uc/hi//79zD+OeX0IAP6x1v5H1xlQTsYYtg14hQIAb1hrfz83N3fYdQ6U0ze/+c1fSjrlOgcwKBQAeMMY89i+ffsy1zlQWlbSf3IdAhgUCgC8wRIvPgyHiOATCgB8cW52dvZJ1yFQbm+//fbPJJ11nQMYBAoAfPGDffv2Ja5DoNweffTR1BjzQ9c5gEGgAMALLO2iB2wr8AIFAD64tHnz5kOuQ2A4tNvtv5F00XUOoN8oABh5xpjH9+3b13WdA8Ph4MGDsaT/4joH0G8UAPiAJV30im0GI48CgFHXrFar3PcbPel0Ov9Va/ePB0YWBQAjzRjzo69//et8kaMnBw8ebEr6b65zAP1EAcBIy7KMpVxsFNsORhoFAKOs0+12/7PrEBhOjUbjh5LarnMA/UIBwCj7ycGDBy+5DoHh9LWvfW3ZWvu3rnMA/UIBwChjCRd5sQ1hZFEAMKpSSY+7DoHhZq39gSRuIY2RRAHAqPrp/v37+VEX5PKtb33rvKSfu84B9AMFACOJe/+jKPyMNEYVBQCjKJP0A9chMBqSJPm+1rYpYKRQADCKfnngwIEF1yEwGr797W+/Jelp1zmAolEAMHJYskUfsE1h5FAAMHLCMGT5H4UKw/D7kqzrHECRKAAYNUcefvjhN1yHwGh55JFHjkt63nUOoEgUAIwUlv/RR2xbGCkUAIyUIAj4kkZfBEHwqOsMQJEoABglLz3yyCMvuw6B0fSNb3zjFWst2xdGBgUAI8MY833XGTDa2MYwSigAGBks/2MA2MYwMigAGBXHH3nkEc7SRl/t37//19ZarjLBSKAAYCRYa/+D6wzwgzHmMdcZgCJQADAS+PEfDAqXmmJUUAAw9Ky1v5+bmzvsOgf88M1vfvOXkk65zgHkRQHA0DPGPLZv3z5+rQ2DYiX9J9chgLwoABh6LMli0DjkhFFAAcCwOzc7O/uk6xDwy9tvv/0zSWdd5wDyoABg2P1g3759iesQ8Mujjz6aGmN+6DoHkAcFAEONpVg4xLaHoUYBwDC7tHnz5kOuQ8BP7Xb7byRddJ0D2CgKAIaWMebxffv2dV3ngJ8OHjwYS/ovrnMAG0UBwDBjCRausQ1iaFEAMKya1Wr1x65DwG+dTue/Slp1nQPYCAoAhpIx5kdf//rX+eKFUwcPHmxK+m+ucwAbQQHAUMqyjKVXlAXbIoYSBQDDqNPtdv+z6xCAJDUajR9KarvOAfSKAoBh9JODBw9ech0CkKSvfe1ry9bav3WdA+gVBQDDiCVXlA3bJIYOBQDDJpX0uOsQwHtZa38giVtSY6hQADBsfrp//35+hAWl8q1vfeu8pJ+7zgH0ggKAocK9/1FW/Cw1hg0FAMMkk/QD1yGAq0mS5Pta20aBoUABwDD55YEDBxZchwCu5tvf/vZbkp52nQNYLwoAhgZLrBgCbKMYGhQADI0wDFn+R6mFYfh9SdZ1DmA9KAAYFkcefvjhN1yHAK7nkUceOS7pedc5gPWgAJQDd7X7ECz/Y4iwrX64RdcBQAEoBWPMM64zlF0QBHypYihcPgyA6zDGPOs6AygApZBl2QHXGUpu4ZFHHnnZdQhgPS5vq1ytch3W2v2uM4ACUAoHDhz4oTHm/3Wdo8T+resAQI/YZq/t/9m/fz+38y4BCkBJWGu/TAn4gFTSv9m/f/83XAcBenF5m/03WtuGcdnl77ivuM6BNcZ1AFzpz/7sz/5pEAR/Zq29R9K06zyOXDLG/MQY83984xvfeMF1GGCj/vzP/3yPtfZ/t9Z+UX5/np/JsuzAgQMHfug6DP7g/wcWgoHsoP28wgAAAABJRU5ErkJggg==;" vertex="1" parent="1">
          <mxGeometry x="265" y="350" width="20" height="20" as="geometry" />
        </mxCell>
        <mxCell id="lmG2QonkjUvl6BErKhpc-29" value="&lt;font color=&quot;#ffffff&quot;&gt;DomÃ­nio&lt;/font&gt;" style="text;html=1;align=center;verticalAlign=middle;resizable=0;points=[];autosize=1;strokeColor=none;fillColor=none;" vertex="1" parent="1">
          <mxGeometry x="240" y="363" width="70" height="30" as="geometry" />
        </mxCell>
        <mxCell id="lmG2QonkjUvl6BErKhpc-30" value="" style="triangle;whiteSpace=wrap;html=1;rotation=-90;rounded=1;fillColor=#0050ef;fontColor=#ffffff;strokeColor=#001DBC;" vertex="1" parent="1">
          <mxGeometry x="335" y="320" width="60" height="80" as="geometry" />
        </mxCell>
        <mxCell id="lmG2QonkjUvl6BErKhpc-31" value="" style="shape=image;verticalLabelPosition=bottom;labelBackgroundColor=default;verticalAlign=top;aspect=fixed;imageAspect=0;image=data:image/png,iVBORw0KGgoAAAANSUhEUgAAAgAAAAIACAYAAAD0eNT6AAAAAXNSR0IArs4c6QAAIABJREFUeJzt3VuwXNWB5vlv7Z07L+eug45Ax5KQMGAZY5kSNlCm3caNo2Kmo+mI7piaiHnwQ9vTD9NRjoqKiemIeqgJxUxE14TbEWBL9oOm7RfHTHQM7cZtotvdLquwTWEjMDLGGAQFSEjyEeh6dC5525c1D0dgBJI4efbOXDtz/X+PkCfzW8qdub699iWNIEk6ffr0F6y1/5Okz0naLmnccSQAQDFWJZ2U9HNjzL/funXrE64DlYFxHcC1hYWFHZL+b0l/4joLAGAgfizpX87Pz59wHcQlrwvAyZMn91QqlR9Za+ddZwEADI4xZiFJkv9++/btL7jO4oq3BeDNN9/cFEXRc5J2uc4CAHDiRJZle7dt23bedRAXAtcBXImi6N+KyR8AfLYjCIL/y3UIV7xcAVhYWLhZ0t9LilxnAQA4FUu6bX5+/k3XQQbNyxUAY8z/KCZ/AIAUGWP+1HUIF7wsANbaL7rOAAAoB1/nBC8LgKSPuQ4AACiN210HcMHXAjDnOgAAoDRudB3ABV8LwJjrAACA0vByTvC1AAAA4DUKAAAAHqIAAADgIQoAAAAeogAAAOAhCgAAAB6iAAAA4CEKAAAAHqIAAADgIQoAAAAeogAAAOAhCgAAAB6iAAAA4CEKAAAAHqIAAADgIQoAAAAeogAAAOAhCgAAAB6iAAAA4CEKAAAAHqIAAADgIQoAAAAeogAAAOAhCgAAAB6iAAAA4CEKAAAAHqIAAADgIQoAAAAeogAAAOAhCgAAAB6iAAAA4CEKAAAAHqIAAADgIQoAAAAeogAAAOAhCgAAAB6iAAAA4CEKAAAAHqIAAADgoYrrAOhdK8506Og5PXfikt5a6qibZK4jAfBMtRLopqma7t4xrQd3b1YjYn9y2BjXAVxYWFiwrjNs1KnFtr5x6JguNGPXUQBAkjQ7HunP/9EubZupu46yYfPz897Nh1S2IdKKMz3M5A+gZC6sxnr4J2+oFbMaOUwoAEPkxy+d1SKTP4ASWmwl+vFLZ13HQA8oAEPkyIlLriMAwDX9+iTfUcOEAjBEzq50XUcAgGviO2q4UACGSIez/QGUWJtzAIYKBQAAAA9RAAAA8BAFAAAAD1EAAADwEAUAAAAPUQAAAPAQBQAAAA9RAAAA8BAFAAAAD1EAAADwEAUAAAAPUQAAAPAQBQAAAA9RAAAA8BAFAAAAD1EAAADwEAUAAAAPUQAAAPAQBQAAAA9RAAAA8BAFAAAAD1EAAADwUMV1AIy+cCZRONdVsClRMJEqaKQyoZUk2dQoa4XKVkJlFytKz1aVLg7BZmmkcCZWOBcrnEkUTCQyjezyuIxsImWrobKlitLzkZIzVdl2+fu2qWWq3NhVeEOsYCpRMJ7KVCTJyqZGthUoW6koXawoPRspXYwk6zp1ccZrFT20d4fuv/1GbZsdlzFGi82OXjx5UY8fOaFXTl8iF0aGcR3AhYWFhaH8yvrK915wHWHdTGQV7WqpenNbZjzt6W+zlVDxibriYw3ZuFybaNDIFO1qKdrelmlk6/9DKyVvVxW/0VByptq/gBtU2dJVdEtLlRu7PX0r2Fag+OTae5W1yl9wrmfX3KT2/Q97NTdZv+r/t9bq3z3xih771Zvkuo7vfGmP6wgbMj8/X64vmwEYgl0tDBNjrKLbWqrd1pKiHibI9wgmUtXuWFXttpY6rzYUv9aQtW4/m6aWqfbxVUU72hs7cGakyk1dVW7qKr0QqfPC+Nres2PhTKzanlWFs/GG/t40MlVvb6p6a1PxiYY6L4/JdoavCIzXKvo///RuzU7UrvkYY4z+5y98TC/9fnFge9xlzYXRMHyfVJRWMJlq7AsXVbtjdcOT/xWiTLVPrKrxhUUFk72tIhQpurmtiS9eVLRzg5P/+4SzscY+v6jaJ1ZkjJvFKGOsap9Y1djnFzc8+V8hkKKdLY1/8cJaSRoy/+wzO687yb7DGKOH9u4YQKI1Zc2F0UABQCGi+Y7GHrioYKr4iTqcSjT2+YuqbO0U/tzXf2GpcfeS6n+0XEyheS8jVW9rqfG5SzK1gp/7w166lqnxuUuq3tYs/CCgiazqe5dV//Tyu+d5DIM/vm3Luh97x7ZNfUxypbLmwmigACC3aHtb9c8s9fUL31SsGvcsKdo+mL1LE1mN3b+oyvb+lo5wNtbY5xZ7O58gB9PINPa5gvb6ryPa1lbj/ksy0XCUgK0zY+t+7Oz4h++RF6WsuTAaKADIpXJTV/W9y4M5ndRI9b3LfV8JMKFV475LfZ8k3xFMpBr7B4sy9f6WAFNdKzXBxGAOp4SzsRqfXZQq5S8B9Shc92OrlcF9bZY1F0YDWww2LJhIVf/00mCvJTFS4+7lnq8s6OX56/csKbxhMJP/O4LxVI17lvp2ToAxa6VmUJP/O8JNiRqD3kYArAsFABtjpManl2Rc7N1VrBqf6c+qQ/X25tqlcA6Es7Gqd6z25bmrdzQHtqLxfpWbuqre3nTy2gCujQKADanuaimYSZy9fjgTq7qz2PMBgqlUtY/1ZwJer+qtLYWzxf67hjOxqre6nYBru1cVTLvbXgB8EAUAPTOhVXW3+z266sdXCj3xsLZn2f0nwki1O1cKfcranlX3S/BGqn+y2HEByMf11x2GULSzLVMd7KVrV2Oqdu3a/AKEc11VNrtZIn+/cDZWZUsxhyEqW7rOlv7fL9wcK5xzc3gFwAdRANCz6OaW6wjvqtxcTAGofrQ8Y5Kk6JZi8hT1PEWp3jJ8NwkCRhUFAD0JppK+3Oxno8KpJPddAk09c3bi37VUbuzmvizwnR/2KZPKTZ2B3/gIwNVRANCTsCTL5O+Vd7m8sqW3H8AZCCNVci6X9/rDPgNhpMqW8m1DgI8oAOhJZcDXx69HsClfpkFf879eectWacfFeQBAKVAA0BMz4BvJrEfem9sE0+Ubk7R2uCXX35d1XJNcDgiUAQUAPQkGdM/6XgRj+TIFjZJOlIwLQB9RANATUynfl3feTKboX/orSN4f0hnVcQEoBgUAPbGmbGeVAQA2ggKAnpikfAXApvky5f37frE5D5WP6rgAFIMCgJ5knfJNKradbzO27fX/5OogMS4A/cQnET3JVss3qeTNlC2Xb0ySlK1U8v19SceV5hwXgGJQANCT7FL5vrzTnJnSxfKNScqfq6zjyi6WMxfgGwoAepKej1xH+IDsQr5M6dlqQUmKlTdXerZ875VU3lyAbygA6ElyPirXyWWJUXouZwFYrMg2y7VcbttBASsAkbJWuT7ithUovUQBAMqgXN8OKL/EKH2rPHvMydvV/IXESvHJWjGBChKfqEt5L5e3UnKyXkieonSLGBeAQlAA0LPusYbrCO8qKkv3jYZUkhvnWWvUPV7MxN091pBKcj8gmxolJdp2AN9RANCz9FykrAQnmKWLUe7l/3fYTqDu8XJMTvHxWmGHJGwrUHyiHONK3qwr4xJAoDT4NGJDOi9OuI6g7u/Gi32+l8edX6NuY6Pu0WLH1XlpTLbreFztQO2Xx5xmAHAlCgA2JDkXKT7l7rh5fKqmpOCzyW1i1HnBbbHp/HZCtlPsx9J2A3VeLLZU9Kr9mwkp5usGKBM+kdiwzm8mZR2cZZ61AnV+M9mX544XaorfcLNkHp+srZ3814/nPlFXfMrNCYHd18eUnC7XSZYAKADIwcZGrcPTg70sMJXaz0zLxv17zfZvJ5QsDHbCSi9W1O5TqXlH59cTA7+PQ/JW1fnqA4CrowAgl3SxovbhqcGcQZ+sFY6033eSs1LrV5NKTg/mcsf0YqTWL2akPv/Qkk2NWk9PK704mBIQL9TUemZqKC77a3XXvwF3k8FdLlLWXBgNFADklpypqvnLmb6eaGa7Rs2np5WcGdA9CDKj1jPT6r7e38MByVtVtZ7q74rGe9nYqPXUtJI+38uh+/qY2s9OSVmJbhp1HW9daq77sRdWu31McqWy5sJooACgEOm5SM2fzii9UPzeeXqhouZPNxV2yd+62bWT8lqHp4u/OiCTOi+Prz33gH9i2V5eSem8PF74PQJsO1h77t+OD8We/zt++fdn1v3Yl05d7GOSK5U1F0YDBQCFyZqhmk9uWjuTvZt/UrPdtbPym09uUubwVr3J6apWDm1S9/VGIec7pOcirT6xSd1XxtxNklbqvjKm1Sc2KSmgWNnUKH6joZVDmwZ26KRIjz17XBdWOh/6OGutHj9yYgCJ1pQ1F0YDBQDFslL39YZWfnyDOr8b39BP0mbLFXV+N67VH9+wdoe+MuxJxoE6v53Q6t/MqvPKWO836rFrRaL51LSafzejbNn9jZSktX/r1t/NqPnU9NrE3eO/tW0F6rwyptW/mVX7heG91G+1k+ivHn1OZ5fb13yMtVb/7olX9MrpS97nwmgYjgN0BVtYWCjDlNKzr3zvBdcRNiScThTOxQpmYwXjqYKxVCZcewtsapQ1Q9mVUOnFSOnZKPfP+w6EkcKZROHmrsJNicxEqqDxzriMbGyUNQNlyxWlZ6tKzkSFX9/fD6aWKdzSVWUuVjCZKBjLZCIrya69V6133qvK5fcqKkdBK8h4raKH9u7Q/bffqG2z4zLGaLHZ0YsnL+rxIyecTbJlzXU13/nSHtcRNmR+ft67+dC7AUsUAADoFwrA8Cj/LgkAACgcBQAAAA9RAAAA8BAFAAAAD1EAAADwEAUAAAAPUQAAAPAQBQAAAA9RAAAA8BAFAAAAD1EAAADwEAUAAAAPUQAAAPAQBQAAAA9RAAAA8BAFAAAAD1EAAADwEAUAAAAPUQAAAPAQBQAAAA9RAAAA8BAFAAAAD1EAhshYNXQdAQCuqRExpQwT3q0hsvOGhusIAHBNuzaPuY6AHlAAhsiDuze7jgAA1/TF3XOuI6AHFIAhcte2Kd27a8Z1DAD4gPt2zehT2yZdx0APKABD5suf3U4JAFAq9+6a0b/47HbXMdAj4zqACwsLC9Z1hryeP7WkQ0fP6fj5lprd1HUcAJ4Zq4baeUNDD+7erLu2TbmOk9v8/Lx386F3A5ZGowDgD/76r/+6p8f/5V/+ZZ+SwCW2A+ThYwHgEAAAAB6iAAAA4CEKAAAAHqIAAADgIQoAAAAeogAAAOAhCgAAAB6iAAAA4CEKAAAAHqIAAADgIQoAAAAeogAAAOAhCgAAAB6iAAAA4CEKAAAAHqIAAADgIQoAAAAeogAAAOAhCgAAAB6iAAAA4CEKAAAAHqIAAADgIQoAAAAeogAAAOAhCgAAAB6iAAAA4CEKAAAAHqIAAADgIeM6gAsLCwvWdYa8nj+1pENHz+n4+Zaa3dR1HACeGauG2nlDQw/u3qy7tk25jpPb/Py8d/OhdwOWhrsAJJnVd586qcPHF11HAQBJ0r27ZvTlz25XJRjeKcXHAsAhgCHz3V8w+QMol8PHFvXdX5x0HQM9ogAMkedPLenwMSZ/AOVz+Niinj+15DoGekABGCKHXj7nOgIAXNOho3xHDRMKwBA5fqHlOgIAXNOxc03XEdADCsAQ4Wx/AGXWijPXEdADCgAAAB6iAAAA4CEKAAAAHqIAAADgIQoAAAAeogAAAOAhCgAAAB6iAAAA4CEKAAAAHqIAAADgIQoAAAAeogAAAOAhCgAAAB6iAAAA4CEKAAAAHqIAAADgIQoAAAAeogAAAOAhCgAAAB6iAAAA4CEKAAAAHqIAAADgoYrrAABQJvfdukUP7d2h27dOKwyMFi429fRrZ/TYs8e12knIhZFBAUB/BVbh5liVG2IF04mC8VSmnslUrCTJJka2HShbDZVdqig5Hyk9F0mZcRz8+kxoFc7FCmffM67a2risjJRIthkqWwnXxnS2qmw5dB37QwVTyR/er4lUZiyVKpKRXXuvOn94r9ILkZJzkZSU+71arygM9Bf/+E498PGtV/z3W7ZM6pYtk/rv9mzTXz36nI6dXSYXRsJofHJ7tLCwYF1n2IivfO8F1xHWLZhKVf1oU9F8V4qy3v44DhQvVNV9raFsuVwdNZzrqrqzrcqNXanS22aULYWK32woPl6XTcvz0TOhVbSzrejmloKptLc/ToySt6vqHmusFbch9q//yR49cMfW6z7m7HJb/+q7Tw10j7usua7lO1/a4zrChszPz5fnQzkg5fp2xdALxlLVPrmiytbuxp8kyhTd3FZ0c1vxQk3dF8eVNd3uPVfmYlU/saJwZuNfsMHU2r9N9WNNdY6OKT7WkFxWUSNFu1qq7W7KVHssae+oWFU+0lHlIx1lixW1fzeu9Gy12JwDcN+tWz50kpWkucm6Htq7Q//+l28MIFV5c2E0cBIgChPtamn8wQv5Jv/3P+d8R+MPXlC0s1XYc/bCRFaNzyypcf9irsn/iuesZqrvWdHY5xcVTPS4x12QYCLV+Ocvqr5nZeOT//ufcybR2P2XVP/0kkw0XItsD929Y92Pvf/2G/uY5EplzYXRQAFAbsZY1e9eUv1TK1I/dtRDqX7Xiup7l2XM4CaWcCZZKzQf6fTp+WONPXBRlZuKK0zrUbmpq7EHLiooqNC8X7Sto/F/dKGwwjQIt980ve7Hbpsd72OSK5U1F0YDBQC5GGNVv3dJ0fb+TJLvFe1oq37v0kBKQGVLV43PLcrUi9k7vhZTsWrce0nR9nZfX+cd0fa2GvdeevckzH4xjUyNzy2qsmWw5WajxmvrPxpaiwZ3OKqsuTAaKADIpbZ3eaB7sJWbuqr90UpfXyPcHK9NkuGAVhuMVN+7XOihk6uJ5juq710e2Km/JlwrN+HmeDAvCKAnFABsWHVXeyB7/u8X7Wj37ZwA08jUuOdSfw5lXPeFpfqnlxRM9WfZPJhIBzr5vyvUWpkad3OuA4BrowBgQ4KxVLU73V13XP/kioKxgicVIzXuWZKpujmBzYRWjU8Xf4jDGLtWavq87H/N14+sGncveXrRMVBeFABsSPXO1cHvJb9XKNXuXC30KaNdLYWb3C5XB1OpoluLXd2IbtvA9f0FC2cTVW9xcyUHgKujAKBnwWSiaH7wS//vV5nvKJgs6NK8ilXtY81Cniuv6u3N3m+edA0msqreVpJxfazpbBUCwAdRANCzasF7qHkUlSXa1ZKp9feM//UykVV1VzFXBUS7WqW5Jt9UM1V3lWfbAXxHAUBvgrU977KI5rtSkH+Ci3aUZ0ySVL25oAIwoMsL1ysqaFwA8qMAoCfh5m5p9iglSVGmyg35jtsH00lhhxKKYsZTBdP5MoUziYLJcp19H0ykCnOOC0AxKADoSZhzsu2HvNeZV7aUb0ySct9EJ5wr57jKmgvwDQUAPSnj3lveM9xdn/l/LcGmnCsAJR1XWXMBvqEAoCeufrzmevJmKtsy+TtGdVympLkA31AA0JOgVqLj/5eZer4JJe/f90vAuAD0EQUAPbElvI477z37B3bP/x6Z9f8OzNX/fkTHBaAYFAAAADxEAUBPTFK+G7rbNF+mvH/fLzbn+ZajOi4AxaAAoCdZu3yTim3n24xtq5wfg6yd78cWSjuuFr9bD5RBOb8hUFrZavm+vLOVfAeV05x/3y92Od+/dWnHtVK+bQjwEQUAPUkvlW9SyZbyTSjZxaigJMVKF/P9W5d1XElJcwG+oQCgJ+n58n15p+fyZUrOlG9MkpScqeb6+/RsOceVlfTfG/ANBQA9Sc9VZeMSnQcQB0pylpLsUkXZcrlWNuxqqCznaku6WFGW8zBC0bKVUOlSuf6tAV9RANCbTEoWaq5TvCteqEpZ/kISnyjPmCSpe7xeyPPEJ4t5nqLEb5YrD+AzCgB61n2t4TrCu4rKEh9ryHbK8XGwsSmuABxrlGbFxnYDdY+VZ9sBfFeObzwMlWy5UopVgGShVtjSvU2Muq+OFfJceXVfHZPiYj6aNi7RuI6OSSW8jwTgKwoANqTz4rjk8pbu6eUMBeq+0VDq+Az1dKmiuOAVlvi1hvPj7umFCnv/QMlQALAhWTNU+8UJZ6/feXFSWbPgE9ys1HpmSrbrZi/VJkbtX03K2mJf31qj9jNTso72vm1s1HpuSirnTxMA3qIAYMPiYw3FJwZ/Uld8oq7usf68rm0Faj8zPfjVDSu1n5tU1qc99WwlVPu5ycFPwolR6/C0bAlvIAX4jgKAXDq/nlDyVr7r1XuRvFVV59f9XXlIzkVrk9ag7qVvpdaRSSWn+3teRXK6pvaRwZUAmxq1npnKfZ8GAP1BAUAu1hq1D08NZCUgPlFX+/BU4UvkV5Ocqar15Ez/76d/eQ85GdDlevHJulqHp/t+Ml7WCtR6cib3zYwGZbWz/l8oaseDWx4qay6MBgoAcrPWqH1kUu3nJ/qzdJ5Knd9Mqn2k+OPj133ZxYpW/3ZW8an+7Jmni5FWntg00BUUaW0VZeWJTUoX+7NnHp+qqfm3s7lvZTxIr56+tO7H/v7Cah+TXKmsuTAaKAAoTHy8odVDs4VeIpgs1LR6aLZvx/w/jI2N2r+aUvOp6cImTNs16vxmUs2fzTg7Nm5XQzV/NqPObyYLO+kxXYzU/LsZtX81VZp7D6zX40dOrPuxT736dh+TXKmsuTAahqeiYyhkzVCtZ6YUTCaq3tpSZb4jE/V20NnGRslCTd3XG307Ka5X6dmqmj+tKtwcq7qrpcqNXanS27iypVDx8Ya6J+rluB7eSt1jdcUnaop2thXd3FIw1eMSTmKUvF1V91hjqI/1P/3aGf30pdN64I6t133c2aV2T5NyXmXNhdFQjm9XjJxsuaL2ryel30yockOscHOsYCpVMJHK1NM/bHmJZNuhspVQ2VKo9Fyk5HxVypzGv6b0XKTWuUiq2LVxzcYKphMF46lMPZMqkrFWNgmUNQPZ1VDphUjJmah0vzfwDpsadV9vqPt6Q8FkqsqWrsLZWGY8VTCWyVQyWWMuv1eBssu/U5BeiNZ+h6EMZaYAD//oRUm65mR7fqWjfd8/0tNx+SKUNReG32h8cnu0sLAwlFckf+V7L7iOAIy8+27doof27tDtW6cVBkYLF5t6+rUzeuzZ404n2bLmer/vfGmP6wgbMj8/7918WM5dEgBw5OnXzujp1864jvEBZc2F4cVJgAAAeIgCAACAhygAAAB4iAIAAICHKAAAAHiIAgAAgIcoAAAAeIgCAACAhygAAAB4iAIAAICHKAAAAHiIAgAAgIcoAAAAeIgCAACAhygAAAB4iAIAAICHKAAAAHiIAgAAgIcoAAAAeIgCAACAhygAAAB4iAIAAICHKABDZKwauo4AANfUiJhShgnv1hDZeUPDdQQAuKZdm8dcR0APKABD5MHdm11HAIBr+uLuOdcR0AMKwBC5a9uU7t014zoGAHzAfbtm9Kltk65joAcUgCHz5c9upwQAKJV7d83oX3x2u+sY6JFxHcCFhYUF6zpDXs+fWtKho+d0/HxLzW7qOg4Az4xVQ+28oaEHd2/WXdumXMfJbX5+3rv50LsBS6NRAAAAxfGxAHAIAAAAD1EAAADwEAUAAAAPUQAAAPAQBQAAAA9RAAAA8BAFAAAAD1EAAADwEAUAAAAPUQAAAPAQBQAAAA9RAAAA8BAFAAAAD1EAAADwEAUAAAAPUQAAAPAQBQAAAA9RAAAA8BAFAAAAD1EAAADwEAUAAAAPUQAAAPAQBQAAAA9RAAAA8BAFAAAAD1EAAADwEAUAAAAPUQAAAPBQxXUAbMzzp5Z06Og5HT/fUrObuo4DwDNj1VA7b2jowd2bdde2KddxsAHGdQAXFhYWrOsMG5VkVt996qQOH190HQUAJEn37prRlz+7XZVgeKeU+fn54Q2/QRwCGDLf/QWTP4ByOXxsUd/9xUnXMdAjCsAQef7Ukg4fY/IHUD6Hjy3q+VNLrmOgBxSAIXLo5XOuIwDANR06ynfUMKEADJHjF1quIwDANR0713QdAT2gAAwRzvYHUGatOHMdAT2gAAAA4CEKAAAAHqIAAADgIQoAAAAeogAAAOAhCgAAAB6iAAAA4CEKAAAAHqIAAADgIQoAAAAeogAAAOAhCgAAAB6iAAAA4CEKAAAAHqIAAADgIQoAAAAeogAAAOAhCgAAAB6iAAAA4CEKAAAAHqIAAADgIQoAAAAeqrgOgNEXziQK57oKNiUKJlIFjVQmtJIkmxplrVDZSqjsYkXJmaqyS0OwWZo/jCucSRRMJDKNTCa0ssZIiWQ7wdq4lipKzkVKz1el1HXw6zP1TJW5rsLNsYKpRMF4KlORJCubGtlWoGylonSxovRsVeliRbKuUxfrvlu36KG9O3T71mmFgdHCxaaefu2MHnv2uFY7CbkwMozrAC4sLCwM5VfWV773gusI61exqu5qKbq5rWCit1kvWwkVv1lX91hDSsq1iZp6puqulio72goaWU9/axOj+GRN8RsNZcvlKjnhXFfVj7ZUubHb07eCbYaKT9bUPdaQbQ/3gmIUBvqLf3ynHvj41qv+/wsrHf3Vo8/p2Nllcl3Hd760x3WEDZmfny/Xl80AeDdgiQLQV0aKdrVU270qU833z2y7Rt1XxtV9o+F8L9NEVtXdq4p2tt9dvdgwK8W/r6vz4rjzSTOYSlXbs6zK5jjX89jUKD5eV+fomBQPZxH41/9kjx644+qT7DvOLrf1r7771ED3uMua61ooAMNjOD+pKKVgLNXYP1xUfc9K7slfkkzVqvbJFY197qKCMXdr59F8R+NfvKDqR1v5J39prSRta2v8wQuqzHfyP98GM1Q/1tTYFy7mnvwlyYRW1Y+2NPHgRUWuxpTDfbdu+dBJVpLmJut6aO+OASRaU9ZcGA0UABQi3Bxr7IFFhZvyTyYfeO7ZRGMPLBYyUfXESLVPrqh+z5JMrbfl/nU9fWTVuGdJ1Y81C3/u66pYNe67pNrHV2VMsUsrpp6pfs+S6ntWhmp98aG71z953n/7jX1McqWy5sJooAAgt8qWrsb+eFGmWvwk+Q5TzdT440VVtnT79hpXvF5o1bjnkqofbfXPFaHtAAAPuElEQVT9tWofX1Vt92rfX0daKx1j9y+uHevvo+iWlhr3XCpmxWQAbr9pet2P3TY73sckVyprLowGCgByCWcS1e9dksJBvJjUuPeSwk19Ps5ppPqnl1XZOpiyIUnV3U1FO9r9fZFQatw3gH+/yypbu6p/ZmkoVgLGa+s/KbMWDWJjX1PWXBgNFABsmImsGvcOeC8vlOr3XJKJ+veatTtXVNk6+OPY9T0rCib7d65D464lhTcM9jBK5aauaneuDPQ1AawPBQAbVr9rWabHS+GKEDQy1T7Vn0ueovnOQJb9r6piVf+j5b7sMUc3t1XZ7ubkvOpHWwNdTQGwPhQAbEi4OVblI+7O9o62dVSZK3ZSMZFV7VNu91bD2bjwKwNMLVP9zsGcY3At9U8t93XVBkDvKADYkDIs61Y/UezZ89WPr/blbP9e1XYXO67ax5tS5HZcpp6pOqATHQGsDwUAPavMxQpn3N9wJJyJC7s00NQyVW92tPT/PsFkorCocTUyRTvKMa5oZ1tB3X3BArCGAoCeRTvLMaFIa3cdLEL1ltZgrmRYp2h7MVcEVG9pleZTbkJb2PsFIL+SfDVgaFSswpvKc0JX5cZu/qsQjBQ5OkHuWio39XZP/qsyUmVbny8t7FG0oz0UlwUCPqAAoCeVzXG5bu5SsbmXy8OZRMbhrYavxtQyBRP5DrOEM3HPP1jUb6aRKZwe8B0dAVwVBQA9CWfL9+Wd99r2sOCrCYoSzuYsAHPle6+k8uYCfEMBQE+Cafcn/71fMJV3T7l8Y5KU+weQSjuuAd2JEMD1UQDQk2C8XEvlUv5M/bz7Xh55f1GxrOMKcx7aAFAMCgB6EtRKdPz/MpPz0jJTL+dEmfeeBKUdF5cCAqVAAUBPbKWEBSDnSYmlOqnxPUzOf+vyjst1AgASBQA9Mrack8ooyhKulwPQPxQA9MQm5dtkbM6J0sblG5MkqZMvV1nHZWOKDVAG5fyGQGllrfJtMlkz3y38smb5xiRJWc4CUNpxlTQX4Bs+ieiJXSnR/XIvy3JmypbKeVDa5ixbZR1XtlzOXIBvKADoSXI+ch3hA7IL+TKl58o3JklKL+SbKNMSvleSlJ6tuo4AQBQA9KiMk2WSc0JJzlalkp3baNuBspV8BSB5u3zjkpWSM+XbhgAfUQDQk2ypomypPIcB0qWKsuV8eWw7WJssS6SIydt2Sjiut2qyOc9tAFAMPonoWfxmw3WEdyXH64U8T/f18oxJkuKTxYwrfqNc4+q+Ucy4AORHAUDP4uN12a77S7lsJ1D3RDETSnq2qqQkhzey5Uphh1qSM1WlOc+RKEp6LuL4P1AiFAD0zKZG3aPjrmOoc3RMKvBmOZ0XJmWt+2LTOTpW7PO9MO7+XAArtX874TgEgPeiAGBDuscaShfd7Vmmi5Hi48Uub2dLoboFT769Ss9HSn5fK/Y5FyN1X3N7KKBzdFzZJS7/A8qEAoCNsVL7V5O578K3IYlR69nJvuzVdl8dc3fiXGLUfr4/e8ndl8adHQpI3qqq+6rbYgXggygA2LBsJVT72anBLi9bqfXcpOxqn65EsFLr2SmlFwc/WbZfmOjbTXKsNWo9PZ37iolepRcrav1qwNsIgHWhACCX5O2q2kf6szf+AVZqHZlUcrrYJfIPSIxav5ge6B5z5+VxxQWd0HgttmvU/MVM7jsnrld6IVLrFzOFnqcBoDgUAOQWn6yr9cx0Xw8H2MSo9cyUkoIuj/vQ14uNWk9NKz7V/9frvDSu7iuDWSK3rUDNJ2f6Xm7ikzW1npoemh/+We0k635sO077mORKZc2F0UABQCGS01U1f7apLzcJSpcqav5spv97/u9jU6P2rybXVjj68Mt6thuo9czUwI+P206g1pPT6v59o/CVGxsbtY9Mqv3clGw6HJO/JL16+tK6H/v7C6t9THKlsubCaKAAoDDZcqjmE5vU+d14IROmjY06vxtX64kZpz8gE5+oa+Unm9auOsgKeEK7toe8emiTkoXBlpp3I1ijzu8m1PxZQasBmdQ9VtfqT2b7fiijHx4/cmLdj33q1bf7mORKZc2F0cB1OSiUtUbdvx9TfLyhaFdL0Y62goneliazlVDxibriY43SLCHbTqD28xPqvjK2Nq7tbZlGb23AxkbxqZriNxql+UW8dDFS8+czqmzpKrqlpcqNXamHf/KsFSg5WVf3WCP3rxe69PRrZ/TTl07rgTu2XvdxZ5faPU3KeZU1F0ZDOb6FMHJsbNR9dUzdV8cUziQK57oKNiUKJlIFjVQmXFt7tqlR1gqVrYTKLlaUnKmW+nrxrBWo89K4Oi+PvzuucCZRMJHINLIrxmXbobLVQNlSRenZqtILldIuiydnqkrOVGXqmSpzXYWbYwVTiYKxTCaykuy775VdCZUuXh7TYmVkzvB/+EcvStI1J9vzKx3t+/6Rno7LF6GsuTD8yvlt1GcLCwtD+ZX1le+94DoCMPLuu3WLHtq7Q7dvnVYYGC1cbOrp187osWePO51ky5rr/b7zpT2uI2zI/Py8d/NheXe1AMCBp187o6dfO+M6xgeUNReG1/AetAMAABtGAQAAwEMUAAAAPEQBAADAQxQAAAA8RAEAAMBDFAAAADxEAQAAwEMUAAAAPEQBAADAQxQAAAA8RAEAAMBDFAAAADxEAQAAwEMUAAAAPEQBAADAQxQAAAA8RAEAAMBDFAAAADxEAQAAwEMUAAAAPEQBGCL1iLcLQHnVo9B1BPSAGWWIbB6vuo4AANc0NxG5joAeUACGyN4d064jAMA1/dF2vqOGCQVgiPzJHXOaGaNhAyifmUZFf3LHnOsY6AEFYIg0okB/8eAuzVICAJTI7Hikv/jiLWpwntJQMa4DuLCwsGBdZ8ijFWc6dPScnjtxSW8tddRNMteRAHimWgl001RNd++Y1oO7Nw/95D8/P+/dfOjdgKXhLwAAgGL5WACGu7IBAIANoQAAAOAhCgAAAB6iAAAA4CEKAAAAHqIAAADgIQoAAAAeogAAAOAhCgAAAB6iAAAA4CEKAAAAHqIAAADgIQoAAAAeogAAAOAhCgAAAB6iAAAA4CEKAAAAHqIAAADgIQoAAAAeogAAAOAhCgAAAB6iAAAA4CEKAAAAHqIAAADgIQoAAAAeogAAAOAhCgAAAB6iAAAA4CEKAAAAHqIAAADgIQoAAAAeogAAAOAhCgAAAB6iAAAA4CEKAAAAHqIAAADgIQoAAAAeogAAAOAhCgAAAB6iAAAA4CFfC8CK6wAAgNJYch3ABV8LwO9dBwAAlMZp1wFc8LUA/J3rAACA0vi56wAu+FoA/j/XAQAApfEfXAdwwbgO4MrCwsITkh5wnQMA4NST8/Pz/9B1CBd8XQGQpP9F0qLrEAAAZxattf/SdQhXvC0A8/PzR40x/1zSJddZAAADt2iM+ecf+chHXnEdxBVvC4Akbd269QlJ94mTAgHAJ09aa++7PAd4y9tzAN5vYWHhTyT9qaR/IGm7pHG3iQAABVmVdFJrO3uPzs/P/9hxnlKgAJTAV7/6Ves6gy+stV8/cODA/+Y6B8rnq1/96tcl/a+uc/hi//79zD+OeX0IAP6x1v5H1xlQTsYYtg14hQIAb1hrfz83N3fYdQ6U0ze/+c1fSjrlOgcwKBQAeMMY89i+ffsy1zlQWlbSf3IdAhgUCgC8wRIvPgyHiOATCgB8cW52dvZJ1yFQbm+//fbPJJ11nQMYBAoAfPGDffv2Ja5DoNweffTR1BjzQ9c5gEGgAMALLO2iB2wr8AIFAD64tHnz5kOuQ2A4tNvtv5F00XUOoN8oABh5xpjH9+3b13WdA8Ph4MGDsaT/4joH0G8UAPiAJV30im0GI48CgFHXrFar3PcbPel0Ov9Va/ePB0YWBQAjzRjzo69//et8kaMnBw8ebEr6b65zAP1EAcBIy7KMpVxsFNsORhoFAKOs0+12/7PrEBhOjUbjh5LarnMA/UIBwCj7ycGDBy+5DoHh9LWvfW3ZWvu3rnMA/UIBwChjCRd5sQ1hZFEAMKpSSY+7DoHhZq39gSRuIY2RRAHAqPrp/v37+VEX5PKtb33rvKSfu84B9AMFACOJe/+jKPyMNEYVBQCjKJP0A9chMBqSJPm+1rYpYKRQADCKfnngwIEF1yEwGr797W+/Jelp1zmAolEAMHJYskUfsE1h5FAAMHLCMGT5H4UKw/D7kqzrHECRKAAYNUcefvjhN1yHwGh55JFHjkt63nUOoEgUAIwUlv/RR2xbGCkUAIyUIAj4kkZfBEHwqOsMQJEoABglLz3yyCMvuw6B0fSNb3zjFWst2xdGBgUAI8MY833XGTDa2MYwSigAGBks/2MA2MYwMigAGBXHH3nkEc7SRl/t37//19ZarjLBSKAAYCRYa/+D6wzwgzHmMdcZgCJQADAS+PEfDAqXmmJUUAAw9Ky1v5+bmzvsOgf88M1vfvOXkk65zgHkRQHA0DPGPLZv3z5+rQ2DYiX9J9chgLwoABh6LMli0DjkhFFAAcCwOzc7O/uk6xDwy9tvv/0zSWdd5wDyoABg2P1g3759iesQ8Mujjz6aGmN+6DoHkAcFAEONpVg4xLaHoUYBwDC7tHnz5kOuQ8BP7Xb7byRddJ0D2CgKAIaWMebxffv2dV3ngJ8OHjwYS/ovrnMAG0UBwDBjCRausQ1iaFEAMKya1Wr1x65DwG+dTue/Slp1nQPYCAoAhpIx5kdf//rX+eKFUwcPHmxK+m+ucwAbQQHAUMqyjKVXlAXbIoYSBQDDqNPtdv+z6xCAJDUajR9KarvOAfSKAoBh9JODBw9ech0CkKSvfe1ry9bav3WdA+gVBQDDiCVXlA3bJIYOBQDDJpX0uOsQwHtZa38giVtSY6hQADBsfrp//35+hAWl8q1vfeu8pJ+7zgH0ggKAocK9/1FW/Cw1hg0FAMMkk/QD1yGAq0mS5Pta20aBoUABwDD55YEDBxZchwCu5tvf/vZbkp52nQNYLwoAhgZLrBgCbKMYGhQADI0wDFn+R6mFYfh9SdZ1DmA9KAAYFkcefvjhN1yHAK7nkUceOS7pedc5gPWgAJQDd7X7ECz/Y4iwrX64RdcBQAEoBWPMM64zlF0QBHypYihcPgyA6zDGPOs6AygApZBl2QHXGUpu4ZFHHnnZdQhgPS5vq1ytch3W2v2uM4ACUAoHDhz4oTHm/3Wdo8T+resAQI/YZq/t/9m/fz+38y4BCkBJWGu/TAn4gFTSv9m/f/83XAcBenF5m/03WtuGcdnl77ivuM6BNcZ1AFzpz/7sz/5pEAR/Zq29R9K06zyOXDLG/MQY83984xvfeMF1GGCj/vzP/3yPtfZ/t9Z+UX5/np/JsuzAgQMHfug6DP7g/wcWgoHsoP28wgAAAABJRU5ErkJggg==;" vertex="1" parent="1">
          <mxGeometry x="355" y="350" width="20" height="20" as="geometry" />
        </mxCell>
        <mxCell id="lmG2QonkjUvl6BErKhpc-32" value="&lt;font color=&quot;#ffffff&quot;&gt;DomÃ­nio&lt;/font&gt;" style="text;html=1;align=center;verticalAlign=middle;resizable=0;points=[];autosize=1;strokeColor=none;fillColor=none;" vertex="1" parent="1">
          <mxGeometry x="330" y="363" width="70" height="30" as="geometry" />
        </mxCell>
        <mxCell id="lmG2QonkjUvl6BErKhpc-33" value="Arvore" style="ellipse;whiteSpace=wrap;html=1;fillColor=#6d8764;strokeColor=#3A5431;fontColor=#ffffff;" vertex="1" parent="1">
          <mxGeometry x="300" y="333" width="40" height="40" as="geometry" />
        </mxCell>
        <mxCell id="lmG2QonkjUvl6BErKhpc-34" value="" style="triangle;whiteSpace=wrap;html=1;rotation=-90;rounded=1;fillColor=#0050ef;fontColor=#ffffff;strokeColor=#001DBC;" vertex="1" parent="1">
          <mxGeometry x="435" y="255" width="120" height="150" as="geometry" />
        </mxCell>
        <mxCell id="lmG2QonkjUvl6BErKhpc-53" style="rounded=0;orthogonalLoop=1;jettySize=auto;html=1;exitX=1;exitY=0;exitDx=0;exitDy=0;entryX=0;entryY=0.156;entryDx=0;entryDy=0;dashed=1;entryPerimeter=0;endArrow=none;endFill=0;" edge="1" parent="1" source="lmG2QonkjUvl6BErKhpc-44" target="lmG2QonkjUvl6BErKhpc-51">
          <mxGeometry relative="1" as="geometry" />
        </mxCell>
        <mxCell id="lmG2QonkjUvl6BErKhpc-54" style="rounded=0;orthogonalLoop=1;jettySize=auto;html=1;exitX=1;exitY=1;exitDx=0;exitDy=0;entryX=0.442;entryY=0.995;entryDx=0;entryDy=0;entryPerimeter=0;endArrow=none;endFill=0;dashed=1;" edge="1" parent="1" source="lmG2QonkjUvl6BErKhpc-44" target="lmG2QonkjUvl6BErKhpc-49">
          <mxGeometry relative="1" as="geometry" />
        </mxCell>
        <mxCell id="lmG2QonkjUvl6BErKhpc-44" value="OU" style="ellipse;whiteSpace=wrap;html=1;fillColor=#f8ff91;strokeColor=none;strokeWidth=0;" vertex="1" parent="1">
          <mxGeometry x="477.5" y="300" width="35" height="33" as="geometry" />
        </mxCell>
        <mxCell id="lmG2QonkjUvl6BErKhpc-45" value="OU" style="ellipse;whiteSpace=wrap;html=1;fillColor=#F8FF91;strokeColor=none;strokeWidth=0;" vertex="1" parent="1">
          <mxGeometry x="455" y="343.5" width="35" height="33" as="geometry" />
        </mxCell>
        <mxCell id="lmG2QonkjUvl6BErKhpc-46" value="OU" style="ellipse;whiteSpace=wrap;html=1;fillColor=#F8FF91;strokeColor=none;strokeWidth=0;" vertex="1" parent="1">
          <mxGeometry x="500" y="343.5" width="35" height="33" as="geometry" />
        </mxCell>
        <mxCell id="lmG2QonkjUvl6BErKhpc-49" value="" style="ellipse;whiteSpace=wrap;html=1;fillColor=#f8ff91;strokeColor=none;gradientColor=none;" vertex="1" parent="1">
          <mxGeometry x="540" y="243" width="90" height="83" as="geometry" />
        </mxCell>
        <mxCell id="lmG2QonkjUvl6BErKhpc-50" value="" style="shape=image;verticalLabelPosition=bottom;labelBackgroundColor=default;verticalAlign=top;aspect=fixed;imageAspect=0;image=data:image/png,iVBORw0KGgoAAAANSUhEUgAAAJIAAACaCAYAAABCKBHjAAAAAXNSR0IArs4c6QAAAARnQU1BAACxjwv8YQUAAAAJcEhZcwAAFxEAABcRAcom8z8AACTkSURBVHhe7X0HdJNnmi47c2Zn7s7m3N07Z865c2fb3bvlTNpOkplMdnYzmZmEhGCwLdl0DBhwUXOhBxIICRAItjGmdxJKgIRiS24hhGY6AQcXerPlbrnI6rL13vf9/k9Gln/ZsuNYsv0/Oc9RsCT7/77v0Vu//9MwCRIkSJAgQYIECRK6w8F3In++dWLYr7dPlYdvmSybkyGTvZc6KnxxOj7uiJLP3hkVEbZtYvhLu+LC/qn40Ji/5m+TIGHYsCMLwn+2dbJsSoZcvndNmLwkdbTclR4yBsS4Brk2NALSwmQV6eHyCxnh8s/Wj5WvXj9OPm1fbPh/7lOE/C3AmB/yXy1hKGCfQv7PG8bKl6eHRjxaMyoS1oeOhzUjx8DqERFIOXwsQvo5PZ/6diSkjxwL60aPhw1h4yAtJAJSRsptaaPDa9bJw09sjIxYtmm8LPLQ/DH/wP+chMGGk7te+8mmcbI56aFyPYknjYtHTDj+kt6fguJKHYkCCxkL61FgGaFowUZHPE4PD8/cGRU58ZByzP/mlyBhoGP3lIhn1sllX2WMHsusj5go+ookLvoba0eNBfp7GeGRdzaMky8+nCT7Bb8cCQMR26bJhmeERT5aN2rcd7ZAvSGJal3oOMBruLN1SsQEflkSBhI2TwyXo5tpIbcjtsj9SbqG9NEYk40NXw2HpMB8wGDzlIg3M0IjmynjElvYQJDiqfVh41FMYen8MiUEM3ZEhz6NWVllMFgib6a8HYGx0xjYNiliMr9cCcGI/E+H/xQzpoIMjInEFjIYmB4yDtaEyh4c1ET+nF+2hGDD+kjZ0vUY3IotYLCQ6lKU0W2aIIvjly0hmPDJ9NAXMKA1UuFQbAGDietGo1UKk2kBhv0Fv3wJwYK1MtkhWiCxhQs2UlkgbbTs1vEF4T/jly8hGLB1Wtir6aMj7JQZeS9aMJKsZtoomWH79Mh/50OQEAxYK5ftHyjWiMgq4GEyxx6V7EU+BAmBxkFl5L+kjpQPiNjIzZQRkSgkuXn3jIjn+TAkBBoZkfJ51IYQW7BgZdrbYyA1RFa2JUraKRAUuLol9kfpYbKCtUFYfOyK6RhsrwmVFxZsD32KD0VCILFjUuTTKSNlDqoYiy1YsJK2nKTLZMf4MCQEGhvHR6jSR9HeIvEFC1ZmYGKwYVz4Yj4MCYEGurUBla0xvkUMbdkzTcrYggLH5oY+lTZKfj0Ym7O+uOL10bA+bAJkLnr3CB+GhEBjE8ZHqaPkxoFQhFz1Zjh8+NrbkIJuuGT/AbDfv5MNAD/gQ5EQSGwcK3+Dmp9iCxcMXPWWDD56IxSW/XEkrBweBgeS5sH93DyASj1Yb5cWw/37/5MPRUIgsXm8TEN7o8UWsTekhV+JloOsB/3/x0SR14mRXu9+/4rXQ+HDP7wNy/8UAmvlk+Dw/Pfg5tFjYL5ZAo77d8F57w6YSosM5tvXf8mHIiGQSJNFLOtLIa0eGQEpIZHtlmT5n0ahOxrJREGPZFmW/TGkne7n6OcU+6wcHo6/IxK2RMXAsUVL4dKO3VBx5gxY79wC+4O7YLlVigIqRmt0E4wlRS57aemzfCgSAok1obItfSWkZWg9dsclgP70KSj54gic37Idjn+cBlmLl8HncxbCgcR5sE8zG/Yok2GPIhn2qWaznx2e9y5kf/ARnM7YCNf3HYDHJ74GwzdXwYJiaX10H2x3bzNLRAJyE90aWFFU1pIbb/ChSAgk1kXIjvaVkMi6HFmwGFzljygQBgdaEMeDe+B8eB//jdYEhUEiMBbfYDSVCJZFeM099np6n+3ebbRAN8F8q6N4PEmWyYECa7lZPJEPRUIgsS5SnttXQlr+51FwKn09E0SnxUeLQlbFjAIgEbjpbWn8Jb2vDQXYUlqUxIciIZDoKyEJMVEY3DqWyayK2OL3JUlI8OgBmEuK3udDkRBIrI+QH+kLIVGgvGn8dKi/fIkFxmKL35dkQip7RO5xDR+KhEAiPVS+uTshUfZF8c9HmJKLPU/8ADOv7A9WsliI3JjY4vc1QV8GLSU3dvGhSAgk0sNkXab/VM9ZP2YqfJY4FzaMn8Ysj/drPhoeBimYsj/Iy+8Xt+YmVJSTkA7xoUgIJLZO8l2QJNFsjYqB8pOnwHb/NlSePQs7Z6hYUO35ug9eHQE5ZI3u3el18NwbQkUZPR7lQ5EQSGyICH8zI1RcSFRMvLh1B7SVPWQZFj1SfYiKhqxqja+h3tfuGDWr+9j6ITbyJOgfo3CLdXwoEgKJHZNCn04bLTfS/mdPEa16Uwar8PHR8ePt7opqO42F12D7tHgmMoqdPolPhOrz5/vVpbkJ5Sik0uI8PhQJgUTBqtCnUkbJC+kUNU8hUSqfETEZqgoKWGXZvXhUPKSiI7U1KH4q3H8AWh8/7LDA/UUSUkuJJKSgAdvYFjreS0ihsHF8NNRcOI9CeuKyHA/vwVer1/DeWChc3/uZkKl5LHB/URBSUS4fhoRAY/M4eayw1fbJnm1K9TdNICFd6CikB3ehYNNWFnBTMH5tz/7ACYnS/9LibD4MCYHGJzPD/y01RG713NxGrm3dmClQdc7LtaFoLm7bBSv+PDoohGQqLcnkw5AQaNDpZ+jejq8NebJvmzKztNBxoD99mjVR3YtHQqKu/tL/ehOW/vebcHX33sAJqaKcHg/yYUgIBmwaJ09c51EGcG8we5j/ZYeMjNofd7Q6yH5/BWQvXQEP8Pn+aImIUXBtN7bzIUgIBuycFvb3KSEyQ9pIwb25N6aVfHG4k8Wh7SDCFhHaGiJsNOtvsl4bZosopNV8CBKCBRly+TY6SN0tJIqBLmzdETDX1RVJSK4H98BUUjKXX76EYMG2KeEvp46KsLnvuKWiY/6K1R1cW7DQvbHNVFIUxS9fQjAhXSY/7L5ZctlrI+Fg8gLWQ+uvjr6/pJ2VtNXWWFLyB37pEoIJO6dF/D59dAQrBZBF2jFdAU3fFrZvkw0W2jHAbykpslhv3fq//NIlBBvWyeWfUKxEwTa1ScpPnQIbu/1HfFEDQdpmayotKmm4elW6ry1YsW+a/F/TRsvr6dAtaoOUHjnKNueLLWigSJ1/S2nxF/ySJQQrNo2Vz6NYieKksxs2B13AzYRUfGPxsC3wI2Wm/RlNjuOVBJ3jpTitS7phMphwZ63mx2tCZWfShsvg8IL3hNuDgiTgtpQWsWvZ9LWhIjrTcVuptRlUOnsLPjarc5x6ldZ+UZPrfD9Oa/oPPhwJgQSdub16RKhh1zQFNN/4NmDFR2/abhZBZfEtWHCiDdTHARLyATR5wmPilwBJXwHMOok/y3Ua1Tn2TTMPm/+OD0lCoLB29IjYjRGToOz4V0IZQGRh+5ttd27A2bOPIO6wHZS5DkBrJEoS1uzTKKj81tL4o5ZX+ZAkBAqr3npr403awPbogejC9ifNN4vBcacI1meUQ9ScBlB+ZgFVnm8xqXQOSEbrpM51GBQ6q3R7dyAR+4thf3V9z+7stgf3Ax4nOe8Wwf3zt0A1uwai42sgdm6dH2KyQ/LXAKoce5Umx/Y0H5aEQKD5esFkJwa5VFEWW+D+Ytu9Iti74xFMVtRBTGItxKhQTAvqQfm5tVsxzToFoNDaTsdmwV/xYUnob1QUnJoHRYVgKbyKC1oUkJYJubQ7BTdBPQetkZoLiaisgbglDaDKRMHkdBZQO7OdMIssk9aWyIclob9Rcb7gQ8D4xHLpHJivXgITnSbSj2IyI223MTZar4dJ8R4i8hRTSjOoKPjOFhERZxJmefj4WKkzSd/cHQhUXzy/Em6XoJDOg/kiiunyBTAVXqPue78IylJ6A4x6PWzf3wyT42o6CykBqakFxQ4TqPK7Dr6pNKDKts3iQ5PQn2i6dGEV3C4FMwmpndw6FX0rLPj3JChzyQ1ovHsfahstUHzXAknv1EG0yktIRLUQL6mO2rp0cVRnQvf2rSbH9WM+PAn9hZaLZzfArRIvISHJOtHjN1fA3NeCwt9DImopKoKqqmbQ19nAYLTCvsNNEBUvIiQiBt/xa9DFdRF4q3Pb0CI52pRZ1tf58CT0Fwznz3wB1JrwFpKb7YK6DKYb1wWXx8XQI2F5vv5GIZivXIS6+3rQ19uhotYCtQ1WuPXADMmL6sWtkgbd3uw6UB7CLC5XXEjE2ZjBqbTWND48Cf2F+nOns6H4284C8iYTFBIFYL52RRAVO+bPS1jepOfoNWjVzIXfoMu8DJYLZ6GpqAQq6qxICxMSkazSzv2NECUWKxHRKsWtbkL35tsqJWLQrdTaSybnV/2UD1HC94kJcdf+dV5a9crHhfeqWq+hONyWpzvS69zEwNx85RKzVuZrV8F8HYXSTvw3Co49R+Jj7z+HIioA05XLUFXRiNbI1i4iYl2TBa7cMEFsUi3MwABbVEiLDYJofGRw6pw2FJLNpdQ5fseHKuH7gmp+mSp2Tn1N/nkAQ0sbGO4+xEW+wCxFJ+F0R09h+WL7a88zIdXfK2t3aZ6sqrdAJT6uTG+AKd6xEmVv+KjYjdlbF304yt6STqBVyrK8y4croa+xZcuWH6kWlG2MSTLDuu02zJZsuHhWtqg1j2vAeO0bLiaPxe9DMpd2oxhFgy6NsaOQ9DUWsNgdcPykhbm3mZ5ComCb3FqXIhJIlW5VlpW+hkL6lu6+Bk2q8p3Kber5DnQbDXD2UgvUNz9ZTBJTZZURGktv46KTC+qFdeqCFrRMJnSD1fqGTi7NzfIaMzjbWqGishVUc+tgOqb9TETu9P8IBdrdC4m2nKi0trKkXNMv+PAl9BU0C8tTNAvsuDgGmLWoDm7dN7P6TYfFxDScUnGyTs3ffouLX8AoJoyeklya4e4jUZdGJGtUhcF3mwslj1ie2ghTFVxImLEptndXkHxCdY4TEvLaKHv7Ix++hL5A4uLyGNV8CmIbYZqyBhYtr4f7ZWaoNnReULaobLHNLD1vuX6NWScSQm9dHr2/+dsbwu+nTM3r7xFJSA3NdkFFiM8zTTApFoWE1ihuFbq0405QfYlCojoSWSUqTPpqmWQLcZJCa5vHp0DCd4VaZ30j9p265vhkI/t0RytrYcHSerj7yAw1DZ0XtJ244MzdVZuYoIzXC5l7Yi7PM4DujvRazO6qy+t9WiMiCclqa+UyArhaaMOAG+MkzN5ilzRA3JpmiF9vZJZJsdci7ArIEhERJ20vUers0oGm3xXxx2z/rs5z7lYdtDnj5zWzfhUJidJq5Zw6KLpl6uzaxMgFVYHxS+2jalb/oXSeLBSzUt2IioRnuPOgWxHVGJ64NUJlVSskvVMP0WohRqLmLXuk7C1JGEtcGm/migiJ2iVKnbVo6kn4CZ8SCT3BmEPww/gsq0qV46iaVYBB5267MPk8fZ6Jj9PQKn152tgh2O6WbkHhY3VFA4rjIbNSJrQ2zPVRLOUlKvq5sbAQRWjy6dKI5SikphYHl5AAh8MFH3zcAFFolVic5KZ7LBg/xX3Y4FNItB1XmWVtStDapW9Z6inICql0jqO0pYIqvBScxq9Dl4aps+dikMvI2NYIdU1WqPSoLPtHFBQF5czCoHssr2MWh2Ig02W0VMz9nWEiMuO/a8rqurRGbtodbVxCT7Bxh48dAUQcU+wSg1DlFomVWMD9ZRsosmyj+fRI8AcYfI5X5zofUw2FJpFNKAkpFd0auQWPRaBeVuKCOii+gwG1P+7NJwUr5U7nqysaof5+GTSW3oKWa99Aw4Ny0BuhS2tEbq2uwQYu/M8bmTlmJnrPa28nCem9rqvcbOdklrStxC8kHm38G3W2c2NCXquLWSH3RNLkotmnjMdbSERaoD2fN4EB3VvPrZIIyfVxS6VvckHl7cdQkfoB6E8XQAWJqcEp+j6qHbWYnVw6HXHpipWVAMgde18/qy0tqseA2+ZTSGw/t862g0+VBF9QHLX8HlPdq8K9Xq6OE0mTiyly3MpGUSGRVUpAq1R0G7MydHFii9xrtqBwTp0B/VvPgF7+n6DfnA4Vlc1Q0Yw/93gdWaNKFKCztbM1Itx/6IDpGGzP8CUkDMaVXexREvYn2c/x6ZIgBqXWqkZX1ki35FB/qdNEMiH5tkhEakNs3NnbWMkHyY01u6BiQwro334e9KG/Af2IZ0E/LxYqSu4JIuPtEQqyDU1PakfeqKlthYT5VOHufO1MSAtQSEd8C0nYCWArn3vM9RSfNgluJB6Fv1HnOnbQp421AkQmsJ15KKTVvoVEpQDiyXNGtoWjkyh6w3oHVFQZQa+eAPpRLwgWSfaKIKYZoVBx8arg6vC1ZJEsHrUjbzQb22DRhwaYKnb9JKT5KKTDvoWUkMeEZFQdbXmOT58EQnym+RWlznaNgkhNTpvo5HUgBdvpGGy7Ww0inILPvfNBPTzSW1hdiWKWTuLoCUkkFy6Dfsx/gz7sZUFIbo78D9BP/DNUnDkH5U1tUF1vhTbP4pEXHA6Aj9Y0di4BEDVcSF/4FhJtKUFr7ZIyNw8oMu0zNLnOep+uTIwkpE0tQiHPeyE8SCn2jj1GjFVaocEopOrkdshidBJKl0SrZkIh7d6K8RFaIE8RIctH/wYqwl8Gy6WzgB6wQ0vEFzK2NMFkapV4X7c/Qsp2slaJKtsaz6dx6GLMIfhLnJSUhC9d3bsyb6JrU+w2CxMvFrByknuj7OjMeVxdBNV0GlscrNpMAiErRaLSdxKOFw0oQrJo82JAH/LrjkIK/x2UY8xkPLqX/Q0nejSns3PtyBtbdzfDxJiuhGRlsaDo+JFzzuCcae0f8ukcmliCIkJXtls0K/OH+EmlnhTtdXa3SHyRmrmK2bVw5/6TCnObywVWexs0mxxQR3uXeEBOwnKLq4OQ0F3prxRCeTjGRGh9PIVU9tZzYEhbjL+0e/F4Ys/BFpg4s3cWiUh7uNU6204+pUMTOBHrSETqnFbRSeqWlLlp7axw1517I1Is8s4HBqg3dA6AUVPQimk6BcckLMq23BaLWStkeWMb1Jw9C9VxMigf9SJaIIyJwn7L/r923gxoM2HK1kPQLgBR1+ZHsE2kWpJaZ89bAvADPq1DC4osazxlZhq6xUZkgvxmLsZJaRhwe7VJfJEWbXVGI1itvoNgN1oxUHage/IUl93mhDZDLdiKroLxwHaoVkZC2ZvPQu38mdDW3Mjf6T+ycs1M4J2KkiSkbupIRF4CuDY73zX0bgaIP9zyLFqTpg6V6t4SA27FLoyTyLV1ESe5SQs2MaYatn/aDK6eeSFR1L2nZJapHDO22jnR4Kwq58/4h7wTFvHqNglpYT2oMlFIPirbRNa81dn1quOun/HpHRpYsgR+oNRas9i+Y5GJ6TEpTsJPLX16Ka7osBg+SME3ZXJfHOu5K/KEpeArzNReYoE2i5PQMtXMngKtDfX8Fd3jxBkLi99EhbTIIOxJ6kJImjyMLbU2i1Jn+Uc+xUMD8cfMoQn5bejSehkXiRGzN9a89dO9EamaTP24vK/MfEl7BpfdztwZZWrtQbfsFSgb/jS0aA/wV3WPUwVWmIbX3UlI7qYtiagrIbHQwNaqyjK9yKd48CP2KvxIlWU7LdSKxCemV0QhKfdb2P1i/rg3N2nzPW0sO31OKAv0BOYzX0J5yIsoHsEauVk24jmoW5qI2ZvvirYnzp63sr6gmJDilvrej+SmUJREqzyUbuNWZVuHkyXyq2rdE9InlvpuKxp7ZJWItAmOHi9fs/Gl9Q/Gz3cxV+YpImJ52MtQMe41cOof8ld2jYKLXQhpeaMfQmplZwJgwB3Jp3nwA2OjfX0WG3mTrNJei7BNVcwq0c/QAnX6OZJ6XYrZdVBU2n0l2g3LmXxmfbyFRO6Ngm/j0T38lV3j7AUfQsJrZTcFdCskJwu4MZaayad5cEN5wvWPmF3UJ+b3ovDoL3PtOPki20ooo0MXRpvsY+diUC4iNOrJUSf+rkfBsivYir5h1scdaHuybMTzUPuugkrb/NW+IQhJPNjuas+2m9QmYdlv9hA5zU2ta50h9IW6npjvRJx0qnTHzvGodFPQmlwLio0tLI6KmYXPiVksJNVzZr9bD2X67gXgeHwfKqOGQzltI/ESUnnYb6FizKvgeHCLv9o3TmOw7UtI8RuMfgjJ4T436R0+1YMbap09U9jRJz4hfUbqv1Ejl2IltEy075kEpDrhhHgUky/35ibtYVq0zAC1dV0Hy62NBlaMLA/hW0m8xfTWcxhH7eSv9o0Tp32n/+ymSRyP6DjdRCEl0wd0KPTbVMdc/0eZZdP3uCnbG/JUOe6jRlYSoBYKFS1ZMP6hf8H45NhqWJHaAMaWLiqWra2sLVJGbRIxIY38NdTMi+7WveV/7bsgqfzU7J+Q6AOqtX7Mp3vwQql1jkzIx+wC/bnoZPQ1SUwkIGotEDF2ouYnnW3tb9FyUkw1bNndTHrxifoVc1izVlRI6N70kf8F9ls3+KvFocsXbgDoICT6f0wa2Dnc3bg2JqST1CaxD/7vyFXqLEu+t2zNFz0LeeTudpq6dWuepIWlW6pzjvsuWDZtTREat/JXOgmJWPbmM9C8fwt/tTiOaE2syt5BSH52/gUKh5RiIpPKp3vwAtP+HBZoi05EPxAXI+7jph4JiUhBcDwG5/ceiGdyLUf3CjESbbUVERI9V5M8GVxO35nggcMtnfcj4XWyqjadv+3+MPjkEBESdaVxwA/7JT4SI7dMce83QIyiuuOC+UGyFnRyCN0Z6w3LOd5r8yWkcGErLpUKfGH3fiNMmOl1XRh8xy2jqja/frFxucljJIXW+hGf8sEJzTH7C0qtzURfJyU6Ef1BauweskLsYoPPGwV8kVwObT3JxljGG/bbxWw/klgtyU1yb0271vJ3dMbmXSI7JMkS0iHulCSIjceDLP1Ha4/JzBI+5YMTykzLWGqL9HrzWl+Rsp9jNtZ2YJmbZ0zSDampqppXBxVVHSPv1qpyqJj4OpSHophERERk7i1hPLgsFv6ujqA92+x4G/ffo+tSC3WvbjM2pLsgqdZaBvcRN3SGz6zTZI26n5TvnTwDikvl8VI323M9SYu9eWcz20npBm1kq1aPZTskxUTESNYKrZat8BJ/1xPQvu6PM7xOuSUhIRWU+neXsSFJSKxFonPE8ikfnMA0fIMgJPGJ6HfSRnoknUXEFq0He5go+C4setKPoyC67l1Fx60kIqQSQePmVfxdT2C2uGDpqgbWnmn/W3RNGOB3t+nfTda0JWuf45TxKR+EoHMd+6ui3RNSAEslga0tEJOMC4euxFM0vkgtlGUpjWD3CLwbUt5lcZCYgNwsD/k1VCnHQFtLM3+XgMamNnYo2FRyte6/g8KOe9ffjI2ERJ1/q0upMw/e45KTz7v+BwbaV1gvSGQSAkpaJNqmS7czUW/OczF9kAJvckNfn30S7zTtTO9WSLRnidyf9cpZ/i4B1bWtoGG3bHv8bbyOuI/o0HZ+jWLX7kG+Q7I5Tmv+JZ/2wYfkvKb/ha6tTPDh4hMRULot0z7M6ObX+yUmameQFXG3T1oy90P5SN+1JDfLRzwPjeuWsfe48ajMyVxmh2IkXgO5XX8yNqLw9Vu2a/Sh5dM++KDJMf8dflpMvbpnrT+JYmLlgUUGv8RE5YCsXBMTg+X8CSGg7qIEQKTsrSo2vMOdJjdK7B0btvxRiVbSn4yNSF+irNDZdvMpH5ygY+lQSI7vfMtRf5AW7ohNKFySmDythBdp8WctrAdDCwbcD4vFzwHwJnNvL7AiphtnLnidj0RZJH3XbTf3srlJGRvr/GcP8k1taq3jVaXO1jYghEQkMblrTVS47EJMVA44jFkVmOugchLVkjrvS/ImbS1pWLOEywhASw1bTyFhrERCZtfiR3xE3QKMQevI8vMpH5zQ5DhHY1oa+GJkT0i1G60d4uncJRUurg8xTcPnEt9tguoyIzQmjem6lsRJ7ZTK6JHQ1mhgQtp7qKVjDQnFS6er+FM/Yj22U9Rjs67k0z14gal/FGUV7Wc+DhTyjInd4kQZlQ8xTYqvh/2HmqBlubrzoRJiJPcW8iKYT9LXiACs3dz05DBS+huY+rMvtfEj0OaZ8L0h8R23iixHfAKa337bh9SXpGIgWob4tUYhdhGpgkdr6kGzsBmKF7wHtaM631EixrK3noXG1IXsrIllafSNklxI1PHHzFHlR3xEH0zm1nT2CXyqBzfUWY5k1gcaiEIi0oKSmKgK7kNMUUlm2Bx/EGplL0CFj31JnqRYqm76W2C4VwkLPzKxYJv9LgzwY5c1CgIWu5Z2Ci5NobXuxykeGt+OhIHgQjLB1KEWn5QBQAp6UUyKTeItlemJDaBIqIBvxk+C2nA/3BuKrVb2ItzccQgS37ewW5HcQvKnUcv3dZXFZln+gU/z4Iciy/oBa48MZCEReeEyfqtJWHSvlkpUsgXWxxxAIflnlerDnoWzMXNh5nyLkLEh6U4X5YGuv2aLsl9Nnr0NM+EwPsVDA+jDVwwKIRHdVfDtXEwebm56UgPEJVTB5fFToM4Pq1Qf/jxoJy1CAfLT5tAadZf2k1VnWVqmdfDvzfYGCmkVu89/MAiJSItM/TkSU1KdkNFxMVGstDbmMFTLXurSKtFz5No+jd4IU5LdFg7T/nXGLt0a+3Ztnf1E8sFB3ArxBbXOnkr7iYNiL1Jf0W2ZdqAIaOcAt0zTEw34WAMXJkxHiyN+ixKxQv47qJT/FtbEHIWpSS1C3JVch27N9x0jSWjV1bnOezFHrP+PT+3QglJnXTPohOQmWSa6M4WJSbBM5KpSYzPRKv2GCUZMSJX854uVF2FakvCFPLF06gj9TpG0n2W9ea3NqqND+NsiVVp72qAVktvNkZjo4Ap0TzOSDDAzsQ7OToxjcZC3iIhVst/CncgRkKy+DdFJVD1Ht4YZoVgRMiHfhWxtVWZZoviUDk1gjDT4XJsn3WIiN0diQjdHVunjuDy0PC9DpdfZSUSqN12YEA2KBD1MTzCwcwqE3ZAdf7cmrw0Sv2K9tNl8OocucEJSmJAGS7Dtix7Z3AxNPVqmBvh6UoKoVTKEPwc5Ue+gW2uCGao60aNr1Lmtwp0hWvsyPpVDG4Mua/NFdwC+RQieoxJNsCz+JBMOWSZvIe2NzoBJSTYmPLbJ3yNbo1oRiUiBYQGfRgmKLOvyQVNH6o5uMW00wkxNHUQnNkH+5HkdrBIF2pSxrY35AqI0Johb0rF2xESE86XQ2dfQoa18GiVgsP2+sPFqCAiJ6BbT2maYojHCkvhzUBbxKguwmZBkL8PDiNfgPQVmbJomUGzjx9Zo6ZuOXEL7Q2sf/KeK9BQYZC8a8L22npKCZmRsihGmappBO/k9tErCiSVUrCwZGwoq5SOYsagJlPxOEerkY3bmUmod7/Gpk+CJeK1jPmUeQ0pIROrgo0CiV1phYcxVtEJ/YlaJMrbTE5UwU1ULcRuFfUf0QdPkOBxKrVXBp02CNyh1HdDbSL4LMRNTZjlg6lIrfDFxObNKxEOTV0H0QhMojwlfbpyQ11oRl2keWk3YnkKtcyQMWSERc+0QcwRg3twSuBv+BjSG/QrWTTsA0VsAZp3DeclxXI/93PwbPl0SfAGFpBywOyT7inlOmLHfBZ9P/xgqQ16C5QuvgZLuRctx7p96aAhsk+0LqHTWWLo5csDt2e5jxuGHafG6Erg8JRnmbKk2xp12zeFTJMEfqHXWGZKQ7KDBOZhzGiAt7WSpYnvVn/j0SPAXyhz7dPom6CErJMxWhYKs06nJs66Nu+36JZ8aCT2BSmufOlSFRLUhag9pctsuKbKsb/IpkdAbqHNtIfQFNgPqBsnvSDrngNJ6dV5rrTLbsXDuMddTfDok9BZxudZ/UmltLVT+F5v0wUT6sNBOB01Oq0OV6/xEmdnyDJ8GCd8V9IW9Sp09kz6hYpM/GEiNVoqD6KuuMCbKVWVah/PhS+hLKHOsr6tz7K7BZpXIhQkxELrtbPtxukVozCH4IR+2hO8DSq01lc7xGfBBN2ZhVGBlMVCO04oiOqrMc47gw5TwfWPJSfiJUmf9jA4lJVcgukhBTDoIg7Z4sG0eOc4qhda2WaNz/J4PT0J/QpPj+rFS51xPvTd2kkYw7wjAayPB07Wy+C7bYVNqbQUYSGuG3LdZBysw+J6GLuEB63yjmwiaGwO4eChwptgHXZddlW0rwiB6WbzW8Sqd0MuHICFYoDhq+Xv6WihMmWto4djmt36uNdEeKWrfuF0WWR+0OlZ1buspDJ4/TNS5/pB8sGzo3dU6EKHQwT9rchyLMeO5QXEIWSmqCFNG1Fc7Buj3kKWh308WkERDf4fEi9axES1RoTLLtkejc0UpdLZfkQvmlydhoGF2ftVPVZmmUerstjW4uDdx8a0sPsHgnBbe3WZhOy2R9CiQfiaQxEIWht5H+8RJLJQp0r9VWpsLX9+Cjw8xg9Rp8tqWq7IsE1VZ9hennnz4E34ZEgYT6LxodZ7rZbXOkYzZ0acorEvocgxkUUgU7UTrwvY6kwVDoeFr7CiUGpXWXorvOanW2g6qtfYMfJyNPw9FV/Ur5SH462HDpFhnSGL6sbqnlJnWf1HoLL9HYUxBNzQXA3QNxjHRiiz7uPgs29txWsfLykz7M4ovrOgqXT+X3JMECRIkSJAgQYKE/sewYf8fw0pencGV2/QAAAAASUVORK5CYII=;" vertex="1" parent="1">
          <mxGeometry x="570.78" y="290" width="28" height="29.53" as="geometry" />
        </mxCell>
        <mxCell id="lmG2QonkjUvl6BErKhpc-51" value="" style="shape=image;verticalLabelPosition=bottom;labelBackgroundColor=default;verticalAlign=top;aspect=fixed;imageAspect=0;image=data:image/png,iVBORw0KGgoAAAANSUhEUgAAAKMAAACsCAYAAAAXOhxVAAAAAXNSR0IArs4c6QAAAARnQU1BAACxjwv8YQUAAAAJcEhZcwAAFxEAABcRAcom8z8AABicSURBVHhe7Z15cBRXfsd3s+tNVTZVcY7KJlv5I1v2JlnbWe+WU7XJX04lsRHSSCCjGzBgg+aekUZII2k0GjCsTdbc6ABszjXGgDSSuMQNBozNZS5dSNzGXDZghEACG7/8fq9bihjeMD1Sz0z38PtVfWrQdPd7v9fv2793TvMDMjIyMjIyMjIyMjIyMjIyMjIyMjIyMjIyMjIyMjIyMjIyspDm8/n+JBD5EBlZdMxuX/Nbi3PtOrO9rt3k8LeaHHUt+Gm2+9vxe4uz7jfyqWRkkbNRBZt/anHUHcp3b2d218ZHwO/NcHxUwfKfypeQkUXGxuc1PG+y19215a9D0T2CFb+H4yZT7QvyJWRkkbHxzvW/gSb5NhddEDGa7LVddlP9b+VLyMgiY8b8dS+aHf7Ox4oRxGqxUL+RLMJmnrjx10rEaLOte1G+hIwsMmZ2NCgSI54nX0JGJrb09NU/Mtr82SZHXYHV6v8n+WvFZnTUJYLovrU614rFKH3/7QSbf6h8iWIzmVb9s8nRUGAB/1ansx/JX5PFo/l8O38MUWu+3bWB5RdtYxZnw8lcq/8/5MMhDYVssvvrHAWbHhFhf/hxu9+P58uXhjSTveHfLc76dvQLp4gg+s5/GfyVD5PFk6EwoILnOCduYta8dSDEeuYs3IKCPGV2rHlsk4qiMDpqXzHb61bb5GtFIuwFj+N5IMjVeB0+BHJSQsMmHf1wFm7m16J/jombmdFRPzccQZPpxMw2/zRHQSNU9sPNK4rT4mhoMTvX/0o+tc+s1g9/bs2rd8J5+0Ekd/i5IYTYC54nn38HoulBa35D3huQnpx0n9nt9c9ZHPUteG7/6615a3mEhS7FNPlUsniwXJu/DJs+jDj9K7wXhySaY0ZHTWKue+tfWCyrnjXZ/IUYrewFG0EUjdJktuDaUOB1eD2mY4b0TLb6Qkt+w7NjnHVPT7DVJmG+mL/wWhAk+m20+j1yUcj0bBOca34Horpvy98grPBesNKhP9ljste1QCS7gH9LfTdlkTA09Tw9OZ8LUj5196Q8ROdL2KB/C/73TLCs+Z1cJDK9msVeO9Ll3iGs6ECkphGiGBeAWiJ8GEwX0+fRFvITnROIq3gHM0I55CKR6dVsttoXQQA37FD5oorWOg6InBAZrxtpEj0+zOioe9OWv/4eIKxwrYL+2vLX3Z9grx0vF4UsHsxsrXFisxhst43WQD+lZtzvlItAFk9mtvtLrHnrH0Cz90jlawn0D0b+D0yOulLZdbJ4NKOtdlGwqZRwwcEIRi+cMsJPtQY9zomNuA3tfdllsng1XP6Dpu9OsDnHUOC8IU7HoKBx2gWibbfJ7r+JG2r5KBm+x+MDTl+67rbTWU9TOfFuRkfNL0222q/CHczgBghcEbE4GjpBfFvNznoXLvXlWtf8Gy4n4qfRWvsKbsAw2fzb4JpOPD/YhopgoF8Qva+9aVn1rOwyWbxarq1mOESf+0rn+BCLHZpfc+1145sfVRhTFj0nJ/VYeyP1/RcmvPFhlclUe4NfL0hXhNTsr79ntKwZJidFNhgr+fTKz3wdd1I8LbenlrV2LoXPNZ7m27VlLbdrYkZbV42n6VaNdfLWdptd+QDGZK5h9vItrGhtx1Xv6e6V3lPdyz2tXauwTKJ8eFnhOJ5XdurORxMbOq7ZvVt4OqL0RaB/6Cf6i36L8okGWGee5s6VZc2dFVAua9mJGy/aN7b/qVzN2rbipm+e9bTefhsKctbbdvf7Sae/ZW+dZ2zKBeCLGAL5T73MmO9QJ7MXNTKztVYogkC4EN/axuDhYuVn7rG3wiwHno/Xle67wuyTtzKTSaEgwT8H+Ok7dJv7HdP7B3lPPvuA+Tp6GAjznvfk3caS5s7hcpVr0zwnbo32tt05O/UiYyhCcJp5W++wstYuBuKMOd6Obpa/8JBiQaAQreWbWen+awyinDBNpeD1pZ9dYzbvZsUREv1Ef9FvUZrRowvqEWi7w8rbu7k44fP7stY7y32Hv3pkF1LMDZ6Y0vKT3eytc98LCqMBTt5hniM3mQ3EpUgMEJksrgZWvP0L5j3dI04zTDCd4m0XmCUfuggKIjP6ieL1HL3J/RelGSvK23sYBh1v6939nvbuZ2QZxN5KT9zM8535lk06dV/ouBbwnulh7k1n8ffMOBUjrPw+4LjJvIa5lh6VolKrOM2wgXQwQrqWHJEeCAV+4Kd78znuvzDNGILRcgoIEv59sFALEdJ94vZ/Qvi+i81yoLNRB5sSiCDedgA/ewEBeOG4c8ZeZU00RC1raSMrPXydpyXMa4BgeqUHv2bWEmX9VvTXOWsv95+Xo3+55HLGtBsEeWOE9DR1LktfHcPf7Pi+ZH8Go729U6GTK3Q0mrRBhcCNKT3wFSvZexm4IvHJFeaGpjFv1ieKKh8xGSEqLoGoiP1EtaJiPzDa8ugI+YjyD8QEfufN/oSXowQGQn1lg3KWHvhaKjsiyCsa4MBmUse9B9CHTJGlEX3ztN1On3T6PiuHgYrIyaghRwbX0mPMUrCW9/UsLvwE4G9zXj0zWRQ0i4gNzoE+He8rohgD81IBTBf7juiXIp+w24D+w/lS+XqBcsLfruVHpbRjGCFxUFPa3Lk99xB7SpZH9Iwx9kNPy+06dELkXDTxnrrL3FvO8wjC+2IoqEBElSyADxombWGeYzhoiFDlQro4KLH5wpt7FJULrzdZ/cy99Ty/D8L8ogAOXmEQ+8DbfCv6S5i+1q9+Dk3Y176O2A9avKe7WWFtGzPlrhZXYhiYTGt439LbARUbgSaagwOZ9rvMOX0Pz0/kRzhguQv9bfw+CPOLAjjtg3ORZW2dXlki0TNPW1cCPgn4RIiciybY7HExKuyDPQ5sDvMXHJTEKMhLLVCM+fMPSM2vwI9wwHIX+k9GrFuhFBw7wBiiXpZI9KykudOMc03ethj3FwG1xeha/HlUxOhadDiuxMi7bE2dn/mamn4iyyQ65mnuKuKrLBCeRY5FE9UjI4gkKpHxvUNxJUZc8IDW8qjvyM2nZZlEx+AJKJl05jvtiLGmVR0xwoAgr+IzSDPCYgSx5839NLwBTBC4GGs1I8bjxftv/bUsk+iYpsR4uocV1rerNoCxv7MTyoUj6QiNpuU5UfvbO5VNwoeAD2Aa2lVbthwoJEaAr2rgJoSyTcw4fhUX1ENg9MGpEEFFBoLNJq6O8M0R0JSK8hssmG7JZ1eZtXgj5KdsIr5vGiegbFheLLfkb2zrgsQogxVRvPsS9MMOs7zK/SyvSqb6AJ9CUbo5AdeuUSCFDR0RizR8KgoiGRcirpWL/OgP+I3+O97dzcvTVzYoJ5a3+ONLMRciQmLsB0Ycaa0W/u5DamqLGs8wS+F6hevB0lwjv1btVQ25iXbMwDlGBU00ChH8Rv/59dwn/JTSk9aoYz+jgZAYA+kVUH/AR+/Ze6zgg+NcaMJK7w826c565t6GqxrqDgowPVwt6ssnMO8A0N+CFSe4/1gOYfkE+cQCEqNCcPRasucys0xcx5cNRRXfHxSBAwYyZc2d6u0lhHQ8TbeYAwcu5tAPBfqJ/uKGiEhPNakBiVEpcpPtmLZL2XQK7zvW8N01XAiD3RUD12M6+Ys/Vzydg+ehv1IEFKSpMUiMYYBbtyauaeUiUzRwwGYUzpu4uoULifdHBemGwnsShQh5r2qB9KQNDsL8+iM/DOhv7H92oAwSYzjgFNCh68xaukkayYpEEEBvk479TUyDT4Yr7afBeTyqQlQr+OPxh9ILBfpn9TRyf7X2k4NgkBjDBAcQrmXHlI1ke7HV8iiFO66L91ySoiQObOSRcd/oVu4K8CYZjuN5xdBPdc7cK0VjSEeYvgBsol3Lj0n5CMqhRUiMYcIFsutLGBisVRylOLjBFQYdOKDIm38QRsTnmOf4N1LUAngTLuM59g3/3QqexwdMOFhRsolWRhq4rGXFH38pRVZBObQIiTFMcHK45NOrzOJeH54Ye8EoaQRR5jXwX+45Z+zhPyfFnT649Qz/xu/xOF8rDyMa9oJ+Wd0buJ9amMxWCokxTLxncR27QxpEKBnEBAOux6Y3GIoGKcFAvyCS8lUg8FdUDi1CYgwD7H/xNWzfZhDMAKJiFEFB488S1HiBQLQgMSoEp0fwJ6KOKdsVz/PFGuxrOqbu4CNqPfQdSYxKaL/LPIdvMPs7u5QtB2oI9Nc+bRfzHLnByyEsn0YgMYYCp19O3OLTK0YcUAymnxgLwF+jcTVzzv6El2PQK0ERhMQYAtyuVdR4VmqabYLK1gM4WAL/izad4+URlVMLkBhDgHsSi9afVrYLXP6xfB8DmfoJBS7zQbr981EyB4n+F60/FbE9lmpAYgwFTkIfvi69GxGaO1FFc3AqBkTi+N+P+ZYt13uHmK20kffZuGBE14QJFx+kZ/M0Mtf7h3k+mB/fY/mYqSCcr7RN3ia9+wcn1kXl1AAkRgXwVZfdl/rE9UiFy3OGrqVHpPNxky6A7+3B7/h1KCTe1Ic5fyg3sXg9F+HSo/z9OL15YH6YBxe8IG0cUeNLqNB/rY+oSYwKwbm64p0X+crGQ1M7slhciz6Xdk33Rp5WFCX8jXOTB7/mP4V1/GG39N4epc03nIcrMc53d7PCupM8HRQUX1XBdWz0S84zH/IPFDv+jf4W77ioi7lGEmMYYIW6t17g2/ix6eMRCyIlLuPxDQ5BmkAexTAqwfGijWeYpSj0UiLfdQPnuWHwxAXHRRgksmG+kH/+/IPgjxSB+ZIj+OnecoEmvUOZHsXIox0Kcst53gfDqINrymXNUoQSXtOfti5Wjj9fgL6e9GOqIE02fg/HCz5s4u/zVjIdw/MHP/AFAtaiDdw/3IzBhShHUa1DYhwA2Ezi9n/+emL0P4y5O97/3HWRv44uaP8RvuevYN4V5q4b9APA1z17Ttx6qDnXAyTGgSJXPG+eRceDgAIp3ntZeu9jsB058L2lYB3fy8gFJUgnKPJ+SI7ouIYhMUYZLsY9lyInRh1DYowyJMbgkBijDBfjbhCjK4QY4TifGyQxRt6eWDHCqBcnwzHy8YlqgRjxe/y5AZ6naJQeJ5AYo408wHAtlv4vF1xi5EuGveDf8D0eH8gASc+QGGMBiqypkxVtPMt/Cz1xdWs/WvguITyuxxHxYCAxxgoQGk5I85WVQHCi+gkTIkJiJDQDiZHQDCRGQjOQGAnNQGIkNAOJkdAMJEZCM+hbjLjZFefrVETxikcE8o4XBrqHUrdixEKXd6j/AyNMM5RPPO9gPwEg5HsY/qS9LsXoheiFO61NSw+xkb71bFT5OjYKPwcDpIFpGZcc5GkHu5l9eS9TMe94Qb6HZrg3nqZOfq9E9zAYuhSj71Q3My46wBKHzZFInasOw+ewoZAepl2O78EOvJnQ/PhO9XDBDk2ZrW7e8YJcJ8bFB3k9PXT/QqA/MaIgTvewbLefJRhmMUNGlaqgGLOKaqWtWwFilKJlF8vxNEQk73gB7012cR2vp3D6j7qMjOVQyHHTt7MhSTN5NBM+oQNh+FyWAGmOnb5D6hMG3kj4uxye9nEzd7IhQ2fw84XpPMlAfeA9HDcT7mGYr1LRZ58RopZ7/zU2ctIG9lruMjbCuJyNMP1xcEAamNZI6Pdg2uVBNrXizmv3/qu8j/RaLuSrRt7xgnwPR0G94D0Md2OwLsWIeE9i5Opi7k+vsqJ9l4Erg+QypHXl/9MOyK8/UhN+W8W84wW8h1d5vYS6hyJ0K0YOFhrf1qAijwxaghGBvOMFxfcwAH2LkYgrSIyEZiAxEpqBxEhoBl2LEUe1OO+nJkqnIyKRdzQJd9olGuhWjDhqKz16k03c9YWqYJp8RCjIsxecEC89egPOv/jI9brg44v8/y0MVc5oo0sx4hxW4d5LLMvtZyk5C1jKSGThIJHSwaXAQvyfT4NUFAqxcM+XKucdTSR/c8oaWPEBnJjWjiB1KUZc8xwzbQtLSJzBkkZUsKQ09cClrDHvbBHPl8HfKMYxf9jGhgydrnreUeM1qZxvztstbQjpX8YYoj8x9m6UKK5jCYaZwoX6wYC7cbKL/ZJfAWLs/S7Hu1b3GyWwnKOnbpJ3J/W7vzFEl5ERO+CWFUcgMs3jT3hC8ix1SJzJElPnMcsHR/gGUWHe8CBYVhxlia9B3nC+MB0tAw8R3jMUpN3fQpERbVADGDliWVcdZ2Pf3S4xfZDI6Vg/Os7TftzmWvxUNe9oIvtrr2uRXyz1aBljhT7FiIAofGd6eJMdOG0xUDAtTDOweX6ECOQdTXg5AWHZYoh+xdgLCkdNRHkEQ3S9LhCURQPoX4xE3EBiJDQDiZHQDPEhRuwDqYEo7VCI0nkSEN2LQaJrMfJR4dl78AmcGSSYBk9L2S/aVM1bb8hlx5G56N4MFH2KEUaEeJ1zXTubMH+fqmCa0vwbIMxbWolxrlc/b91Q/QmbsPBT5tp2TtXNFroUI64a2GqaWXJWNV+fFq40DARIC1cmbDVNQV9fUn6qhx9PhvNUzVtPGGaxIYkz2fAxi5hr6znVVnF0KUZsJnI89ZFZm06ezbJL66T9fgHREVdfEPw5a++S2pMM32wx52N4cHF9O0hLEga6FePoKY3wdM5gSWmVLCldPVDgo6dsFIoR/8aI+frvN0u7dlTOWy8Y8DOtgt//XGiuyzvCe3NEMHQpRuynFOy4wNLtK/k2LgOIAm/QoMA04AanWVdA2ueDN9PQJLm2n4e8P+RiVCVvnSE9hFUsq7iOv9BArX6jPgcwAN4A94FrLG/jKVXBNEPdXPy/WiKRt57I33SalRy5EfShHQi6FSOCN4JvWFARpTc3EnnrCugqqf07Gl2LkYgvSIyEZiAxEpqBxEhoBhIjoRlIjIRmIDESmoHESGgGEiOhGUiMhGaImRi9bV3Fk88zvvEAl5UIYsoXDHdGnSg+zv5Slkl0rPx0T/6kc9/1gBjvgiO6wdN0q6f0xK0e/NQ6vX6KyqFF3jr/4J63/e7+Csb+XJZJ5CwxveLvDBlVZYb0qmVp1hWf55St7c4pa+jSC9me+i7j1G137dN2ddum7dA86Cf6i36LyqM5vA09WW7/5ZTsBfVJaRWrkzPnrzSkVXuSs2b/TJaQOjY8c84zKVnzD6SOXMpeG72cpWQsYENT5P/7Tyfgm7vGjvuQWS21zGyu0TzoJ/rb9/8cahzUQ1JqBUsduYSljgKdjFrG/w2i3J+ctvAXspQGZy/lLnjKkFn5wQgQYXJmtXALux7AXc7jjKuY1VnPzI46zYN+or98d7agPHoA9YK6wdb05Zd9P5YlNXBLSF34D0kZld+kZC0UZqgXSIyxgesmrfJ6aurMv5clNXBLypj9giGjEsOtMDO9QGKMDVw36VUPDNlz/0WW1MAtYcTsX0Nk/I7EGF3iSowZVd8mpM15TpbUwG1o2rx/JTFGn3gTY2Jm5a9kSQ3cSIyxYaBiTAJeSa9i/5VWxf47AmC6/wMkBuQbDBKjAKzUscaVuhIj+huOGFEgCSBEx+gK9vYb89jUCIDplo6pYMMzpbxEfvSHxCgAKzVn3HJmyWsQVr7WsOTVs+xxyxSLESPiq+nVrHLCXNZZPIN9VzI9YnSXzmA77bNYKghyaIAfgagqRijkC3BDHuhdjEhK1nz2pnk1jzoWDYP+oZ/or6gcIoZAlMrJrmRXCmcy5p3OmCfClL3LfGPnQbP9+Lln1A0GM0P2AhVG05lznjGkV96PBzFilBmWvYC9PmEFG29Zo1nQP/QTo52oHCJeBTGOzqlkN9wzQCggltII432XTR2nQIxZWI7KniHDqv9RltTALTW16m+hEr/Q+6R3LyhIBFcHUjQI+tXro8j/YKBwE6CZXmmew6MWF6QooqkBpH0ifxbLgkgcqt+IuklKqzxrMEz/G1lSA7f0dN9PDOlVG4aPXCzMTM9gBWoNkZ9KGQrCGAafUyBiLTLOZYty1WcxMGv8XDYShIhdA5Ef/Rk+cgk8WFVrX3op9ylZUoMzQ2ZVIS5+izIjtAUK8pU0aXoHm278VBOeJqSvRIiGjGqGm2sMmZUuWUqDt6Ts6l9C4teGZb8nyJDQIqKoqxai/EQMy34fPy8nZM5/RpaSOpaYUfl7aUuQfnfuENEDdYJ6SUqrmCxLSD17NW3GX8FTsY+aa0IJXCfpVXuHDZv1tCwhdW3IiIrnIaN2zIgiJCGCR0RJiCdV2RzxOEvOqng+OWv+7tRRS3r7BATBQT3Iu7t3qbLiosSwyU7MrC5PzlxwbnjOIu7EsBziiYXX/yKWkrngjCGz2vNypJrmx1ly2txfJGcuHIvbyhPTKvclpVc2GdIqmokng6S0yqakjMp9hozKpUkZ1a8PGTZr8KssKtoPiScOMjIyMjIyMjIyMjIyMjIyMjIyMjIyMjIyMjIyMjIyMjKy8OwHP/g/H6EqYuczv5kAAAAASUVORK5CYII=;" vertex="1" parent="1">
          <mxGeometry x="550" y="255" width="30.32" height="32" as="geometry" />
        </mxCell>
        <mxCell id="lmG2QonkjUvl6BErKhpc-52" value="" style="shape=image;verticalLabelPosition=bottom;labelBackgroundColor=default;verticalAlign=top;aspect=fixed;imageAspect=0;image=data:image/png,iVBORw0KGgoAAAANSUhEUgAAAgAAAAIACAYAAAD0eNT6AAAAAXNSR0IArs4c6QAAIABJREFUeJzt3X2MHOdh3/HfM7t7u3e3xyN5x5ejpKMoh5JFR04YSlHcOjUjI7GtWHaQglZtyYltIC5q1QFcIA0KxzadREjdRBUcw25gGDGcNm4cokFsxUnQOHZSOEVd13GR1JRtppJIibwj7/1u9/Z15ukfpFRKOt6+zOw9M/t8PwABibcz8+ORt/PbeZ6ZRwIAAAAAAAAAAAAAAAAAAAAAAAAAAAAAAAAAAAAAAAAAAAAAAAAAAAAAAAAAAAAAAC9lXAdAMs6ds8VSef0+a+xbZXWnrGZkNCOp7DobgMyqyGpORnMyetJY88V6ZddXjx41DdfBEB8FIOOeWajOBO3Wh630kJEmXOcBMNystGGk34/yhV+9dd/4nOs86B8FIKOeftqWcqNrvyKrD0gac50HgHc2ZfR4WJv89SNHTN11GPSOApBBT1+pHMyF7T+WdK/rLAC8940wl/+ZI/vL866DoDcUgIx5dn75LmuDP5V0s+ssAHDNc8ZE999ycO/fuw6C7lEAMuTaJ/9vipM/gPR5Lszl7+FKQHYErgOgO08/bUvXLvtz8geQRjfnwvYfP/20LbkOgu5QADIiN7r2K2LMH0C63XvtvQoZwBBABly71e8fxGx/AOm3GeULP8AtgunHFYAMCNqtD4uTP4BsGLv2noWU4wpAyp07Z4sj5bUFHvIDICustNGsTO7jiYHpxhWAlCuV1+/j5A8gS4w0USqv3+c6B7ZHAUg5a+xbXWcAgF7x3pV+FIC0s7rTdQQA6BnvXalHAUg7qxnXEQCgZ7x3pR4FIO0MP0QAMoj3rtSjAKRf2XUAAOgD710pRwEAAMBDFAAAADxEAQAAwEMUAAAAPEQBAADAQxQAAAA8RAEAAMBDFAAAADxEAQAAwEMUAAAAPEQBAADAQxQAAAA8RAEAAMBDFAAAADxEAQAAwEN51wEAANlmJTVbbdWbbbXDSJG1CiPrOhY6oAAAAPoSRVYbtYZqzbas5YSfNRQAAEBPrJUq9Yaq9RYn/gyjAAAAuhZFVsuVmlrt0HUUxEQBAAB0pR1GWt7YZHx/SHAXAACgoyiynPyHDAUAALAta6XlSo2T/5ChAAAAtlWpNxjzH0IUAADADUWRVbXech0DA0ABAADc0Eatwa1+Q4oCAADYkpVUa7Zdx8CAUAAAAFtqtnjC3zCjAAAAtlTn0/9QowAAALbUDiPXETBAFAAAwJYiLv8PNQoAAGBLPPhnuLEWgEMnT76rVB1rn7TW/oSx5rUy9pBk9kjaJcm4zgfAb3EnAN7zpoev38GmpBUrLQUy/8va6GvBSPQX3/jSf74c6yDoGwXADXPPGx96qGraj8pq1shcO91zzgcwtMYkjRnpJiv7ahnznqiVq9/zpoc/HrUav/Gtr5xZcx3QNwwB7LC73/jwybvf+PA3Zcx/lDTrOg8AOFSS9MtBofgPd7/p4X958uRJPpTuIArADrn3TQ/tuudND3/RGH3NGJ1wnQcAUmTaSJ+ojt78nbvf8I4fdR3GFxSAHXDixHsLkcwfSXqL6ywAkGK3myD40x+9/+dudx3EBxSAHWD2b35G0utd5wCADJiyiv783re8/YDrIMOOAjBg99z/0K8Z6edc5wCAzLA6EjZzXz528lTZdZRhRgEYoLvvf+c7Zc2vuM4BAFljjE6MjRX/wHWOYUYBGJDXnDo1aqz9d65zAEBWGaufvvv+h3/SdY5hRQEYkFZl5J9LOug6BwBkmZE+5DrDsKIADEgg84jrDACQeVY/fs8bfv5VrmMMIwrAAJz4qbe/0ko/4DoHAAwDE4Rvdp1hGFEABiDIBT/tOgMADBEKwABQAAbAWP246wwAMCys9KMnTry34DrHsKEADIA1hkf9AkByRsz++g+6DjFsKAAJ+0c/9c79km52nQMAhklg7Y+4zjBsKAAJa+YiPv0DQMJsQAFIGgUgYUbmbtcZAGDoWFEAEkYBSJixlisAAJC8Hzp16lTOdYhhQgFIGBMAAWAgRp9ZH3ul6xDDhAKQICYAAsDg2FzEMECCKAAJagZi/B8ABsQwDyBRFIAEGcP4PwAMDncCJIkCkCAmAALAQB2XZFyHGBYUgAQxARAABmri3je/g4XWEkIBSMi9b3n7ATEBEAAGKgoNwwAJoQAkJGzm+fQPAANmuNKaGApAQpgACACDZ7kTIDEUgIQwARAAdoI57jrBsKAAJIQJgACwE+zeH3vju251nWIYUAASwARAANg5oUKGARJAAUgAEwABYOdYwzyAJFAAEsAEQADYOYYnAiaCApAAJgACwI6iACSAApAAawyLAAHAzjlw/Cf/2SHXIbKOAhDTtQmAN7nOAQA+KRRyXAWIiQIQExMAAWDn8UCg+CgAMTEBEAB2nqEAxEYBiI/xfwDYYdYEFICYKADxcQUAAHacveXEA2+fdp0iyygAMTABEADcybe5ChAHBSAGJgACgDsR8wBioQDEYEzE+D8AuBIYCkAMFIBYWAEQAJzhCkAsFIB4KAAA4M5tP/wz79rtOkRWUQD6xARAAHDOFFvN465DZBUFoE+2kWP8HwAciyLmAfSLAtAnG/AEQABwj1sB+0UB6BsTAAHAOcNEwH5RAPpHAQAA16y9/dU/9c5x1zGyiALQh3vuf9dBMQEQANIgGMlFP+w6RBZRAPpgwjaf/gEgJQIxDNAPCkAfmAAIAOlhmQfQFwpAX5gACABpYS23AvaDAtAfngEAAClhpGMnT76r5DpH1lAAenRtAuAh1zkAAC/IV0utu1yHyBoKQI+YAAgA6WPFMECvKAA9YgIgAKSPYSJgzygAPTOM/wNA+lAAekQB6B1XAAAgfe46ceK9BdchsoQC0AMmAAJAahVz05vHXIfIEgpAD5gACADpZXMMA/SCAtCDyHD/PwCkVsQk7V5QAHpgDOP/AJBa3AnQEwpAbygAAJBa5od0+jTntS7xjeoSEwABIPXG7v3GuVe6DpEVFIAuGbUY/weAlIsswwDdogB0KYpYARAA0s4EPBK4WxSALjEBEADSz3IFoGsUgO5RAAAg/Y5LMq5DZAEFoAsn3vDwjJgACABZsOtH3vDwK1yHyAIKQBdyOR4uAQBZkeOJgF2hAHSBCYAAkCHMA+gKBaALTAAEgEyhAHSBAtAdngEAANlBAegCBaCDaxMAZ1znAAB0berEm9856zpE2lEAOmACIABkTy60XAXogALQARMAASB7LMMAHVEAOjDGMP4PABljWRq4IwpARwwBAEDWGG4F7Gjgj0s89b7T5Vyg+6wJb5PMIV19ot4Lv26+ZXbCGHoIAGB4WBvpuWcvdHrZhqRLL/5lLxmbeyqM9NUznzpdGWTGgRSAUx/44E2mFTxgjHmLpPskFW/02plDNymfLwwiBgAATrTbLc1duhhnFw1JX7XWfskWoifOPP5orJ1tJbEC8MB7T4+Nl8L3WWse1NWFc7ra9/4DB1UslpKKAQCAc41GXVcuzye1OyvpW8bYL1TruU898enTm0nsNHYBOHXqVC6YeeW7Zc1H1ceCOXv2TqlcnogbAwCA1KhUNrSyvDSIXV+SsR+J5r772TNnzoRxdhSrADz4yOk3K4g+JulYv/sojY5q374DcWIAAJAqCwuXVa/VBnmIs4qCX/7CJ0//Sb876KsAvOORDx6OgtznrPS6fg/8QgBjdNNNt8gETAQEAGSfjSJdvPisrLUDP5aR/jqIwp///CcfPd/rtj2fdU/94kdeGwa5byZx8pcka62qm9UkdgUAgHPVzeqOnPwlyUqvC4PcN0/94kde2+u2PRWAt73/Q+8JrP1LSft6PdB21tdWd+ybBQDAoFhrtb62utOH3RdY+5dve/+H3tPLRl0NAZw6dSpnZu78TWP1gf6ydTa5e4927Zoc1O4BABi49fU1ra2uODu+NXrczj35S91MEMx1esGpU6dywcE7/4uR3pVMvK01Gw2VRkeVy+UHeRgAAAai2WxoeWnRaQYjvcaU9/3QscP7z5w9e3bbS+sdhwDMzJ2/KemtiaW7AWutFheuKAzbgz4UAACJCsO2FheupGU4+63Xzt3b2vYKwNve/6H3GJnfSC7T9qy1qtfrGh0bVcBdAQCADAjDthauXFG7nZ4PsEZ6zavu/SfPfud//rdvb/OarZ36xY+89tqEv5GBpNtGLpfT9L79Ghm54ROEAQBwrtlsXLt6HeuZPIPSjIx5/Znf/ujXt/rilgXgHY988HAY5L6phGf798IYo12TuzUxsUvGDHzNIgAAumat1cbGehbuYlvIReE9Wz0nYMsZd1GQ+5wcnvylq9/ctdUVVTbWtWtyt8bHxnlYEADAKRtFqm5Wtb62mtZP/S+179o5/eRLv/Cyj9bXHu/7xI7E6oExRsVSSaOjYyoUCsrlcsrlcmIpYQDAIFgbKQxDhWGoVqulWm1TjXo97Z/4txYFD7z0scEvKgDXbvn7O8V4tj8AAEids9H8k6++/vkAL/r4HMy88t3i5A8AwLA5du0c/4IXrgA88N7TY2PF6Jz6WNIXAACk3qXNRnD0iU+f3pSuuwIwXgrfJ07+AAAMq0PXzvWSrisA1poH3eQBAAA74fpzvZGkUx/44E1BO/esulwcCAAAZJKN8uEtZx5/9GIgSaYVPCBO/gAADDtz7Zx/dQjAGPMWt3kAAMBOeP6cb06973Q5yEWLknjwPgAAw68RhcF0kAt0nzj5AwDgi2Iu0H2BNeFtrpMAAICdY014WyAZ7v0HAMAr5lAgHv4DAIBvKAAAAHiIAgAAgIcoAAAAeOhQXtKE6xQAAGAwrLVqNttqNJpqt0OFYaQoiibyroMBAIDkRVGkSqWmWq0ha+3Lvk4BAABgiFhrVa3WVK3WtzzxP48CAADAkIiiSCsrG2q12h1fSwEAAGAItNuhVlbWFYZRV68PBpwHAAAM2NVP/t2f/CUKAAAAmWat1crKRk8nf4kCAABAplWrta7G/F+KAgAAQEZFUaRqtd7XthQAAAAyqlKpbXur33YoAAAAZJC1VrVao+/tKQAAAGRQs9nu+9O/RAEAACCTGo1mrO0pAAAAZFC7HcbangIAAEAG9Xrf/0tRAAAAyKAoilcAUrcWQLHc1OTNFY3tbmh099V7G2urJW2uFrX2XFmNyshQH7/VaqmyUVGj3lSzWY99ice1fD6nkZGSiqURlSfKKhQKriMBwFCIMwFQksyD7/9wvD0kxBhp6rY1HTi2qCC3daQoNLp8dlpLT00q5p87dceXpLXVNS0vLcf+S00rY4z2Tu3V5O5J11EAIPPm55dibZ+KKwDGSId/bE4TB6rbvi7IWc3ctaDy/k2d/x8ziZ2EXR9fkubn5rVZ3UxuhylkrdXS4pJqtZoOzhx0HQcAvJaKOQBTt611PPleb+JAVVO3rQ3N8ddW14b+5H+9zeqm1laT+/4BAHrnvAAUy00dOLbY83YHji2qWI53D2Qajt9qtbS8tBx7P1mzvLSsVqvlOgYAeMt5Adh9c+WGY+7bCXJWkzdXMn/8ykZlaMf8t2OtVWUj/vcPANAf5wVgdHf/zzEei7FtWo7fqMe/ipBVPv/ZAcC1FBSA/pYxjLttWo7fbMbfR1b5/GcHANecFwAAALDznBeA2mrJybZpOf7ISPx9ZJXPf3YAcC0FBaDY97abMbZNy/GLpcE+WTDNfP6zA4BrzgvA6nNlRaHpebsoNFp7rpz545cnyjKm9+NnnTFG5Yn43z8AQH+cF4BGZUSXz073vN3ls9OJPJff9fELhYL2Tu2NvZ+s2Tu1l3UBAMAh5wVAkpaemtTG5fGuX79xeVxLTyX3PHnXx5/cPamx8bHE9pd2Y+NjrAcAAI7lfvDe1512HUKS1i5OKGzlND5dk7lBLYlCo/nv7NPc308nvhiP6+OXJ8oKgkD12vDeGmeM0dT0lKb39X7FBQDwYpVKLdb2qVgMSJKslRb/76Q2Lo86WY7X9fGl/38lgOWAAQCDlpoC8LxGZURXvutuTNz18QuFgvbs3ePs+AAAP6RiDgAAANhZFAAAADxEAQAAwEMUAAAAPEQBAADAQxQAAAA8RAEAAMBDFAAAADxEAQAAwEMUAAAAPEQBAADAQxQAAAA8RAEAAMBDFAAAADxEAQAAwEMUAAAAPEQBAADAQxQAAAA8RAEAAMBDFAAAADxEAQAAwEMUAAAAPEQBAADAQxQAAAA8RAEAAMBDFAAAADxEAQAAwEMUAAAAPEQBAADAQxQAAAA8RAEAAMBDFAAAADxEAQAAwEMUAAAAPEQBAADAQxQAAAA8RAEAAMBDFAAAADxEAQAAwEMUAAAAPEQBAADAQxQAAAA8RAEAAMBDFAAAADxEAQAAwEMUAAAAPEQBAADAQxQAAAA8RAEAAMBDFAAAADxEAQAAwEMUAAAAPEQBAADAQxQAAAA8RAEAAMBDFAAAADxEAQAAwEMUAAAAPEQBAADAQxQAAAA8RAEAAMBDFAAAADxEAQAAwEMUAAAAPEQBAADAQxQAAAA8RAEAAMBDFAAAADxEAQAAwEMUAAAAPEQBAADAQ3nXAbJms1bX3MKiNqpVrVeqajRbriMBgJeKIwXtKo9rYnxcM/umNTZach0pUygAPbhwaV7nzj+rKIpcRwEA7zWaLS0sr2pheVXPXJzT0cO3aPbQQdexMoMC0KVvn/2eFldWXccAAGwhiiJ97+nzWlpd0/Fjd7iOkwnMAejChUvznPwBIAMWV1Z14dK86xiZQAHoYLNW17nzz7qOAQDo0rnzz2qzVncdI/UoAB3MLy4x5g8AGRJFkeYXl1zHSD0KQAfrlYrrCACAHvHe3RkFoIP1StV1BABAj3jv7owC0AH3+QNA9vDe3RkFAAAAD1EAAADwEAUAAAAPUQAAAPAQBQAAAA9RAAAA8BAFAAAAD1EAAADwEAUAAAAPUQAAAPAQBQAAAA9RAAAA8BAFAAAAD1EAAADwEAUAAAAPUQAAAPAQBQAAAA9RAAAA8BAFAAAAD1EAAADwEAUAAAAPUQAAAPAQBQAAAA9RADoojhRcRwAA9Ij37s4oAB3sKo+7jgAA6BHv3Z1RADrYVS67jgAA6BHv3Z1RADo4OD2lIODbBABZEQSBDk5PuY6RepzZOhgbLeno4VtcxwAAdOno4Vs0NlpyHSP1KABdmD10UNN7druOAQDoYHrPbs0eOug6RiZQALp0/NgduuPIYYYDACCFgiDQHUcO6/ixO1xHyYy86wBZ8vyVgLmFRW1Uq1qvVNVotlzHAgAvFUcK2lUe18T4uGb2TXPZv0cUgB6NjZb0itmbu3795cvLstb2fbzf/Oi/ibU9ALjyr0//21jbHzzIRL5B4nr2gOVyJt72QbztAQDYCgVgwIIgF297QwEAACSPAjBg+Xy8ApDP8VcEAEgeZ5cBKxZHYm1fGmGaBgAgeRSAASuOFGRijOOPFPIyDAMAABJGARg0I5ViXAUwkka5CgAASBgFYAeUy2OxPsVPjBa5CgAASBQFYAfkcoHGx/t/QEUQGI2XWNsaAJAcCsAOGS+PqhDjUn65VFQh5h0FAAA8jwKwQ4yM9uyeUK7P2/qMkfaWR3kwEAAgERSAHRQEgfbs2dV3CQgCo70TY5QAAEBsFIAdls/nNDU12fdwQD4XaHrXOMMBAIBYKAAOBEGgvXt3qVwe7Wt2fxAYTU2MqTw6wt0BAIC+UAAcMTIql8c0Pb1bo6PFnh8WZMzV2wP3T45rrFigCAAAesITZhzL5QJNTpY1aaVGs6VGo6l2O1QUhQrDzssAB4HR5HhJu8alZquterOtdhgpslZhZFlKGACwJQpAWhipWCyoWOzvfn8jqVjIq1jgrxRAd6LIqhWGarUj1ZottcPIdSTsIM4WAOCpIDAqBnkVC9J4aUQbtYaq9abrWNghzAEAAMgYaddYUXsnRl1HwQ6hAAAAXlAs5DVeireMObKBAgAAeJGJ0aLyfT6wDNnB3zAA4EWMkUosQz70KAAAgJcZ4WmjQ48CAAB4mUKOAjDsKAAAgJcJWHRs6FEAAADwEAUAAAAPUQAAAPAQBQAAAA9RAAAA8BAFAAAAD1EAAADwEAUAAAAPUQAAAPAQBQAAAA9RAAAA8BAFAAAAD1EAAADwEAUAAAAPUQAAAPBQ3nUAZEu1XtflK0taq25qo1JVo9l0HQnwVnFkRBPlcU2Oj+nA/imNl0quIyFDKADo2oW5yzr3zAVFkXUdBYCkRrOpxnJTi8srevriJR29dVazMwdcx0JGUADQlW+f/b4WV1ZdxwBwA1Fk9b2nzmtpZU3Hj93uOg4ygDkA6OjC3GVO/kBGLK6s6sLcZdcxkAEUAGyrWq/r3DMXXMcA0INzz1xQtV53HQMpRwHAti5fWWLMH8iYKLKaX1hyHQMpRwHAttaqm64jAOjDeoWfXWyPAoBtbVSqriMA6AM/u+iEAgAAgIcoANjWRHncdQQAfeBnF51QALCtyfEx1xEA9GFXmZ9dbI8CgG0d2D+lIDCuYwDoQRAYHdw35ToGUo4CgG2Nl0o6euus6xgAenD01lnWBUBHFAB0NDtzQNN7druOAaAL03t2sx4AukIBQFeOH7tdd9x2mOEAIKWCwOiO2w6zDgC6xmJA6NrszAFN7ZlkOWAgJVgOGHFQANCT8VJJt83e5DoGACAmhgAAAPAQBQAAAA9RAAAA8BAFAAAAD1EAAADwEAUAAAAPUQAAAPBQIGnDdQgAANA9a22s7Y0xNpB0KZk4AABgJ0RRFGv7IAhaFAAAADImDOMWAFOlAAAAkDHtdhhre2PMGgUAAICMaTTiLcQWBOZKIFkKAAAAGWGtVbPZjreTwFwKjM09lUwkAAAwaLVaI/ZdAIGC7wRhpK9KaiQTCwAADIq1VpVKLdY+jDEqFFqfCM586nRF0leTiQYAQDLi3uo2jKrVeuzvSz6fW/jSZz5+OZAka+2XEkkGAEBCWq2Y49xDptVqq1qN9+lfkvL53Feka48CtoXoCUnxBhQAAEhQqxXvVrdhEoaRVlY2Yo/9S1LOmMekawXgzOOPXpT0rdh7BQAgIfV6/Mluw+DqyX89kSGRfD5X/fLnHvuWdN1iQMbYL8TeMwAACWm3Q1Uqm65jONVqtbW0tBb7wT/Py+fzX3v+v18oANV67lPioUAAgBSpVuuxH3qTRc/P9l9eTuaTvyQFQRCOjJp3v/D/z//HE58+vSljP5LIUQAASMjKyoY2NqpeDAdYa7W5WdfCwqoqlc1E/8wjI4Xff+LTjy0+///5678YzX33s8HBOz8g6VhiRwQAIKarVwJaKpVGVCjkVSjkFQRB5w1TzFqrKIoUhpHa7VCNRlPNZnsgRSeXyzV21Xf9wvW/96ICcObMmfDBR07/soLoicSPHpeVGs2WGo2m2u1QURQqDK0XjTBNqvW6Ll9Z0lp1UxuVqhpN/y7NAWlRHBnRRHlck+NjOrB/SuOlkutIA3V1TkD82+B8VCwWPnbmc6df9Iade+mLvvPNv/r+Xfe+7ick3bpjybYRhpE2NqpaW6+oVmuo1WorDCNFkR8n/p990+tdR3jBhbnL+rvvntPy2ro2a3WFIbfoAC6FYajNWl0r6xu6ePmK8vm8JifKie2/UotX8P/ir76eUBLEUSjkV//rf3r8jS/9/S2vnwRR+POSFgaeahtWVpXKphYXV68+99iTE35affvs9/W9p857U7yArIkiq+89dV7fPvt911GQIkFgomIx99Nbfm2r3/z8Jx89Hxnzs5KcXN+NokjLy+uqVGpc4k+BC3OXtbiy6joGgC4srqzqwtxl1zGQAsZIxWLx/V/+7L//71t9/YYzKM789ke/bmX/xeCiba3dDrW0tKZW3KUOkYhqva5zz1xwHQNAD849c0HVet11DDg2Wip99s9/77FP3ejr206h/MNP/NrvWqPHk4+1tSi6+rSjMGQBiLS4fGWJy/5AxkSR1fzCkusYcKhYHPnbP/u9x96z3Ws63kNh5578JUlfTCzVjY4jq5XVDU7+KbNW9fspXEBWrXv+BD2fFUfy85ONydd0el3HAnDmzJkwmn/ynw76SkC1UuOyfwptVKquIwDoAz+7fioWR/52srnn8JkzpzvO4ct3eoF0tQRI+ldve/+H/o+R+Q+SRuKGvF4YRqpWGa8CAKAfxlwd8+902f96PT1G6Q8/8Wu/GxnzeiV8i2DSjztEcibK464jAOgDP7v+CAITlUqlR3o5+Us9FgDp6t0BuSi8x0h/3eu2W7JS3cOFHrJicnzMdQQAfdhV5mfXB4VCfnVsbOTHt5vtfyNdDQG81Oc/+eh5SScffOT0mxVEH1OMtQMazRYP+UmxA/un9PTFS9wJAGRIEBgd3DflOgYGKJfLNYrFwsf+7HOP9b2IX6yVFL7wydN/Es0/+WoZ+wvqcylhH5d5zJLxUklHb511HQNAD47eOjv06wL4KgiCsFQq/t5UuHdXnJO/1OcVgOtdmyD4mQfee/rz46XwfdaaByWdkGS62b7d5nnyaTc7c0BLK2s8DRDIgOk9uzU7c8B1DCQsn89V8/n810ZGzbuvX9I31j6T2IkkPfHp05uSfkvSb536wAdvMq3gAWPMWyTdJ6l4o+2iiAKQBceP3a4Lc5d17pkLDAcAKRQERkdvneXkPySMMcrncwv5fO4rOWMe+/LnHvtW0sdIrABc78zjj16U9DuSfufU+06Xc4Husya8TTKHJL3oVxjaiUFkQPJmZw5oas8kywEDKeHbcsDDxhhjgyBoBYGpGmPWgsBcUWAuBQq+Uyi0PvGlz3x8oIs6dHWZHu5cmFvl4zYAJ+aWN2Jtf++rbuEck2KxJgECAIBsogAAAOAhCgAAAB6iAAAA4CEKAAAAHqIAAADgIQoAAAAeogAAAOAhCgAAAB6iAAAA4CEKAAAAHqIAAADgIQoAAAAeogAAAOAhCgAAAB6iAAAA4CEKAAAAHqIAAADgIQoAAAAeogAAAOAhCgBq4n4pAAAEuUlEQVQAAB6iAAAA4CEKAAAAHsq7DoBs2azVNbewpI1qVeuVqhrNlutIcKg4UtCu8rgmxsc1s29KY6Ml15EAdIkCgK5duDSvc+efUxRFrqMgJRrNlhaWV7WwvKpnLs7p6OGbNXvooOtYALpAAUBXvn32+1pcWXUdAykWRZG+9/QFLa2u6/ix213HAdABcwDQ0YVL85z80bXFlVVduDTvOgaADigA2NZmra5z559zHQMZc+78c9qs1V3HALANCgC2NbewxJg/ehZFkeYXl1zHALANCgC2tVGtuo6AjFqv8G8HSDMKALbFmzj6xb8dIN0oAAAAeIgCgG3tKo+7joCM4t8OkG4UAGxrYpw3cfSHAgCkGwUA25rZN6Ug4J8JehMEgQ5OT7mOAWAbvLNjW2OjJR09fLPrGMiYo4dvZl0AIOUoAOho9tBBTe/Z7ToGMmJ6z27WAwAygAKArhw/drvuODLLcABuKAgC3XFklnUAgIxgMSB07fkrASwHjOexHDCQXRQA9GRstKRXzN7kOgYAICau5wIA4CEKAAAAHqIAAADgIQoAAAAeogAAAOAhCgAAAB6iAAAA4CEKAAAAHqIAAADgIQoAAAAeogAAAOAhCgAAAB6iAAAA4CEKAAAAHqIAAADgIQoAAOBlosi6joABowAAAF6mFYauI2DAKAAAgJdptikAw44CAAB4EWulerPtOgYGjAIAAHiRjVpD7TByHQMDRgEAALyg0WqrWm+6joEdkHcdAADgnrVXP/lz8vcHBQAAPBVFVq0wVKsdqdZscdnfMxSA9KtIKg/6IFZSs9VWvdlWO4wUWaswsrKWe4EB9M4Yw5tHylEA0s5qTkZHB7X7KLLaqDVUa7Y52QNITGACbiNIOQpA2hnNSckXAGulSr2har3FiR9A4oJAm64zYHvcBZB2Rk8mvcsoslra2FSl1uTkD2AgAmMuus6A7VEAUs5Y88Uk99cOIy2uV9XiKV8ABigIgj9wnQHbowCkXL2y66tW2khiX1FktbyxqZBFPgAMkDHGjtr8x13nwPYoACl39KhpGOn34+7HWmm5UuPkD2DgRvK5J48enVp3nQPbowBkQJQv/KoUb0JNpd7gsj+AgTNGKhRyD7nOgc4oABlw677xORk93u/2UWRVrbeSjAQAWyoWCn/zqiP7/7frHOiMApARYW3y1yV9o59tN2oNZvsDGLh8LqhE+eKbXedAdygAGXHkiKmHufzPSHqul+2spBrLegIYsCAw4chI/h8fP7Jn1XUWdIcCkCFH9pfnjYnuVw8loNniCX8ABisITFgaKbztrtsO/J3rLOgeBSBjbjm49+/DXP4edTkcUOfTP4AByueCSqlY+JG7XnHgj1xnQW8oABl0ZH95PqxPnpTRo+pwdwCrewEYBGOk0kjhb4Li2C188s8m4zoA4nlmoToTtFsfttJDRpp46dcX1qqUAACJMcbYkXzuyUIh9xCz/bONAjAkzp2zxVJ5/T5r7FtldaesZmQ0M79SKTMHAEA/jDE2MEE7CLQZGHMxCII/GLX5j/OQHwAAAAAAAAAAAAAAAAAAAAAAAAAAAAAAAAAAAAAAAAAAAAAAAAAAAAAAAAAAAAAAMKz+H+5XbPM/iIdoAAAAAElFTkSuQmCC;" vertex="1" parent="1">
          <mxGeometry x="590" y="255" width="29" height="29" as="geometry" />
        </mxCell>
        <mxCell id="lmG2QonkjUvl6BErKhpc-57" value="DomÃ­nio-Pai" style="text;html=1;align=left;verticalAlign=middle;resizable=0;points=[];autosize=1;strokeColor=none;fillColor=none;" vertex="1" parent="1">
          <mxGeometry x="445" y="129" width="90" height="30" as="geometry" />
        </mxCell>
        <mxCell id="lmG2QonkjUvl6BErKhpc-58" value="DomÃ­nio-Filho" style="text;html=1;align=left;verticalAlign=middle;resizable=0;points=[];autosize=1;strokeColor=none;fillColor=none;" vertex="1" parent="1">
          <mxGeometry x="490" y="201" width="100" height="30" as="geometry" />
        </mxCell>
        <mxCell id="lmG2QonkjUvl6BErKhpc-59" value="" style="endArrow=none;html=1;rounded=0;entryX=-0.009;entryY=0.516;entryDx=0;entryDy=0;entryPerimeter=0;exitX=0.5;exitY=1;exitDx=0;exitDy=0;" edge="1" parent="1" source="lmG2QonkjUvl6BErKhpc-2" target="lmG2QonkjUvl6BErKhpc-57">
          <mxGeometry width="50" height="50" relative="1" as="geometry">
            <mxPoint x="410" y="230" as="sourcePoint" />
            <mxPoint x="460" y="180" as="targetPoint" />
          </mxGeometry>
        </mxCell>
        <mxCell id="lmG2QonkjUvl6BErKhpc-60" value="" style="endArrow=none;html=1;rounded=0;exitX=0.5;exitY=1;exitDx=0;exitDy=0;" edge="1" parent="1" source="lmG2QonkjUvl6BErKhpc-11">
          <mxGeometry width="50" height="50" relative="1" as="geometry">
            <mxPoint x="410" y="230" as="sourcePoint" />
            <mxPoint x="490" y="218" as="targetPoint" />
          </mxGeometry>
        </mxCell>
      </root>
    </mxGraphModel>
  </diagram>
</mxfile>
